G04*
G04 #@! TF.GenerationSoftware,Altium Limited,Altium Designer,24.1.2 (44)*
G04*
G04 Layer_Color=10002730*
%FSLAX44Y44*%
%MOMM*%
G71*
G04*
G04 #@! TF.SameCoordinates,7576D355-30E4-4C7B-8782-25CA61036F80*
G04*
G04*
G04 #@! TF.FilePolarity,Positive*
G04*
G01*
G75*
%ADD10C,0.2000*%
%ADD11C,0.2500*%
%ADD12C,0.1270*%
%ADD13C,0.2540*%
D10*
X65770Y267990D02*
G03*
X65770Y267990I-1000J0D01*
G01*
X195920Y46230D02*
Y167730D01*
Y46230D02*
X562920D01*
Y167730D01*
X195920D02*
X562920D01*
X617870Y47200D02*
Y168700D01*
Y47200D02*
X984870D01*
Y168700D01*
X617870D02*
X984870D01*
X582030Y601090D02*
Y722590D01*
X215030D02*
X582030D01*
X215030Y601090D02*
Y722590D01*
Y601090D02*
X582030D01*
X996460Y600620D02*
Y722120D01*
X629460D02*
X996460D01*
X629460Y600620D02*
Y722120D01*
Y600620D02*
X996460D01*
X81480Y44140D02*
X106480D01*
X81480Y164140D02*
X106480D01*
X33980D02*
X56480D01*
X33980Y44140D02*
X56480D01*
X131480Y164140D02*
X153980D01*
X33980Y44140D02*
Y164140D01*
X131480Y44140D02*
X153980D01*
Y164140D01*
X47370Y212170D02*
Y222170D01*
X31370Y212170D02*
Y222170D01*
X77120Y602940D02*
X102120D01*
X77120Y722940D02*
X102120D01*
X29620D02*
X52120D01*
X29620Y602940D02*
X52120D01*
X127120Y722940D02*
X149620D01*
X29620Y602940D02*
Y722940D01*
X127120Y602940D02*
X149620D01*
Y722940D01*
D11*
X230670Y40980D02*
G03*
X230670Y40980I-1250J0D01*
G01*
X652620Y41950D02*
G03*
X652620Y41950I-1250J0D01*
G01*
X549780Y727840D02*
G03*
X549780Y727840I-1250J0D01*
G01*
X964210Y727370D02*
G03*
X964210Y727370I-1250J0D01*
G01*
X120230Y180890D02*
G03*
X120230Y180890I-1250J0D01*
G01*
X115870Y739690D02*
G03*
X115870Y739690I-1250J0D01*
G01*
D12*
X51070Y284890D02*
X53570D01*
X558570D02*
X561070D01*
X51070Y494890D02*
X53570D01*
X558570D02*
X561070D01*
Y284890D02*
Y353290D01*
Y426490D02*
Y494890D01*
X51070Y284890D02*
Y349890D01*
X38070D02*
X51070D01*
X38070D02*
Y429890D01*
X51070D01*
Y494890D01*
D13*
X76207Y24128D02*
X73668Y26667D01*
X68590D01*
X66050Y24128D01*
Y21589D01*
X68590Y19050D01*
X73668D01*
X76207Y16511D01*
Y13972D01*
X73668Y11432D01*
X68590D01*
X66050Y13972D01*
X83825Y24128D02*
Y21589D01*
X81285D01*
X86364D01*
X83825D01*
Y13972D01*
X86364Y11432D01*
X96520Y21589D02*
X101599D01*
X104138Y19050D01*
Y11432D01*
X96520D01*
X93981Y13972D01*
X96520Y16511D01*
X104138D01*
X109216Y21589D02*
Y11432D01*
Y16511D01*
X111756Y19050D01*
X114295Y21589D01*
X116834D01*
X126991Y24128D02*
Y21589D01*
X124451D01*
X129530D01*
X126991D01*
Y13972D01*
X129530Y11432D01*
X41925Y563882D02*
Y579118D01*
X49543D01*
X52082Y576578D01*
Y571500D01*
X49543Y568961D01*
X41925D01*
X47004D02*
X52082Y563882D01*
X64778D02*
X59700D01*
X57160Y566422D01*
Y571500D01*
X59700Y574039D01*
X64778D01*
X67317Y571500D01*
Y568961D01*
X57160D01*
X72395Y563882D02*
X80013D01*
X82552Y566422D01*
X80013Y568961D01*
X74935D01*
X72395Y571500D01*
X74935Y574039D01*
X82552D01*
X90170Y576578D02*
Y574039D01*
X87630D01*
X92709D01*
X90170D01*
Y566422D01*
X92709Y563882D01*
X102865Y574039D02*
X107944D01*
X110483Y571500D01*
Y563882D01*
X102865D01*
X100326Y566422D01*
X102865Y568961D01*
X110483D01*
X115561Y574039D02*
Y563882D01*
Y568961D01*
X118101Y571500D01*
X120640Y574039D01*
X123179D01*
X133336Y576578D02*
Y574039D01*
X130796D01*
X135875D01*
X133336D01*
Y566422D01*
X135875Y563882D01*
X61341Y241427D02*
X76576D01*
Y233810D01*
X74037Y231270D01*
X68959D01*
X66419Y233810D01*
Y241427D01*
Y236349D02*
X61341Y231270D01*
Y226192D02*
Y221114D01*
Y223653D01*
X76576D01*
X74037Y226192D01*
X27813Y268605D02*
X12578D01*
Y276222D01*
X15117Y278762D01*
X20196D01*
X22735Y276222D01*
Y268605D01*
X27813Y283840D02*
Y288918D01*
Y286379D01*
X17656D01*
Y283840D01*
Y306693D02*
Y299075D01*
X20196Y296536D01*
X25274D01*
X27813Y299075D01*
Y306693D01*
Y314310D02*
Y319389D01*
X25274Y321928D01*
X20196D01*
X17656Y319389D01*
Y314310D01*
X20196Y311771D01*
X25274D01*
X27813Y314310D01*
X12578Y342241D02*
X27813D01*
Y349859D01*
X25274Y352398D01*
X22735D01*
X20196Y349859D01*
Y342241D01*
Y349859D01*
X17656Y352398D01*
X15117D01*
X12578Y349859D01*
Y342241D01*
X27813Y360015D02*
Y365094D01*
X25274Y367633D01*
X20196D01*
X17656Y365094D01*
Y360015D01*
X20196Y357476D01*
X25274D01*
X27813Y360015D01*
X17656Y375251D02*
Y380329D01*
X20196Y382868D01*
X27813D01*
Y375251D01*
X25274Y372711D01*
X22735Y375251D01*
Y382868D01*
X17656Y387946D02*
X27813D01*
X22735D01*
X20196Y390486D01*
X17656Y393025D01*
Y395564D01*
X12578Y413338D02*
X27813D01*
Y405721D01*
X25274Y403181D01*
X20196D01*
X17656Y405721D01*
Y413338D01*
X335295Y196847D02*
X330217D01*
X332756D01*
Y184151D01*
X330217Y181612D01*
X327678D01*
X325139Y184151D01*
X340374Y179073D02*
X350530D01*
X355609Y181612D02*
Y196847D01*
X363226D01*
X365765Y194308D01*
Y189230D01*
X363226Y186690D01*
X355609D01*
X370844Y181612D02*
X375922D01*
X373383D01*
Y191769D01*
X370844D01*
X393696D02*
X386079D01*
X383540Y189230D01*
Y184151D01*
X386079Y181612D01*
X393696D01*
X401314D02*
X406392D01*
X408931Y184151D01*
Y189230D01*
X406392Y191769D01*
X401314D01*
X398775Y189230D01*
Y184151D01*
X401314Y181612D01*
X414010Y179073D02*
X424166D01*
X436862Y181612D02*
Y196847D01*
X429245Y189230D01*
X439402D01*
X854725Y198117D02*
X849647D01*
X852186D01*
Y185421D01*
X849647Y182882D01*
X847108D01*
X844568Y185421D01*
X859804Y180343D02*
X869960D01*
X875039Y182882D02*
Y198117D01*
X882656D01*
X885195Y195578D01*
Y190500D01*
X882656Y187960D01*
X875039D01*
X890274Y182882D02*
X895352D01*
X892813D01*
Y193039D01*
X890274D01*
X913126D02*
X905509D01*
X902970Y190500D01*
Y185421D01*
X905509Y182882D01*
X913126D01*
X920744D02*
X925822D01*
X928361Y185421D01*
Y190500D01*
X925822Y193039D01*
X920744D01*
X918205Y190500D01*
Y185421D01*
X920744Y182882D01*
X933440Y180343D02*
X943596D01*
X948675Y195578D02*
X951214Y198117D01*
X956292D01*
X958831Y195578D01*
Y193039D01*
X956292Y190500D01*
X953753D01*
X956292D01*
X958831Y187960D01*
Y185421D01*
X956292Y182882D01*
X951214D01*
X948675Y185421D01*
X262905Y589277D02*
X257827D01*
X260366D01*
Y576581D01*
X257827Y574042D01*
X255288D01*
X252749Y576581D01*
X267984Y571503D02*
X278140D01*
X283219Y574042D02*
Y589277D01*
X290836D01*
X293375Y586738D01*
Y581660D01*
X290836Y579120D01*
X283219D01*
X298454Y574042D02*
X303532D01*
X300993D01*
Y584199D01*
X298454D01*
X321306D02*
X313689D01*
X311150Y581660D01*
Y576581D01*
X313689Y574042D01*
X321306D01*
X328924D02*
X334002D01*
X336541Y576581D01*
Y581660D01*
X334002Y584199D01*
X328924D01*
X326385Y581660D01*
Y576581D01*
X328924Y574042D01*
X341620Y571503D02*
X351777D01*
X367011Y574042D02*
X356855D01*
X367011Y584199D01*
Y586738D01*
X364472Y589277D01*
X359394D01*
X356855Y586738D01*
X731534Y590547D02*
X726456D01*
X728995D01*
Y577851D01*
X726456Y575312D01*
X723917D01*
X721378Y577851D01*
X736613Y572773D02*
X746769D01*
X751848Y575312D02*
Y590547D01*
X759465D01*
X762004Y588008D01*
Y582930D01*
X759465Y580390D01*
X751848D01*
X767083Y575312D02*
X772161D01*
X769622D01*
Y585469D01*
X767083D01*
X789936D02*
X782318D01*
X779779Y582930D01*
Y577851D01*
X782318Y575312D01*
X789936D01*
X797553D02*
X802631D01*
X805171Y577851D01*
Y582930D01*
X802631Y585469D01*
X797553D01*
X795014Y582930D01*
Y577851D01*
X797553Y575312D01*
X810249Y572773D02*
X820406D01*
X825484Y575312D02*
X830562D01*
X828023D01*
Y590547D01*
X825484Y588008D01*
M02*
