G04*
G04 #@! TF.GenerationSoftware,Altium Limited,Altium Designer,24.1.2 (44)*
G04*
G04 Layer_Physical_Order=2*
G04 Layer_Color=12874092*
%FSLAX44Y44*%
%MOMM*%
G71*
G04*
G04 #@! TF.SameCoordinates,7576D355-30E4-4C7B-8782-25CA61036F80*
G04*
G04*
G04 #@! TF.FilePolarity,Positive*
G04*
G01*
G75*
%ADD22C,1.5500*%
%ADD23R,1.5500X1.5500*%
%ADD30C,0.3810*%
%ADD31C,1.7500*%
%ADD32R,1.7500X1.7500*%
%ADD33C,1.0000*%
%ADD34C,1.2700*%
G36*
X1012633Y3367D02*
X3367D01*
Y758633D01*
X1012633D01*
Y3367D01*
D02*
G37*
%LPC*%
G36*
X67160Y736448D02*
Y727980D01*
X75628D01*
X75141Y729798D01*
X73654Y732373D01*
X71552Y734474D01*
X68978Y735961D01*
X67160Y736448D01*
D02*
G37*
G36*
X62080D02*
X60262Y735961D01*
X57688Y734474D01*
X55586Y732373D01*
X54100Y729798D01*
X53612Y727980D01*
X62080D01*
Y736448D01*
D02*
G37*
G36*
X75628Y722900D02*
X67160D01*
Y714433D01*
X68978Y714920D01*
X71552Y716406D01*
X73654Y718508D01*
X75141Y721083D01*
X75628Y722900D01*
D02*
G37*
G36*
X62080D02*
X53612D01*
X54100Y721083D01*
X55586Y718508D01*
X57688Y716406D01*
X60262Y714920D01*
X62080Y714433D01*
Y722900D01*
D02*
G37*
G36*
X341070Y684812D02*
Y677380D01*
X348503D01*
X348119Y678812D01*
X346764Y681158D01*
X344848Y683074D01*
X342502Y684429D01*
X341070Y684812D01*
D02*
G37*
G36*
X335990D02*
X334558Y684429D01*
X332212Y683074D01*
X330296Y681158D01*
X328941Y678812D01*
X328558Y677380D01*
X335990D01*
Y684812D01*
D02*
G37*
G36*
X409818Y684622D02*
X407242D01*
X404754Y683955D01*
X402524Y682667D01*
X400703Y680846D01*
X399415Y678616D01*
X398748Y676128D01*
Y673552D01*
X399415Y671064D01*
X400703Y668834D01*
X402524Y667012D01*
X404754Y665724D01*
X407242Y665058D01*
X409818D01*
X412306Y665724D01*
X414536Y667012D01*
X416358Y668834D01*
X417645Y671064D01*
X418312Y673552D01*
Y676128D01*
X417645Y678616D01*
X416358Y680846D01*
X414536Y682667D01*
X412306Y683955D01*
X409818Y684622D01*
D02*
G37*
G36*
X269818D02*
X267242D01*
X264754Y683955D01*
X262523Y682667D01*
X260702Y680846D01*
X259414Y678616D01*
X258748Y676128D01*
Y673552D01*
X259414Y671064D01*
X260702Y668834D01*
X262523Y667012D01*
X264754Y665724D01*
X267242Y665058D01*
X269818D01*
X272306Y665724D01*
X274536Y667012D01*
X276357Y668834D01*
X277645Y671064D01*
X278312Y673552D01*
Y676128D01*
X277645Y678616D01*
X276357Y680846D01*
X274536Y682667D01*
X272306Y683955D01*
X269818Y684622D01*
D02*
G37*
G36*
X348503Y672300D02*
X341070D01*
Y664867D01*
X342502Y665251D01*
X344848Y666606D01*
X346764Y668522D01*
X348119Y670868D01*
X348503Y672300D01*
D02*
G37*
G36*
X335990D02*
X328558D01*
X328941Y670868D01*
X330296Y668522D01*
X332212Y666606D01*
X334558Y665251D01*
X335990Y664867D01*
Y672300D01*
D02*
G37*
G36*
X972742Y684152D02*
X953178D01*
Y664588D01*
X972742D01*
Y684152D01*
D02*
G37*
G36*
X894248D02*
X891672D01*
X889184Y683485D01*
X886954Y682197D01*
X885132Y680376D01*
X883845Y678146D01*
X883178Y675658D01*
Y673082D01*
X883773Y670860D01*
X852984Y640071D01*
X759975D01*
X758439Y639766D01*
X757137Y638895D01*
X570438Y452197D01*
X480580D01*
X478111Y454666D01*
X478202Y455004D01*
Y456856D01*
X477723Y458644D01*
X476797Y460248D01*
X475488Y461557D01*
X473884Y462483D01*
X472096Y462962D01*
X470244D01*
X468456Y462483D01*
X466852Y461557D01*
X465543Y460248D01*
X464617Y458644D01*
X464138Y456856D01*
Y455004D01*
X464617Y453216D01*
X465543Y451612D01*
X466852Y450303D01*
X468456Y449377D01*
X470244Y448898D01*
X472096D01*
X472434Y448989D01*
X476079Y445345D01*
X477381Y444474D01*
X478917Y444169D01*
X572101D01*
X573637Y444474D01*
X574939Y445345D01*
X761638Y632043D01*
X780139D01*
X780626Y630870D01*
X780132Y630376D01*
X778844Y628146D01*
X778178Y625658D01*
Y623082D01*
X778773Y620860D01*
X688977Y531064D01*
X678902D01*
X678727Y531368D01*
X677418Y532677D01*
X675814Y533603D01*
X674026Y534082D01*
X672174D01*
X670386Y533603D01*
X668782Y532677D01*
X667473Y531368D01*
X666547Y529764D01*
X666068Y527976D01*
Y526124D01*
X666547Y524336D01*
X667473Y522732D01*
X668782Y521423D01*
X670386Y520497D01*
X672174Y520018D01*
X674026D01*
X675814Y520497D01*
X677418Y521423D01*
X678727Y522732D01*
X678902Y523036D01*
X690640D01*
X692176Y523341D01*
X693478Y524212D01*
X784450Y615183D01*
X786672Y614588D01*
X789248D01*
X791736Y615255D01*
X793966Y616543D01*
X795787Y618364D01*
X797075Y620594D01*
X797742Y623082D01*
Y625658D01*
X797075Y628146D01*
X795787Y630376D01*
X795294Y630870D01*
X795780Y632043D01*
X850140D01*
X850626Y630870D01*
X850133Y630376D01*
X848845Y628146D01*
X848178Y625658D01*
Y623082D01*
X848845Y620594D01*
X850133Y618364D01*
X851954Y616543D01*
X854184Y615255D01*
X856672Y614588D01*
X859248D01*
X861736Y615255D01*
X863967Y616543D01*
X865788Y618364D01*
X867076Y620594D01*
X867742Y623082D01*
Y625658D01*
X867076Y628146D01*
X865788Y630376D01*
X863967Y632198D01*
X861736Y633485D01*
X860011Y633948D01*
X859631Y635364D01*
X889450Y665183D01*
X891672Y664588D01*
X894248D01*
X896736Y665255D01*
X898966Y666543D01*
X900787Y668364D01*
X902075Y670594D01*
X902742Y673082D01*
Y675658D01*
X902075Y678146D01*
X900787Y680376D01*
X898966Y682197D01*
X896736Y683485D01*
X894248Y684152D01*
D02*
G37*
G36*
X824248D02*
X821672D01*
X819184Y683485D01*
X816954Y682197D01*
X815133Y680376D01*
X813845Y678146D01*
X813178Y675658D01*
Y673082D01*
X813845Y670594D01*
X815133Y668364D01*
X816954Y666543D01*
X819184Y665255D01*
X821672Y664588D01*
X824248D01*
X826736Y665255D01*
X828966Y666543D01*
X830788Y668364D01*
X832075Y670594D01*
X832742Y673082D01*
Y675658D01*
X832075Y678146D01*
X830788Y680376D01*
X828966Y682197D01*
X826736Y683485D01*
X824248Y684152D01*
D02*
G37*
G36*
X136105Y674222D02*
X133135D01*
X130265Y673453D01*
X127693Y671968D01*
X125592Y669867D01*
X124107Y667295D01*
X123338Y664425D01*
Y661455D01*
X124107Y658585D01*
X125592Y656013D01*
X127693Y653912D01*
X130265Y652427D01*
X133135Y651658D01*
X136105D01*
X138975Y652427D01*
X141547Y653912D01*
X143648Y656013D01*
X145133Y658585D01*
X145902Y661455D01*
Y664425D01*
X145133Y667295D01*
X143648Y669867D01*
X141547Y671968D01*
X138975Y673453D01*
X136105Y674222D01*
D02*
G37*
G36*
X46105D02*
X43135D01*
X40265Y673453D01*
X37693Y671968D01*
X35592Y669867D01*
X34107Y667295D01*
X33338Y664425D01*
Y661455D01*
X34107Y658585D01*
X35592Y656013D01*
X37693Y653912D01*
X40265Y652427D01*
X43135Y651658D01*
X46105D01*
X48975Y652427D01*
X51547Y653912D01*
X53648Y656013D01*
X55133Y658585D01*
X55902Y661455D01*
Y664425D01*
X55133Y667295D01*
X53648Y669867D01*
X51547Y671968D01*
X48975Y673453D01*
X46105Y674222D01*
D02*
G37*
G36*
X296456Y648382D02*
X294604D01*
X292816Y647903D01*
X291212Y646977D01*
X289903Y645668D01*
X288977Y644064D01*
X288498Y642276D01*
Y640424D01*
X288977Y638636D01*
X289903Y637032D01*
X291212Y635723D01*
X292816Y634797D01*
X294604Y634318D01*
X296456D01*
X298244Y634797D01*
X299848Y635723D01*
X301157Y637032D01*
X301332Y637336D01*
X425358D01*
X434344Y628350D01*
X433748Y626128D01*
Y623552D01*
X434415Y621064D01*
X435703Y618834D01*
X437524Y617012D01*
X439754Y615725D01*
X442242Y615058D01*
X444818D01*
X447306Y615725D01*
X449537Y617012D01*
X451358Y618834D01*
X452646Y621064D01*
X453312Y623552D01*
Y626128D01*
X452646Y628616D01*
X451358Y630846D01*
X449537Y632668D01*
X447306Y633955D01*
X444818Y634622D01*
X442242D01*
X440020Y634027D01*
X429859Y644188D01*
X428556Y645059D01*
X427020Y645364D01*
X301332D01*
X301157Y645668D01*
X299848Y646977D01*
X298244Y647903D01*
X296456Y648382D01*
D02*
G37*
G36*
X374818Y634622D02*
X372242D01*
X369754Y633955D01*
X367524Y632668D01*
X365702Y630846D01*
X364414Y628616D01*
X363748Y626128D01*
Y623552D01*
X364414Y621064D01*
X365702Y618834D01*
X367524Y617012D01*
X369754Y615725D01*
X372242Y615058D01*
X374818D01*
X377306Y615725D01*
X379536Y617012D01*
X381357Y618834D01*
X382645Y621064D01*
X383312Y623552D01*
Y626128D01*
X382645Y628616D01*
X381357Y630846D01*
X379536Y632668D01*
X377306Y633955D01*
X374818Y634622D01*
D02*
G37*
G36*
X929248Y634152D02*
X926672D01*
X924184Y633485D01*
X921954Y632198D01*
X920133Y630376D01*
X918845Y628146D01*
X918178Y625658D01*
Y623082D01*
X918845Y620594D01*
X920133Y618364D01*
X921954Y616543D01*
X924184Y615255D01*
X926672Y614588D01*
X929248D01*
X931736Y615255D01*
X933966Y616543D01*
X935788Y618364D01*
X937075Y620594D01*
X937742Y623082D01*
Y625658D01*
X937075Y628146D01*
X935788Y630376D01*
X933966Y632198D01*
X931736Y633485D01*
X929248Y634152D01*
D02*
G37*
G36*
X558312Y684622D02*
X538748D01*
Y678854D01*
X535065D01*
X533529Y678549D01*
X532226Y677678D01*
X499005Y644457D01*
X498134Y643154D01*
X497829Y641618D01*
Y624976D01*
X483717Y610864D01*
X482544Y611350D01*
Y665862D01*
X484536Y667012D01*
X486357Y668834D01*
X487645Y671064D01*
X488312Y673552D01*
Y676128D01*
X487645Y678616D01*
X486357Y680846D01*
X484536Y682667D01*
X482306Y683955D01*
X479818Y684622D01*
X477242D01*
X474754Y683955D01*
X472524Y682667D01*
X470702Y680846D01*
X469414Y678616D01*
X468748Y676128D01*
Y673552D01*
X469414Y671064D01*
X470702Y668834D01*
X472524Y667012D01*
X474516Y665862D01*
Y610044D01*
X296070D01*
X295584Y611217D01*
X300020Y615653D01*
X302242Y615058D01*
X304818D01*
X307306Y615725D01*
X309536Y617012D01*
X311357Y618834D01*
X312645Y621064D01*
X313312Y623552D01*
Y626128D01*
X312645Y628616D01*
X311357Y630846D01*
X309536Y632668D01*
X307306Y633955D01*
X304818Y634622D01*
X302242D01*
X299754Y633955D01*
X297524Y632668D01*
X295702Y630846D01*
X294415Y628616D01*
X293748Y626128D01*
Y623552D01*
X294343Y621330D01*
X288899Y615886D01*
X239883D01*
X239680Y617156D01*
X241358Y618834D01*
X242645Y621064D01*
X243312Y623552D01*
Y626128D01*
X242645Y628616D01*
X241358Y630846D01*
X239536Y632668D01*
X237306Y633955D01*
X234818Y634622D01*
X232242D01*
X229754Y633955D01*
X227524Y632668D01*
X225703Y630846D01*
X224415Y628616D01*
X223748Y626128D01*
Y623552D01*
X224415Y621064D01*
X225703Y618834D01*
X227380Y617156D01*
X227178Y615886D01*
X153402D01*
X151866Y615580D01*
X150563Y614710D01*
X74924Y539071D01*
X74586Y539162D01*
X72734D01*
X70946Y538683D01*
X69342Y537757D01*
X68033Y536448D01*
X67107Y534844D01*
X66628Y533056D01*
Y531204D01*
X67107Y529416D01*
X68033Y527812D01*
X69342Y526503D01*
X70946Y525577D01*
X72734Y525098D01*
X74586D01*
X76374Y525577D01*
X77978Y526503D01*
X79287Y527812D01*
X80213Y529416D01*
X80692Y531204D01*
Y533056D01*
X80601Y533394D01*
X155064Y607858D01*
X177611D01*
X178097Y606684D01*
X89777Y518364D01*
X88352D01*
X88177Y518668D01*
X86868Y519977D01*
X85264Y520903D01*
X83476Y521382D01*
X81624D01*
X79836Y520903D01*
X78232Y519977D01*
X76923Y518668D01*
X75997Y517064D01*
X75518Y515276D01*
Y513424D01*
X75997Y511636D01*
X76923Y510032D01*
X78232Y508723D01*
X79836Y507797D01*
X81624Y507318D01*
X83476D01*
X85264Y507797D01*
X86868Y508723D01*
X88177Y510032D01*
X88352Y510336D01*
X91440D01*
X92976Y510641D01*
X94278Y511512D01*
X184783Y602016D01*
X473209D01*
X473696Y600842D01*
X442820Y569966D01*
X327242D01*
X325706Y569661D01*
X324404Y568791D01*
X214332Y458718D01*
X213461Y457416D01*
X213156Y455880D01*
Y396962D01*
X212852Y396787D01*
X211543Y395478D01*
X210617Y393874D01*
X210138Y392086D01*
Y390234D01*
X210617Y388446D01*
X211543Y386842D01*
X212852Y385533D01*
X214456Y384607D01*
X216244Y384128D01*
X218096D01*
X219884Y384607D01*
X221488Y385533D01*
X222797Y386842D01*
X223723Y388446D01*
X224202Y390234D01*
Y392086D01*
X223723Y393874D01*
X222797Y395478D01*
X221488Y396787D01*
X221184Y396962D01*
Y440741D01*
X222454Y441081D01*
X222973Y440182D01*
X224282Y438873D01*
X225886Y437947D01*
X227674Y437468D01*
X229526D01*
X231314Y437947D01*
X232918Y438873D01*
X234227Y440182D01*
X235153Y441786D01*
X235632Y443574D01*
Y445426D01*
X235153Y447214D01*
X234227Y448818D01*
X232918Y450127D01*
X232614Y450302D01*
Y457385D01*
X322711Y547482D01*
X358597D01*
X359083Y546309D01*
X266316Y453542D01*
X265446Y452239D01*
X265140Y450703D01*
Y447176D01*
X263652Y446317D01*
X262343Y445008D01*
X261417Y443404D01*
X260938Y441616D01*
Y439764D01*
X261417Y437976D01*
X262343Y436372D01*
X263652Y435063D01*
X265256Y434137D01*
X267044Y433658D01*
X268896D01*
X270684Y434137D01*
X272288Y435063D01*
X273597Y436372D01*
X274523Y437976D01*
X275002Y439764D01*
Y441616D01*
X274523Y443404D01*
X273597Y445008D01*
X273169Y445436D01*
Y449040D01*
X337190Y513062D01*
X338607Y512683D01*
X338887Y511636D01*
X339813Y510032D01*
X341122Y508723D01*
X342726Y507797D01*
X344514Y507318D01*
X346366D01*
X348154Y507797D01*
X349758Y508723D01*
X351067Y510032D01*
X351242Y510336D01*
X591412D01*
X592948Y510641D01*
X594250Y511512D01*
X707005Y624266D01*
X708178Y623780D01*
Y623082D01*
X708773Y620860D01*
X560684Y472771D01*
X448260D01*
X446724Y472466D01*
X445421Y471595D01*
X423483Y449657D01*
X317729D01*
X317703Y449754D01*
X316777Y451358D01*
X315468Y452667D01*
X313864Y453593D01*
X312076Y454072D01*
X310224D01*
X308436Y453593D01*
X306832Y452667D01*
X305523Y451358D01*
X304597Y449754D01*
X304118Y447966D01*
Y446114D01*
X304597Y444326D01*
X305523Y442722D01*
X306832Y441413D01*
X308436Y440487D01*
X310224Y440008D01*
X312076D01*
X313864Y440487D01*
X315468Y441413D01*
X315684Y441629D01*
X425146D01*
X426682Y441934D01*
X427984Y442805D01*
X449922Y464743D01*
X562347D01*
X563883Y465048D01*
X565185Y465919D01*
X714450Y615183D01*
X716672Y614588D01*
X719248D01*
X721736Y615255D01*
X723966Y616543D01*
X725788Y618364D01*
X727075Y620594D01*
X727742Y623082D01*
Y625658D01*
X727075Y628146D01*
X725788Y630376D01*
X723966Y632198D01*
X721736Y633485D01*
X719248Y634152D01*
X718550D01*
X718064Y635325D01*
X748429Y665691D01*
X749184Y665255D01*
X751672Y664588D01*
X754248D01*
X756736Y665255D01*
X758966Y666543D01*
X760788Y668364D01*
X762076Y670594D01*
X762742Y673082D01*
Y675658D01*
X762076Y678146D01*
X760788Y680376D01*
X758966Y682197D01*
X756736Y683485D01*
X754248Y684152D01*
X751672D01*
X749184Y683485D01*
X746954Y682197D01*
X745133Y680376D01*
X743845Y678146D01*
X743178Y675658D01*
Y673082D01*
X743451Y672066D01*
X589749Y518364D01*
X351242D01*
X351067Y518668D01*
X349758Y519977D01*
X348154Y520903D01*
X347107Y521183D01*
X346728Y522600D01*
X365768Y541640D01*
X585772D01*
X587308Y541946D01*
X588610Y542816D01*
X685798Y640003D01*
X686668Y641306D01*
X686974Y642842D01*
Y665392D01*
X688966Y666543D01*
X690787Y668364D01*
X692075Y670594D01*
X692742Y673082D01*
Y675658D01*
X692075Y678146D01*
X690787Y680376D01*
X688966Y682197D01*
X686736Y683485D01*
X684248Y684152D01*
X681672D01*
X679184Y683485D01*
X676954Y682197D01*
X675132Y680376D01*
X673844Y678146D01*
X673178Y675658D01*
Y673082D01*
X673844Y670594D01*
X675132Y668364D01*
X676954Y666543D01*
X678946Y665392D01*
Y644505D01*
X658915Y624474D01*
X657742Y624960D01*
Y625658D01*
X657076Y628146D01*
X655788Y630376D01*
X653966Y632198D01*
X651736Y633485D01*
X649248Y634152D01*
X646672D01*
X644184Y633485D01*
X641954Y632198D01*
X640133Y630376D01*
X638845Y628146D01*
X638178Y625658D01*
Y623082D01*
X638773Y620860D01*
X573423Y555510D01*
X324137D01*
X323651Y556684D01*
X328905Y561938D01*
X444482D01*
X446018Y562243D01*
X447321Y563114D01*
X503798Y619591D01*
X505386Y619383D01*
X505703Y618834D01*
X507524Y617012D01*
X509754Y615725D01*
X512242Y615058D01*
X514818D01*
X517306Y615725D01*
X519536Y617012D01*
X521358Y618834D01*
X522645Y621064D01*
X523312Y623552D01*
Y626128D01*
X522645Y628616D01*
X521358Y630846D01*
X519536Y632668D01*
X517306Y633955D01*
X514818Y634622D01*
X512242D01*
X509754Y633955D01*
X507524Y632668D01*
X507031Y632174D01*
X505857Y632660D01*
Y639955D01*
X536727Y670826D01*
X538748D01*
Y665058D01*
X558312D01*
Y684622D01*
D02*
G37*
G36*
X67160Y611448D02*
Y602980D01*
X75628D01*
X75141Y604798D01*
X73654Y607373D01*
X71552Y609474D01*
X68978Y610961D01*
X67160Y611448D01*
D02*
G37*
G36*
X62080D02*
X60262Y610961D01*
X57688Y609474D01*
X55586Y607373D01*
X54100Y604798D01*
X53612Y602980D01*
X62080D01*
Y611448D01*
D02*
G37*
G36*
X125402Y736222D02*
X103838D01*
Y714658D01*
X110286D01*
Y610388D01*
X108000Y609068D01*
X105992Y607061D01*
X104573Y604602D01*
X103838Y601860D01*
Y599021D01*
X104573Y596279D01*
X105992Y593820D01*
X108000Y591813D01*
X110458Y590393D01*
X113201Y589658D01*
X116039D01*
X118782Y590393D01*
X121240Y591813D01*
X123248Y593820D01*
X124667Y596279D01*
X125402Y599021D01*
Y601860D01*
X124667Y604602D01*
X123248Y607061D01*
X121240Y609068D01*
X118782Y610488D01*
X118314Y610613D01*
Y714658D01*
X125402D01*
Y736222D01*
D02*
G37*
G36*
X75628Y597900D02*
X67160D01*
Y589433D01*
X68978Y589920D01*
X71552Y591406D01*
X73654Y593508D01*
X75141Y596082D01*
X75628Y597900D01*
D02*
G37*
G36*
X62080D02*
X53612D01*
X54100Y596082D01*
X55586Y593508D01*
X57688Y591406D01*
X60262Y589920D01*
X62080Y589433D01*
Y597900D01*
D02*
G37*
G36*
X171283Y557022D02*
X169076D01*
X166945Y556451D01*
X165033Y555347D01*
X163473Y553787D01*
X162369Y551875D01*
X161798Y549743D01*
Y547537D01*
X162369Y545405D01*
X163473Y543493D01*
X165033Y541933D01*
X166945Y540829D01*
X169076Y540258D01*
X171283D01*
X172547Y540597D01*
X196646Y516497D01*
Y374650D01*
X196951Y373114D01*
X197822Y371812D01*
X239732Y329902D01*
X241034Y329031D01*
X242570Y328726D01*
X284739D01*
X285393Y327593D01*
X286953Y326033D01*
X288865Y324929D01*
X290996Y324358D01*
X293204D01*
X295335Y324929D01*
X297247Y326033D01*
X298807Y327593D01*
X299911Y329505D01*
X300482Y331637D01*
Y333843D01*
X299911Y335975D01*
X298807Y337887D01*
X297247Y339447D01*
X295335Y340551D01*
X293204Y341122D01*
X290996D01*
X288865Y340551D01*
X286953Y339447D01*
X285393Y337887D01*
X284739Y336754D01*
X244233D01*
X204674Y376313D01*
Y518160D01*
X204369Y519696D01*
X203498Y520998D01*
X178223Y546273D01*
X178562Y547537D01*
Y549743D01*
X177991Y551875D01*
X176887Y553787D01*
X175327Y555347D01*
X173415Y556451D01*
X171283Y557022D01*
D02*
G37*
G36*
X145884Y343662D02*
X143677D01*
X141545Y343091D01*
X139633Y341987D01*
X138073Y340427D01*
X136969Y338515D01*
X136398Y336384D01*
Y334176D01*
X136969Y332045D01*
X138073Y330133D01*
X139633Y328573D01*
X141545Y327469D01*
X142468Y327222D01*
X142772Y325693D01*
X143643Y324391D01*
X214207Y253827D01*
X213868Y252563D01*
Y250357D01*
X214439Y248225D01*
X215543Y246313D01*
X217103Y244753D01*
X219015Y243649D01*
X221147Y243078D01*
X223354D01*
X225485Y243649D01*
X227397Y244753D01*
X228957Y246313D01*
X230061Y248225D01*
X230632Y250357D01*
Y252563D01*
X230061Y254695D01*
X228957Y256607D01*
X227397Y258167D01*
X225485Y259271D01*
X223354Y259842D01*
X221147D01*
X219883Y259503D01*
X150495Y328892D01*
Y329141D01*
X151487Y330133D01*
X152591Y332045D01*
X153162Y334176D01*
Y336384D01*
X152591Y338515D01*
X151487Y340427D01*
X149927Y341987D01*
X148015Y343091D01*
X145884Y343662D01*
D02*
G37*
G36*
X177633D02*
X175427D01*
X173295Y343091D01*
X171383Y341987D01*
X169823Y340427D01*
X168719Y338515D01*
X168148Y336384D01*
Y334176D01*
X168719Y332045D01*
X169823Y330133D01*
X171383Y328573D01*
X172516Y327919D01*
Y320040D01*
X172821Y318504D01*
X173692Y317202D01*
X239606Y251287D01*
X239268Y250023D01*
Y247817D01*
X239839Y245685D01*
X240943Y243773D01*
X242503Y242213D01*
X244415Y241109D01*
X246546Y240538D01*
X248754D01*
X250885Y241109D01*
X252797Y242213D01*
X254357Y243773D01*
X255461Y245685D01*
X256032Y247817D01*
Y250023D01*
X255461Y252155D01*
X254357Y254067D01*
X252797Y255627D01*
X250885Y256731D01*
X248754Y257302D01*
X246546D01*
X245283Y256964D01*
X180544Y321703D01*
Y327919D01*
X181677Y328573D01*
X183237Y330133D01*
X184341Y332045D01*
X184912Y334176D01*
Y336384D01*
X184341Y338515D01*
X183237Y340427D01*
X181677Y341987D01*
X179765Y343091D01*
X177633Y343662D01*
D02*
G37*
G36*
X79844Y332232D02*
X77636D01*
X75505Y331661D01*
X73593Y330557D01*
X72033Y328997D01*
X70929Y327085D01*
X70358Y324953D01*
Y322747D01*
X70929Y320615D01*
X72033Y318703D01*
X73593Y317143D01*
X75505Y316039D01*
X77636Y315468D01*
X79040D01*
X79806Y314702D01*
Y221991D01*
X78673Y221337D01*
X77113Y219777D01*
X76009Y217865D01*
X75438Y215734D01*
Y213526D01*
X76009Y211395D01*
X77113Y209483D01*
X78673Y207923D01*
X80585Y206819D01*
X82717Y206248D01*
X84923D01*
X87055Y206819D01*
X88967Y207923D01*
X90527Y209483D01*
X91631Y211395D01*
X92202Y213526D01*
Y215734D01*
X91631Y217865D01*
X90527Y219777D01*
X88967Y221337D01*
X87834Y221991D01*
Y316364D01*
X87529Y317901D01*
X86658Y319203D01*
X86073Y319788D01*
X86551Y320615D01*
X87122Y322747D01*
Y324953D01*
X86551Y327085D01*
X85447Y328997D01*
X83887Y330557D01*
X81975Y331661D01*
X79844Y332232D01*
D02*
G37*
G36*
X70399Y177422D02*
X67560D01*
X64818Y176688D01*
X62359Y175268D01*
X60352Y173261D01*
X58933Y170802D01*
X58198Y168060D01*
Y165221D01*
X58933Y162479D01*
X60352Y160020D01*
X62359Y158013D01*
X64818Y156593D01*
X67560Y155858D01*
X70399D01*
X73141Y156593D01*
X75600Y158013D01*
X77607Y160020D01*
X79027Y162479D01*
X79762Y165221D01*
Y168060D01*
X79027Y170802D01*
X77607Y173261D01*
X75600Y175268D01*
X73141Y176688D01*
X70399Y177422D01*
D02*
G37*
G36*
X108622Y239188D02*
X106770D01*
X104982Y238709D01*
X103378Y237783D01*
X102069Y236474D01*
X101143Y234870D01*
X100664Y233082D01*
Y231230D01*
X101143Y229442D01*
X102069Y227838D01*
X103378Y226529D01*
X104982Y225603D01*
X106770Y225124D01*
X108622D01*
X110410Y225603D01*
X112014Y226529D01*
X113323Y227838D01*
X113498Y228142D01*
X305180D01*
X305521Y226872D01*
X304733Y226417D01*
X303173Y224857D01*
X302519Y223724D01*
X172050D01*
X170514Y223419D01*
X169212Y222548D01*
X124085Y177422D01*
X108198D01*
Y155858D01*
X129762D01*
Y171745D01*
X173713Y215696D01*
X302519D01*
X303173Y214563D01*
X304733Y213003D01*
X306645Y211899D01*
X308776Y211328D01*
X310984D01*
X313115Y211899D01*
X315027Y213003D01*
X316587Y214563D01*
X317691Y216475D01*
X318262Y218606D01*
Y220814D01*
X317691Y222945D01*
X316587Y224857D01*
X315027Y226417D01*
X314239Y226872D01*
X314580Y228142D01*
X384581D01*
X465234Y147490D01*
X464638Y145268D01*
Y142692D01*
X465305Y140204D01*
X466593Y137974D01*
X467964Y136602D01*
X467438Y135332D01*
X411402D01*
X410876Y136602D01*
X412247Y137974D01*
X413535Y140204D01*
X414202Y142692D01*
Y145268D01*
X413535Y147756D01*
X412247Y149986D01*
X410426Y151807D01*
X408195Y153095D01*
X405708Y153762D01*
X403132D01*
X400644Y153095D01*
X398414Y151807D01*
X396592Y149986D01*
X395304Y147756D01*
X394638Y145268D01*
Y142692D01*
X395304Y140204D01*
X396592Y137974D01*
X397964Y136602D01*
X397438Y135332D01*
X341402D01*
X340876Y136602D01*
X342248Y137974D01*
X343535Y140204D01*
X344202Y142692D01*
Y145268D01*
X343535Y147756D01*
X342248Y149986D01*
X340426Y151807D01*
X338196Y153095D01*
X335708Y153762D01*
X333132D01*
X330644Y153095D01*
X328414Y151807D01*
X326592Y149986D01*
X325305Y147756D01*
X324638Y145268D01*
Y142692D01*
X325305Y140204D01*
X326592Y137974D01*
X327964Y136602D01*
X327438Y135332D01*
X323048D01*
X322873Y135636D01*
X321564Y136945D01*
X319960Y137871D01*
X318172Y138350D01*
X316320D01*
X314532Y137871D01*
X312928Y136945D01*
X311619Y135636D01*
X310693Y134032D01*
X310214Y132244D01*
Y130392D01*
X310693Y128604D01*
X311619Y127000D01*
X312928Y125691D01*
X314532Y124765D01*
X316320Y124286D01*
X318172D01*
X319960Y124765D01*
X321564Y125691D01*
X322873Y127000D01*
X323048Y127304D01*
X531758D01*
X533294Y127609D01*
X534597Y128480D01*
X540910Y134793D01*
X543132Y134198D01*
X545708D01*
X548196Y134865D01*
X550426Y136152D01*
X552248Y137974D01*
X553535Y140204D01*
X554202Y142692D01*
Y145268D01*
X553535Y147756D01*
X552248Y149986D01*
X550426Y151807D01*
X548196Y153095D01*
X545708Y153762D01*
X543132D01*
X540644Y153095D01*
X538414Y151807D01*
X536592Y149986D01*
X535305Y147756D01*
X534638Y145268D01*
Y142692D01*
X535233Y140470D01*
X530095Y135332D01*
X481402D01*
X480876Y136602D01*
X482248Y137974D01*
X483536Y140204D01*
X484202Y142692D01*
Y145268D01*
X483536Y147756D01*
X482248Y149986D01*
X480426Y151807D01*
X478196Y153095D01*
X475708Y153762D01*
X473132D01*
X470910Y153167D01*
X389082Y234994D01*
X387780Y235865D01*
X386244Y236170D01*
X113498D01*
X113323Y236474D01*
X112014Y237783D01*
X110410Y238709D01*
X108622Y239188D01*
D02*
G37*
G36*
X205574Y358902D02*
X203367D01*
X201235Y358331D01*
X199323Y357227D01*
X197763Y355667D01*
X196659Y353755D01*
X196088Y351623D01*
Y349417D01*
X196659Y347285D01*
X197763Y345373D01*
X199323Y343813D01*
X200456Y343159D01*
Y314960D01*
X200761Y313424D01*
X201632Y312122D01*
X257386Y256367D01*
X257048Y255103D01*
Y252896D01*
X257619Y250765D01*
X258723Y248853D01*
X260283Y247293D01*
X262195Y246189D01*
X264326Y245618D01*
X266534D01*
X268665Y246189D01*
X270577Y247293D01*
X272137Y248853D01*
X273241Y250765D01*
X273812Y252896D01*
Y255103D01*
X273552Y256076D01*
X274735Y256566D01*
X275043Y256032D01*
X276352Y254723D01*
X277956Y253797D01*
X279744Y253318D01*
X281596D01*
X283384Y253797D01*
X284988Y254723D01*
X286297Y256032D01*
X287223Y257636D01*
X287702Y259424D01*
Y261276D01*
X287611Y261614D01*
X293890Y267893D01*
X472750D01*
X641588Y99055D01*
Y86307D01*
X517240D01*
X516754Y87480D01*
X517247Y87974D01*
X518535Y90204D01*
X519202Y92692D01*
Y95268D01*
X518535Y97756D01*
X517247Y99986D01*
X515426Y101807D01*
X513196Y103095D01*
X510708Y103762D01*
X508132D01*
X505644Y103095D01*
X503414Y101807D01*
X501592Y99986D01*
X500304Y97756D01*
X499943Y96406D01*
X498628D01*
X498551Y96694D01*
X497625Y98298D01*
X496316Y99607D01*
X494712Y100533D01*
X492924Y101012D01*
X491072D01*
X489284Y100533D01*
X487680Y99607D01*
X486371Y98298D01*
X485445Y96694D01*
X484966Y94906D01*
Y93054D01*
X485445Y91266D01*
X486371Y89662D01*
X487680Y88353D01*
X489284Y87427D01*
X491072Y86948D01*
X492924D01*
X493262Y87039D01*
X500847Y79455D01*
X502149Y78584D01*
X503685Y78279D01*
X725241D01*
X726777Y78584D01*
X728080Y79455D01*
X751248Y102623D01*
X783550D01*
X784036Y101449D01*
X783542Y100956D01*
X782255Y98726D01*
X781588Y96238D01*
Y93662D01*
X782183Y91440D01*
X742255Y51512D01*
X514056D01*
X513881Y51816D01*
X512572Y53125D01*
X510968Y54051D01*
X509180Y54530D01*
X507328D01*
X505540Y54051D01*
X503936Y53125D01*
X502627Y51816D01*
X501701Y50212D01*
X501222Y48424D01*
Y46572D01*
X501701Y44784D01*
X502627Y43180D01*
X503936Y41871D01*
X505540Y40945D01*
X507328Y40466D01*
X509180D01*
X510968Y40945D01*
X512572Y41871D01*
X513881Y43180D01*
X514056Y43484D01*
X743918D01*
X745454Y43789D01*
X746757Y44660D01*
X787860Y85763D01*
X790082Y85168D01*
X792658D01*
X795146Y85834D01*
X797376Y87122D01*
X799198Y88944D01*
X800485Y91174D01*
X801152Y93662D01*
Y96238D01*
X800485Y98726D01*
X799198Y100956D01*
X798704Y101449D01*
X799190Y102623D01*
X848020D01*
X852183Y98460D01*
X851588Y96238D01*
Y93662D01*
X852254Y91174D01*
X853542Y88944D01*
X855364Y87122D01*
X857594Y85834D01*
X860082Y85168D01*
X862658D01*
X865146Y85834D01*
X867376Y87122D01*
X869197Y88944D01*
X870485Y91174D01*
X871152Y93662D01*
Y96238D01*
X870485Y98726D01*
X869197Y100956D01*
X867376Y102777D01*
X865146Y104065D01*
X862658Y104732D01*
X860082D01*
X857860Y104136D01*
X852521Y109475D01*
X851219Y110345D01*
X849683Y110651D01*
X749585D01*
X748049Y110345D01*
X746747Y109475D01*
X732326Y95054D01*
X731152Y95540D01*
Y96238D01*
X730486Y98726D01*
X729198Y100956D01*
X727376Y102777D01*
X725146Y104065D01*
X722658Y104732D01*
X720082D01*
X717594Y104065D01*
X715364Y102777D01*
X713543Y100956D01*
X712393Y98964D01*
X683953D01*
X452965Y329952D01*
X453056Y330290D01*
Y332142D01*
X452577Y333930D01*
X452035Y334869D01*
X452768Y336139D01*
X506032D01*
X685758Y156413D01*
X685272Y155240D01*
X685015D01*
X682398Y154539D01*
X680052Y153184D01*
X678136Y151268D01*
X676781Y148922D01*
X676398Y147490D01*
X686370D01*
Y144950D01*
X688910D01*
Y134978D01*
X690342Y135361D01*
X692688Y136716D01*
X694604Y138632D01*
X695959Y140978D01*
X696660Y143596D01*
Y143852D01*
X697833Y144338D01*
X700060Y142112D01*
X701362Y141242D01*
X702898Y140936D01*
X747392D01*
X748542Y138944D01*
X750363Y137123D01*
X752594Y135835D01*
X755082Y135168D01*
X757658D01*
X760145Y135835D01*
X762376Y137123D01*
X764197Y138944D01*
X765485Y141174D01*
X766152Y143662D01*
Y146238D01*
X765485Y148726D01*
X764197Y150956D01*
X762376Y152778D01*
X760145Y154066D01*
X757658Y154732D01*
X755082D01*
X752594Y154066D01*
X750363Y152778D01*
X748542Y150956D01*
X747392Y148964D01*
X704561D01*
X568837Y284688D01*
X569363Y285958D01*
X570520D01*
X572308Y286437D01*
X573912Y287363D01*
X575221Y288672D01*
X575396Y288976D01*
X816667D01*
X957183Y148460D01*
X956588Y146238D01*
Y143662D01*
X957254Y141174D01*
X958542Y138944D01*
X960364Y137123D01*
X962594Y135835D01*
X965082Y135168D01*
X967658D01*
X970146Y135835D01*
X972376Y137123D01*
X974197Y138944D01*
X975485Y141174D01*
X976152Y143662D01*
Y146238D01*
X975485Y148726D01*
X974197Y150956D01*
X972376Y152778D01*
X970146Y154066D01*
X967658Y154732D01*
X965082D01*
X962860Y154137D01*
X821169Y295828D01*
X819866Y296699D01*
X818330Y297004D01*
X575396D01*
X575221Y297308D01*
X573912Y298617D01*
X572308Y299543D01*
X570520Y300022D01*
X568668D01*
X566880Y299543D01*
X565276Y298617D01*
X563967Y297308D01*
X563041Y295704D01*
X562562Y293916D01*
Y292759D01*
X561292Y292233D01*
X510533Y342991D01*
X509231Y343862D01*
X507695Y344167D01*
X382063D01*
X380527Y343862D01*
X379225Y342991D01*
X363214Y326981D01*
X362876Y327072D01*
X361024D01*
X359236Y326593D01*
X357632Y325667D01*
X356323Y324358D01*
X355397Y322754D01*
X354918Y320966D01*
Y319114D01*
X355397Y317326D01*
X356323Y315722D01*
X357632Y314413D01*
X359236Y313487D01*
X361024Y313008D01*
X362876D01*
X364664Y313487D01*
X366268Y314413D01*
X367577Y315722D01*
X368503Y317326D01*
X368982Y319114D01*
Y320966D01*
X368891Y321304D01*
X383726Y336139D01*
X439280D01*
X440013Y334869D01*
X439471Y333930D01*
X438992Y332142D01*
Y330290D01*
X439471Y328502D01*
X440397Y326898D01*
X441706Y325589D01*
X443310Y324663D01*
X445098Y324184D01*
X446950D01*
X447288Y324275D01*
X679452Y92111D01*
X680754Y91241D01*
X682290Y90936D01*
X712393D01*
X713543Y88944D01*
X714909Y87577D01*
X714383Y86307D01*
X661152D01*
Y104732D01*
X647265D01*
X477251Y274745D01*
X475949Y275616D01*
X474413Y275921D01*
X292227D01*
X290691Y275616D01*
X289389Y274745D01*
X281934Y267291D01*
X281596Y267382D01*
X279744D01*
X277956Y266903D01*
X276352Y265977D01*
X275043Y264668D01*
X274117Y263064D01*
X273638Y261276D01*
Y259424D01*
X273806Y258796D01*
X272623Y258305D01*
X272137Y259147D01*
X270577Y260707D01*
X268665Y261811D01*
X266534Y262382D01*
X264326D01*
X263063Y262043D01*
X208484Y316623D01*
Y343159D01*
X209617Y343813D01*
X211177Y345373D01*
X212281Y347285D01*
X212852Y349417D01*
Y351623D01*
X212281Y353755D01*
X211177Y355667D01*
X209617Y357227D01*
X207705Y358331D01*
X205574Y358902D01*
D02*
G37*
G36*
X897658Y154732D02*
X895082D01*
X892594Y154066D01*
X890364Y152778D01*
X888542Y150956D01*
X887255Y148726D01*
X886588Y146238D01*
Y143662D01*
X887255Y141174D01*
X888542Y138944D01*
X890364Y137123D01*
X892594Y135835D01*
X895082Y135168D01*
X897658D01*
X900146Y135835D01*
X902376Y137123D01*
X904198Y138944D01*
X905485Y141174D01*
X906152Y143662D01*
Y146238D01*
X905485Y148726D01*
X904198Y150956D01*
X902376Y152778D01*
X900146Y154066D01*
X897658Y154732D01*
D02*
G37*
G36*
X827658D02*
X825082D01*
X822595Y154066D01*
X820364Y152778D01*
X818543Y150956D01*
X817255Y148726D01*
X816588Y146238D01*
Y143662D01*
X817255Y141174D01*
X818543Y138944D01*
X820364Y137123D01*
X822595Y135835D01*
X825082Y135168D01*
X827658D01*
X830146Y135835D01*
X832376Y137123D01*
X834198Y138944D01*
X835486Y141174D01*
X836152Y143662D01*
Y146238D01*
X835486Y148726D01*
X834198Y150956D01*
X832376Y152778D01*
X830146Y154066D01*
X827658Y154732D01*
D02*
G37*
G36*
X683830Y142410D02*
X676398D01*
X676781Y140978D01*
X678136Y138632D01*
X680052Y136716D01*
X682398Y135361D01*
X683830Y134978D01*
Y142410D01*
D02*
G37*
G36*
X265708Y153762D02*
X263132D01*
X260644Y153095D01*
X258414Y151807D01*
X256593Y149986D01*
X255305Y147756D01*
X254638Y145268D01*
Y142692D01*
X255305Y140204D01*
X256593Y137974D01*
X258414Y136152D01*
X260644Y134865D01*
X263132Y134198D01*
X265708D01*
X268196Y134865D01*
X270426Y136152D01*
X272248Y137974D01*
X273535Y140204D01*
X274202Y142692D01*
Y145268D01*
X273535Y147756D01*
X272248Y149986D01*
X270426Y151807D01*
X268196Y153095D01*
X265708Y153762D01*
D02*
G37*
G36*
X50465Y115422D02*
X47495D01*
X44625Y114653D01*
X42052Y113168D01*
X39952Y111067D01*
X38467Y108495D01*
X37698Y105625D01*
Y102655D01*
X38467Y99785D01*
X39952Y97213D01*
X42052Y95112D01*
X44625Y93627D01*
X47495Y92858D01*
X50465D01*
X53334Y93627D01*
X55907Y95112D01*
X58008Y97213D01*
X59493Y99785D01*
X60262Y102655D01*
Y105625D01*
X59493Y108495D01*
X58008Y111067D01*
X55907Y113168D01*
X53334Y114653D01*
X50465Y115422D01*
D02*
G37*
G36*
X932658Y104732D02*
X930082D01*
X927595Y104065D01*
X925364Y102777D01*
X923543Y100956D01*
X922255Y98726D01*
X921588Y96238D01*
Y93662D01*
X922255Y91174D01*
X923543Y88944D01*
X925364Y87122D01*
X927595Y85834D01*
X930082Y85168D01*
X932658D01*
X935146Y85834D01*
X937376Y87122D01*
X939198Y88944D01*
X940486Y91174D01*
X941152Y93662D01*
Y96238D01*
X940486Y98726D01*
X939198Y100956D01*
X937376Y102777D01*
X935146Y104065D01*
X932658Y104732D01*
D02*
G37*
G36*
X88435Y139874D02*
X86583D01*
X84795Y139395D01*
X83191Y138469D01*
X81882Y137160D01*
X80956Y135556D01*
X80477Y133768D01*
Y131916D01*
X80956Y130128D01*
X81882Y128524D01*
X83191Y127215D01*
X84795Y126289D01*
X86583Y125810D01*
X88435D01*
X88773Y125901D01*
X135220Y79455D01*
X136522Y78584D01*
X138058Y78279D01*
X427733D01*
X429269Y78584D01*
X430571Y79455D01*
X435910Y84793D01*
X438132Y84198D01*
X440708D01*
X443196Y84865D01*
X445426Y86152D01*
X447248Y87974D01*
X448535Y90204D01*
X449202Y92692D01*
Y95268D01*
X448535Y97756D01*
X447248Y99986D01*
X445426Y101807D01*
X443196Y103095D01*
X440708Y103762D01*
X438132D01*
X435644Y103095D01*
X433414Y101807D01*
X431592Y99986D01*
X430305Y97756D01*
X429638Y95268D01*
Y92692D01*
X430233Y90470D01*
X426070Y86307D01*
X377240D01*
X376754Y87480D01*
X377248Y87974D01*
X378535Y90204D01*
X379202Y92692D01*
Y95268D01*
X378535Y97756D01*
X377248Y99986D01*
X375426Y101807D01*
X373196Y103095D01*
X370708Y103762D01*
X368132D01*
X365644Y103095D01*
X363414Y101807D01*
X361593Y99986D01*
X360305Y97756D01*
X359638Y95268D01*
Y92692D01*
X360305Y90204D01*
X361593Y87974D01*
X362086Y87480D01*
X361600Y86307D01*
X307240D01*
X306754Y87480D01*
X307247Y87974D01*
X308535Y90204D01*
X309202Y92692D01*
Y95268D01*
X308535Y97756D01*
X307247Y99986D01*
X305426Y101807D01*
X303195Y103095D01*
X300708Y103762D01*
X298132D01*
X295644Y103095D01*
X293414Y101807D01*
X291592Y99986D01*
X290304Y97756D01*
X289638Y95268D01*
Y92692D01*
X290304Y90204D01*
X291592Y87974D01*
X292085Y87480D01*
X291599Y86307D01*
X239202D01*
Y103762D01*
X219638D01*
Y86307D01*
X139721D01*
X132832Y93196D01*
X133612Y94212D01*
X134626Y93627D01*
X137495Y92858D01*
X140465D01*
X143335Y93627D01*
X145907Y95112D01*
X148008Y97213D01*
X149493Y99785D01*
X150262Y102655D01*
Y105625D01*
X149493Y108495D01*
X148008Y111067D01*
X145907Y113168D01*
X143335Y114653D01*
X140465Y115422D01*
X137495D01*
X134626Y114653D01*
X132053Y113168D01*
X129952Y111067D01*
X128467Y108495D01*
X127698Y105625D01*
Y102655D01*
X128467Y99785D01*
X129052Y98772D01*
X128036Y97992D01*
X94450Y131578D01*
X94541Y131916D01*
Y133768D01*
X94062Y135556D01*
X93136Y137160D01*
X91827Y138469D01*
X90223Y139395D01*
X88435Y139874D01*
D02*
G37*
G36*
X120400Y52422D02*
X117561D01*
X114818Y51687D01*
X112360Y50268D01*
X110352Y48261D01*
X108933Y45802D01*
X108198Y43060D01*
Y40221D01*
X108933Y37479D01*
X110352Y35020D01*
X112360Y33012D01*
X114818Y31593D01*
X117561Y30858D01*
X120400D01*
X123142Y31593D01*
X125601Y33012D01*
X127608Y35020D01*
X129027Y37479D01*
X129762Y40221D01*
Y43060D01*
X129027Y45802D01*
X127608Y48261D01*
X125601Y50268D01*
X123142Y51687D01*
X120400Y52422D01*
D02*
G37*
G36*
X70399D02*
X67560D01*
X64818Y51687D01*
X62359Y50268D01*
X60352Y48261D01*
X58933Y45802D01*
X58198Y43060D01*
Y40221D01*
X58933Y37479D01*
X60352Y35020D01*
X62359Y33012D01*
X64818Y31593D01*
X67560Y30858D01*
X70399D01*
X73141Y31593D01*
X75600Y33012D01*
X77607Y35020D01*
X79027Y37479D01*
X79762Y40221D01*
Y43060D01*
X79027Y45802D01*
X77607Y48261D01*
X75600Y50268D01*
X73141Y51687D01*
X70399Y52422D01*
D02*
G37*
%LPD*%
D22*
X544420Y143980D02*
D03*
X474420D02*
D03*
X404420D02*
D03*
X334420D02*
D03*
X264420D02*
D03*
X509420Y93980D02*
D03*
X439420D02*
D03*
X369420D02*
D03*
X299420D02*
D03*
X966370Y144950D02*
D03*
X896370D02*
D03*
X826370D02*
D03*
X756370D02*
D03*
X686370D02*
D03*
X931370Y94950D02*
D03*
X861370D02*
D03*
X791370D02*
D03*
X721370D02*
D03*
X233530Y624840D02*
D03*
X303530D02*
D03*
X373530D02*
D03*
X443530D02*
D03*
X513530D02*
D03*
X268530Y674840D02*
D03*
X338530D02*
D03*
X408530D02*
D03*
X478530D02*
D03*
X647960Y624370D02*
D03*
X717960D02*
D03*
X787960D02*
D03*
X857960D02*
D03*
X927960D02*
D03*
X682960Y674370D02*
D03*
X752960D02*
D03*
X822960D02*
D03*
X892960D02*
D03*
X48980Y104140D02*
D03*
X138980D02*
D03*
X44620Y662940D02*
D03*
X134620D02*
D03*
D23*
X229420Y93980D02*
D03*
X651370Y94950D02*
D03*
X548530Y674840D02*
D03*
X962960Y674370D02*
D03*
D30*
X242570Y332740D02*
X292100D01*
X200660Y374650D02*
X242570Y332740D01*
X200660Y374650D02*
Y518160D01*
X170180Y548640D02*
X200660Y518160D01*
X217170Y455880D02*
X327242Y565952D01*
X228600Y459048D02*
X321048Y551496D01*
X267970Y440690D02*
X269154Y441874D01*
Y450703D02*
X364105Y545654D01*
X269154Y441874D02*
Y450703D01*
X228600Y444500D02*
Y459048D01*
X321048Y551496D02*
X575086D01*
X217170Y391160D02*
Y455880D01*
X327242Y565952D02*
X444482D01*
X146481Y327229D02*
X222250Y251460D01*
X107696Y232156D02*
X386244D01*
X172050Y219710D02*
X309880D01*
X118980Y166640D02*
X172050Y219710D01*
X87509Y132842D02*
X138058Y82293D01*
X292227Y271907D02*
X474413D01*
X280670Y260350D02*
X292227Y271907D01*
X474413D02*
X651370Y94950D01*
X114300Y600760D02*
Y726440D01*
Y600760D02*
X114620Y600440D01*
X114300Y726440D02*
X114620Y726120D01*
Y725440D02*
Y726120D01*
X444482Y565952D02*
X501843Y623313D01*
X73660Y532130D02*
X153402Y611872D01*
X501843Y641618D02*
X535065Y674840D01*
X548530D01*
X82550Y514350D02*
X91440D01*
X153402Y611872D02*
X290562D01*
X303530Y624840D01*
X501843Y623313D02*
Y641618D01*
X183120Y606030D02*
X476298D01*
X478530Y608262D02*
Y674840D01*
X476298Y606030D02*
X478530Y608262D01*
X91440Y514350D02*
X183120Y606030D01*
X427020Y641350D02*
X443530Y624840D01*
X295530Y641350D02*
X427020D01*
X146481Y327229D02*
Y333579D01*
X364105Y545654D02*
X585772D01*
X682960Y642842D02*
Y674370D01*
X311150Y447040D02*
X312825D01*
X314222Y445643D02*
X425146D01*
X448260Y468757D02*
X562347D01*
X425146Y445643D02*
X448260Y468757D01*
X317246Y131318D02*
X531758D01*
X176530Y320040D02*
X247650Y248920D01*
X176530Y320040D02*
Y335280D01*
X138058Y82293D02*
X427733D01*
X144780Y335280D02*
X146481Y333579D01*
X204470Y314960D02*
X265430Y254000D01*
X204470Y314960D02*
Y350520D01*
X562347Y468757D02*
X717960Y624370D01*
X312825Y447040D02*
X314222Y445643D01*
X572101Y448183D02*
X759975Y636057D01*
X471170Y455930D02*
X478917Y448183D01*
X572101D01*
X854647Y636057D02*
X892960Y674370D01*
X759975Y636057D02*
X854647D01*
X382063Y340153D02*
X507695D01*
X690640Y527050D02*
X787960Y624370D01*
X673100Y527050D02*
X690640D01*
X591412Y514350D02*
X751432Y674370D01*
X752960D01*
X78740Y321444D02*
Y323850D01*
Y321444D02*
X83820Y316364D01*
Y214630D02*
Y316364D01*
X702898Y144950D02*
X756370D01*
X361950Y320040D02*
X382063Y340153D01*
X507695D02*
X702898Y144950D01*
X818330Y292990D02*
X966370Y144950D01*
X569594Y292990D02*
X818330D01*
X531758Y131318D02*
X544420Y143980D01*
X585772Y545654D02*
X682960Y642842D01*
X575086Y551496D02*
X647960Y624370D01*
X345440Y514350D02*
X591412D01*
X427733Y82293D02*
X439420Y93980D01*
X682290Y94950D02*
X721370D01*
X446024Y331216D02*
X682290Y94950D01*
X386244Y232156D02*
X474420Y143980D01*
X743918Y47498D02*
X791370Y94950D01*
X508254Y47498D02*
X743918D01*
X725241Y82293D02*
X749585Y106637D01*
X503685Y82293D02*
X725241D01*
X491998Y93980D02*
X503685Y82293D01*
X749585Y106637D02*
X849683D01*
X861370Y94950D01*
D31*
X68980Y41640D02*
D03*
Y166640D02*
D03*
X118980Y41640D02*
D03*
X64620Y600440D02*
D03*
Y725440D02*
D03*
X114620Y600440D02*
D03*
D32*
X118980Y166640D02*
D03*
X114620Y725440D02*
D03*
D33*
X267970Y440690D02*
D03*
X228600Y444500D02*
D03*
X217170Y391160D02*
D03*
X280670Y260350D02*
D03*
X295530Y641350D02*
D03*
X73660Y532130D02*
D03*
X317246Y131318D02*
D03*
X361950Y320040D02*
D03*
X82550Y514350D02*
D03*
X471170Y455930D02*
D03*
X673100Y527050D02*
D03*
X345440Y514350D02*
D03*
X311150Y447040D02*
D03*
X569594Y292990D02*
D03*
X87509Y132842D02*
D03*
X446024Y331216D02*
D03*
X107696Y232156D02*
D03*
X508254Y47498D02*
D03*
X491998Y93980D02*
D03*
D34*
X292100Y332740D02*
D03*
X170180Y548640D02*
D03*
X242570Y458470D02*
D03*
X247650Y248920D02*
D03*
X176530Y335280D02*
D03*
X222250Y251460D02*
D03*
X144780Y335280D02*
D03*
X309880Y219710D02*
D03*
X204470Y350520D02*
D03*
X265430Y254000D02*
D03*
X243840Y320040D02*
D03*
X496570Y458470D02*
D03*
X372110Y455930D02*
D03*
X523240Y391160D02*
D03*
X496570Y323850D02*
D03*
X370840Y261620D02*
D03*
X101600Y323850D02*
D03*
X115570Y452120D02*
D03*
X83820Y214630D02*
D03*
X78740Y323850D02*
D03*
M02*
