G04*
G04 #@! TF.GenerationSoftware,Altium Limited,Altium Designer,24.1.2 (44)*
G04*
G04 Layer_Physical_Order=1*
G04 Layer_Color=6502151*
%FSLAX44Y44*%
%MOMM*%
G71*
G04*
G04 #@! TF.SameCoordinates,7576D355-30E4-4C7B-8782-25CA61036F80*
G04*
G04*
G04 #@! TF.FilePolarity,Positive*
G04*
G01*
G75*
G04:AMPARAMS|DCode=14|XSize=1.5mm|YSize=1.5mm|CornerRadius=0.3mm|HoleSize=0mm|Usage=FLASHONLY|Rotation=90.000|XOffset=0mm|YOffset=0mm|HoleType=Round|Shape=RoundedRectangle|*
%AMROUNDEDRECTD14*
21,1,1.5000,0.9000,0,0,90.0*
21,1,0.9000,1.5000,0,0,90.0*
1,1,0.6000,0.4500,0.4500*
1,1,0.6000,0.4500,-0.4500*
1,1,0.6000,-0.4500,-0.4500*
1,1,0.6000,-0.4500,0.4500*
%
%ADD14ROUNDEDRECTD14*%
%ADD15O,1.8000X1.1000*%
%ADD16O,1.4500X1.0500*%
%ADD17R,1.8000X1.2500*%
%ADD22C,1.5500*%
%ADD23R,1.5500X1.5500*%
%ADD29R,1.0000X1.0000*%
%ADD30C,0.3810*%
%ADD31C,1.7500*%
%ADD32R,1.7500X1.7500*%
%ADD33C,1.0000*%
%ADD34C,1.2700*%
G36*
X555370Y478790D02*
X555360Y478370D01*
X555330Y477950D01*
X555270Y477540D01*
X555200Y477130D01*
X555100Y476720D01*
X554980Y476320D01*
X554840Y475920D01*
X554680Y475540D01*
X554500Y475160D01*
X554300Y474790D01*
X554080Y474430D01*
X553840Y474090D01*
X553590Y473760D01*
X553320Y473440D01*
X553030Y473130D01*
X552720Y472840D01*
X552400Y472570D01*
X552070Y472320D01*
X551730Y472080D01*
X551370Y471860D01*
X551000Y471660D01*
X550620Y471480D01*
X550240Y471320D01*
X549840Y471180D01*
X549440Y471060D01*
X549030Y470960D01*
X548620Y470890D01*
X548210Y470830D01*
X547790Y470800D01*
X547370Y470790D01*
X546950Y470800D01*
X546530Y470830D01*
X546120Y470890D01*
X545710Y470960D01*
X545300Y471060D01*
X544900Y471180D01*
X544500Y471320D01*
X544120Y471480D01*
X543740Y471660D01*
X543370Y471860D01*
X543010Y472080D01*
X542670Y472320D01*
X542340Y472570D01*
X542020Y472840D01*
X541710Y473130D01*
X541420Y473440D01*
X541150Y473760D01*
X540900Y474090D01*
X540660Y474430D01*
X540440Y474790D01*
X540240Y475160D01*
X540060Y475540D01*
X539900Y475920D01*
X539760Y476320D01*
X539640Y476720D01*
X539540Y477130D01*
X539470Y477540D01*
X539410Y477950D01*
X539380Y478370D01*
X539370Y478790D01*
Y502790D01*
X555370D01*
Y478790D01*
D02*
G37*
G36*
X529970D02*
X529960Y478370D01*
X529930Y477950D01*
X529870Y477540D01*
X529800Y477130D01*
X529700Y476720D01*
X529580Y476320D01*
X529440Y475920D01*
X529280Y475540D01*
X529100Y475160D01*
X528900Y474790D01*
X528680Y474430D01*
X528440Y474090D01*
X528190Y473760D01*
X527920Y473440D01*
X527630Y473130D01*
X527320Y472840D01*
X527000Y472570D01*
X526670Y472320D01*
X526330Y472080D01*
X525970Y471860D01*
X525600Y471660D01*
X525220Y471480D01*
X524840Y471320D01*
X524440Y471180D01*
X524040Y471060D01*
X523630Y470960D01*
X523220Y470890D01*
X522810Y470830D01*
X522390Y470800D01*
X521970Y470790D01*
X521550Y470800D01*
X521130Y470830D01*
X520720Y470890D01*
X520310Y470960D01*
X519900Y471060D01*
X519500Y471180D01*
X519100Y471320D01*
X518720Y471480D01*
X518340Y471660D01*
X517970Y471860D01*
X517610Y472080D01*
X517270Y472320D01*
X516940Y472570D01*
X516620Y472840D01*
X516310Y473130D01*
X516020Y473440D01*
X515750Y473760D01*
X515500Y474090D01*
X515260Y474430D01*
X515040Y474790D01*
X514840Y475160D01*
X514660Y475540D01*
X514500Y475920D01*
X514360Y476320D01*
X514240Y476720D01*
X514140Y477130D01*
X514070Y477540D01*
X514010Y477950D01*
X513980Y478370D01*
X513970Y478790D01*
Y502790D01*
X529970D01*
Y478790D01*
D02*
G37*
G36*
X504570Y472690D02*
X504560Y472580D01*
X504550Y472480D01*
X504530Y472370D01*
X504500Y472270D01*
X504470Y472170D01*
X504440Y472070D01*
X504400Y471980D01*
X504350Y471880D01*
X504300Y471790D01*
X504250Y471700D01*
X504190Y471610D01*
X504120Y471530D01*
X504060Y471450D01*
X503980Y471380D01*
X503910Y471300D01*
X503830Y471240D01*
X503750Y471170D01*
X503660Y471110D01*
X503570Y471060D01*
X503480Y471010D01*
X503380Y470960D01*
X503290Y470920D01*
X503190Y470890D01*
X503090Y470860D01*
X502990Y470830D01*
X502880Y470810D01*
X502780Y470800D01*
X502670Y470790D01*
X490470D01*
X490360Y470800D01*
X490260Y470810D01*
X490150Y470830D01*
X490050Y470860D01*
X489950Y470890D01*
X489850Y470920D01*
X489760Y470960D01*
X489660Y471010D01*
X489570Y471060D01*
X489480Y471110D01*
X489390Y471170D01*
X489310Y471240D01*
X489230Y471300D01*
X489160Y471380D01*
X489080Y471450D01*
X489020Y471530D01*
X488950Y471610D01*
X488890Y471700D01*
X488840Y471790D01*
X488790Y471880D01*
X488740Y471980D01*
X488700Y472070D01*
X488670Y472170D01*
X488640Y472270D01*
X488610Y472370D01*
X488590Y472480D01*
X488580Y472580D01*
X488570Y472690D01*
Y502790D01*
X504570D01*
Y472690D01*
D02*
G37*
G36*
X479170Y478790D02*
X479160Y478370D01*
X479130Y477950D01*
X479070Y477540D01*
X479000Y477130D01*
X478900Y476720D01*
X478780Y476320D01*
X478640Y475920D01*
X478480Y475540D01*
X478300Y475160D01*
X478100Y474790D01*
X477880Y474430D01*
X477640Y474090D01*
X477390Y473760D01*
X477120Y473440D01*
X476830Y473130D01*
X476520Y472840D01*
X476200Y472570D01*
X475870Y472320D01*
X475530Y472080D01*
X475170Y471860D01*
X474800Y471660D01*
X474420Y471480D01*
X474040Y471320D01*
X473640Y471180D01*
X473240Y471060D01*
X472830Y470960D01*
X472420Y470890D01*
X472010Y470830D01*
X471590Y470800D01*
X471170Y470790D01*
X470750Y470800D01*
X470330Y470830D01*
X469920Y470890D01*
X469510Y470960D01*
X469100Y471060D01*
X468700Y471180D01*
X468300Y471320D01*
X467920Y471480D01*
X467540Y471660D01*
X467170Y471860D01*
X466810Y472080D01*
X466470Y472320D01*
X466140Y472570D01*
X465820Y472840D01*
X465510Y473130D01*
X465220Y473440D01*
X464950Y473760D01*
X464700Y474090D01*
X464460Y474430D01*
X464240Y474790D01*
X464040Y475160D01*
X463860Y475540D01*
X463700Y475920D01*
X463560Y476320D01*
X463440Y476720D01*
X463340Y477130D01*
X463270Y477540D01*
X463210Y477950D01*
X463180Y478370D01*
X463170Y478790D01*
Y502790D01*
X479170D01*
Y478790D01*
D02*
G37*
G36*
X453770D02*
X453760Y478370D01*
X453730Y477950D01*
X453670Y477540D01*
X453600Y477130D01*
X453500Y476720D01*
X453380Y476320D01*
X453240Y475920D01*
X453080Y475540D01*
X452900Y475160D01*
X452700Y474790D01*
X452480Y474430D01*
X452240Y474090D01*
X451990Y473760D01*
X451720Y473440D01*
X451430Y473130D01*
X451120Y472840D01*
X450800Y472570D01*
X450470Y472320D01*
X450130Y472080D01*
X449770Y471860D01*
X449400Y471660D01*
X449020Y471480D01*
X448640Y471320D01*
X448240Y471180D01*
X447840Y471060D01*
X447430Y470960D01*
X447020Y470890D01*
X446610Y470830D01*
X446190Y470800D01*
X445770Y470790D01*
X445350Y470800D01*
X444930Y470830D01*
X444520Y470890D01*
X444110Y470960D01*
X443700Y471060D01*
X443300Y471180D01*
X442900Y471320D01*
X442520Y471480D01*
X442140Y471660D01*
X441770Y471860D01*
X441410Y472080D01*
X441070Y472320D01*
X440740Y472570D01*
X440420Y472840D01*
X440110Y473130D01*
X439820Y473440D01*
X439550Y473760D01*
X439300Y474090D01*
X439060Y474430D01*
X438840Y474790D01*
X438640Y475160D01*
X438460Y475540D01*
X438300Y475920D01*
X438160Y476320D01*
X438040Y476720D01*
X437940Y477130D01*
X437870Y477540D01*
X437810Y477950D01*
X437780Y478370D01*
X437770Y478790D01*
Y502790D01*
X453770D01*
Y478790D01*
D02*
G37*
G36*
X428370D02*
X428360Y478370D01*
X428330Y477950D01*
X428270Y477540D01*
X428200Y477130D01*
X428100Y476720D01*
X427980Y476320D01*
X427840Y475920D01*
X427680Y475540D01*
X427500Y475160D01*
X427300Y474790D01*
X427080Y474430D01*
X426840Y474090D01*
X426590Y473760D01*
X426320Y473440D01*
X426030Y473130D01*
X425720Y472840D01*
X425400Y472570D01*
X425070Y472320D01*
X424730Y472080D01*
X424370Y471860D01*
X424000Y471660D01*
X423620Y471480D01*
X423240Y471320D01*
X422840Y471180D01*
X422440Y471060D01*
X422030Y470960D01*
X421620Y470890D01*
X421210Y470830D01*
X420790Y470800D01*
X420370Y470790D01*
X419950Y470800D01*
X419530Y470830D01*
X419120Y470890D01*
X418710Y470960D01*
X418300Y471060D01*
X417900Y471180D01*
X417500Y471320D01*
X417120Y471480D01*
X416740Y471660D01*
X416370Y471860D01*
X416010Y472080D01*
X415670Y472320D01*
X415340Y472570D01*
X415020Y472840D01*
X414710Y473130D01*
X414420Y473440D01*
X414150Y473760D01*
X413900Y474090D01*
X413660Y474430D01*
X413440Y474790D01*
X413240Y475160D01*
X413060Y475540D01*
X412900Y475920D01*
X412760Y476320D01*
X412640Y476720D01*
X412540Y477130D01*
X412470Y477540D01*
X412410Y477950D01*
X412380Y478370D01*
X412370Y478790D01*
Y502790D01*
X428370D01*
Y478790D01*
D02*
G37*
G36*
X402970D02*
X402960Y478370D01*
X402930Y477950D01*
X402870Y477540D01*
X402800Y477130D01*
X402700Y476720D01*
X402580Y476320D01*
X402440Y475920D01*
X402280Y475540D01*
X402100Y475160D01*
X401900Y474790D01*
X401680Y474430D01*
X401440Y474090D01*
X401190Y473760D01*
X400920Y473440D01*
X400630Y473130D01*
X400320Y472840D01*
X400000Y472570D01*
X399670Y472320D01*
X399330Y472080D01*
X398970Y471860D01*
X398600Y471660D01*
X398220Y471480D01*
X397840Y471320D01*
X397440Y471180D01*
X397040Y471060D01*
X396630Y470960D01*
X396220Y470890D01*
X395810Y470830D01*
X395390Y470800D01*
X394970Y470790D01*
X394550Y470800D01*
X394130Y470830D01*
X393720Y470890D01*
X393310Y470960D01*
X392900Y471060D01*
X392500Y471180D01*
X392100Y471320D01*
X391720Y471480D01*
X391340Y471660D01*
X390970Y471860D01*
X390610Y472080D01*
X390270Y472320D01*
X389940Y472570D01*
X389620Y472840D01*
X389310Y473130D01*
X389020Y473440D01*
X388750Y473760D01*
X388500Y474090D01*
X388260Y474430D01*
X388040Y474790D01*
X387840Y475160D01*
X387660Y475540D01*
X387500Y475920D01*
X387360Y476320D01*
X387240Y476720D01*
X387140Y477130D01*
X387070Y477540D01*
X387010Y477950D01*
X386980Y478370D01*
X386970Y478790D01*
Y502790D01*
X402970D01*
Y478790D01*
D02*
G37*
G36*
X377570Y472690D02*
X377560Y472580D01*
X377550Y472480D01*
X377530Y472370D01*
X377500Y472270D01*
X377470Y472170D01*
X377440Y472070D01*
X377400Y471980D01*
X377350Y471880D01*
X377300Y471790D01*
X377250Y471700D01*
X377190Y471610D01*
X377120Y471530D01*
X377060Y471450D01*
X376980Y471380D01*
X376910Y471300D01*
X376830Y471240D01*
X376750Y471170D01*
X376660Y471110D01*
X376570Y471060D01*
X376480Y471010D01*
X376380Y470960D01*
X376290Y470920D01*
X376190Y470890D01*
X376090Y470860D01*
X375990Y470830D01*
X375880Y470810D01*
X375780Y470800D01*
X375670Y470790D01*
X363470D01*
X363360Y470800D01*
X363260Y470810D01*
X363150Y470830D01*
X363050Y470860D01*
X362950Y470890D01*
X362850Y470920D01*
X362760Y470960D01*
X362660Y471010D01*
X362570Y471060D01*
X362480Y471110D01*
X362390Y471170D01*
X362310Y471240D01*
X362230Y471300D01*
X362160Y471380D01*
X362080Y471450D01*
X362020Y471530D01*
X361950Y471610D01*
X361890Y471700D01*
X361840Y471790D01*
X361790Y471880D01*
X361740Y471980D01*
X361700Y472070D01*
X361670Y472170D01*
X361640Y472270D01*
X361610Y472370D01*
X361590Y472480D01*
X361580Y472580D01*
X361570Y472690D01*
Y502790D01*
X377570D01*
Y472690D01*
D02*
G37*
G36*
X352170Y478790D02*
X352160Y478370D01*
X352130Y477950D01*
X352070Y477540D01*
X352000Y477130D01*
X351900Y476720D01*
X351780Y476320D01*
X351640Y475920D01*
X351480Y475540D01*
X351300Y475160D01*
X351100Y474790D01*
X350880Y474430D01*
X350640Y474090D01*
X350390Y473760D01*
X350120Y473440D01*
X349830Y473130D01*
X349520Y472840D01*
X349200Y472570D01*
X348870Y472320D01*
X348530Y472080D01*
X348170Y471860D01*
X347800Y471660D01*
X347420Y471480D01*
X347040Y471320D01*
X346640Y471180D01*
X346240Y471060D01*
X345830Y470960D01*
X345420Y470890D01*
X345010Y470830D01*
X344590Y470800D01*
X344170Y470790D01*
X343750Y470800D01*
X343330Y470830D01*
X342920Y470890D01*
X342510Y470960D01*
X342100Y471060D01*
X341700Y471180D01*
X341300Y471320D01*
X340920Y471480D01*
X340540Y471660D01*
X340170Y471860D01*
X339810Y472080D01*
X339470Y472320D01*
X339140Y472570D01*
X338820Y472840D01*
X338510Y473130D01*
X338220Y473440D01*
X337950Y473760D01*
X337700Y474090D01*
X337460Y474430D01*
X337240Y474790D01*
X337040Y475160D01*
X336860Y475540D01*
X336700Y475920D01*
X336560Y476320D01*
X336440Y476720D01*
X336340Y477130D01*
X336270Y477540D01*
X336210Y477950D01*
X336180Y478370D01*
X336170Y478790D01*
Y502790D01*
X352170D01*
Y478790D01*
D02*
G37*
G36*
X326770D02*
X326760Y478370D01*
X326730Y477950D01*
X326670Y477540D01*
X326600Y477130D01*
X326500Y476720D01*
X326380Y476320D01*
X326240Y475920D01*
X326080Y475540D01*
X325900Y475160D01*
X325700Y474790D01*
X325480Y474430D01*
X325240Y474090D01*
X324990Y473760D01*
X324720Y473440D01*
X324430Y473130D01*
X324120Y472840D01*
X323800Y472570D01*
X323470Y472320D01*
X323130Y472080D01*
X322770Y471860D01*
X322400Y471660D01*
X322020Y471480D01*
X321640Y471320D01*
X321240Y471180D01*
X320840Y471060D01*
X320430Y470960D01*
X320020Y470890D01*
X319610Y470830D01*
X319190Y470800D01*
X318770Y470790D01*
X318350Y470800D01*
X317930Y470830D01*
X317520Y470890D01*
X317110Y470960D01*
X316700Y471060D01*
X316300Y471180D01*
X315900Y471320D01*
X315520Y471480D01*
X315140Y471660D01*
X314770Y471860D01*
X314410Y472080D01*
X314070Y472320D01*
X313740Y472570D01*
X313420Y472840D01*
X313110Y473130D01*
X312820Y473440D01*
X312550Y473760D01*
X312300Y474090D01*
X312060Y474430D01*
X311840Y474790D01*
X311640Y475160D01*
X311460Y475540D01*
X311300Y475920D01*
X311160Y476320D01*
X311040Y476720D01*
X310940Y477130D01*
X310870Y477540D01*
X310810Y477950D01*
X310780Y478370D01*
X310770Y478790D01*
Y502790D01*
X326770D01*
Y478790D01*
D02*
G37*
G36*
X301370D02*
X301360Y478370D01*
X301330Y477950D01*
X301270Y477540D01*
X301200Y477130D01*
X301100Y476720D01*
X300980Y476320D01*
X300840Y475920D01*
X300680Y475540D01*
X300500Y475160D01*
X300300Y474790D01*
X300080Y474430D01*
X299840Y474090D01*
X299590Y473760D01*
X299320Y473440D01*
X299030Y473130D01*
X298720Y472840D01*
X298400Y472570D01*
X298070Y472320D01*
X297730Y472080D01*
X297370Y471860D01*
X297000Y471660D01*
X296620Y471480D01*
X296240Y471320D01*
X295840Y471180D01*
X295440Y471060D01*
X295030Y470960D01*
X294620Y470890D01*
X294210Y470830D01*
X293790Y470800D01*
X293370Y470790D01*
X292950Y470800D01*
X292530Y470830D01*
X292120Y470890D01*
X291710Y470960D01*
X291300Y471060D01*
X290900Y471180D01*
X290500Y471320D01*
X290120Y471480D01*
X289740Y471660D01*
X289370Y471860D01*
X289010Y472080D01*
X288670Y472320D01*
X288340Y472570D01*
X288020Y472840D01*
X287710Y473130D01*
X287420Y473440D01*
X287150Y473760D01*
X286900Y474090D01*
X286660Y474430D01*
X286440Y474790D01*
X286240Y475160D01*
X286060Y475540D01*
X285900Y475920D01*
X285760Y476320D01*
X285640Y476720D01*
X285540Y477130D01*
X285470Y477540D01*
X285410Y477950D01*
X285380Y478370D01*
X285370Y478790D01*
Y502790D01*
X301370D01*
Y478790D01*
D02*
G37*
G36*
X275970D02*
X275960Y478370D01*
X275930Y477950D01*
X275870Y477540D01*
X275800Y477130D01*
X275700Y476720D01*
X275580Y476320D01*
X275440Y475920D01*
X275280Y475540D01*
X275100Y475160D01*
X274900Y474790D01*
X274680Y474430D01*
X274440Y474090D01*
X274190Y473760D01*
X273920Y473440D01*
X273630Y473130D01*
X273320Y472840D01*
X273000Y472570D01*
X272670Y472320D01*
X272330Y472080D01*
X271970Y471860D01*
X271600Y471660D01*
X271220Y471480D01*
X270840Y471320D01*
X270440Y471180D01*
X270040Y471060D01*
X269630Y470960D01*
X269220Y470890D01*
X268810Y470830D01*
X268390Y470800D01*
X267970Y470790D01*
X267550Y470800D01*
X267130Y470830D01*
X266720Y470890D01*
X266310Y470960D01*
X265900Y471060D01*
X265500Y471180D01*
X265100Y471320D01*
X264720Y471480D01*
X264340Y471660D01*
X263970Y471860D01*
X263610Y472080D01*
X263270Y472320D01*
X262940Y472570D01*
X262620Y472840D01*
X262310Y473130D01*
X262020Y473440D01*
X261750Y473760D01*
X261500Y474090D01*
X261260Y474430D01*
X261040Y474790D01*
X260840Y475160D01*
X260660Y475540D01*
X260500Y475920D01*
X260360Y476320D01*
X260240Y476720D01*
X260140Y477130D01*
X260070Y477540D01*
X260010Y477950D01*
X259980Y478370D01*
X259970Y478790D01*
Y502790D01*
X275970D01*
Y478790D01*
D02*
G37*
G36*
X250570Y472690D02*
X250560Y472580D01*
X250550Y472480D01*
X250530Y472370D01*
X250500Y472270D01*
X250470Y472170D01*
X250440Y472070D01*
X250400Y471980D01*
X250350Y471880D01*
X250300Y471790D01*
X250250Y471700D01*
X250190Y471610D01*
X250120Y471530D01*
X250060Y471450D01*
X249980Y471380D01*
X249910Y471300D01*
X249830Y471240D01*
X249750Y471170D01*
X249660Y471110D01*
X249570Y471060D01*
X249480Y471010D01*
X249380Y470960D01*
X249290Y470920D01*
X249190Y470890D01*
X249090Y470860D01*
X248990Y470830D01*
X248880Y470810D01*
X248780Y470800D01*
X248670Y470790D01*
X236470D01*
X236360Y470800D01*
X236260Y470810D01*
X236150Y470830D01*
X236050Y470860D01*
X235950Y470890D01*
X235850Y470920D01*
X235760Y470960D01*
X235660Y471010D01*
X235570Y471060D01*
X235480Y471110D01*
X235390Y471170D01*
X235310Y471240D01*
X235230Y471300D01*
X235160Y471380D01*
X235080Y471450D01*
X235020Y471530D01*
X234950Y471610D01*
X234890Y471700D01*
X234840Y471790D01*
X234790Y471880D01*
X234740Y471980D01*
X234700Y472070D01*
X234670Y472170D01*
X234640Y472270D01*
X234610Y472370D01*
X234590Y472480D01*
X234580Y472580D01*
X234570Y472690D01*
Y502790D01*
X250570D01*
Y472690D01*
D02*
G37*
G36*
X225170Y478790D02*
X225160Y478370D01*
X225130Y477950D01*
X225070Y477540D01*
X225000Y477130D01*
X224900Y476720D01*
X224780Y476320D01*
X224640Y475920D01*
X224480Y475540D01*
X224300Y475160D01*
X224100Y474790D01*
X223880Y474430D01*
X223640Y474090D01*
X223390Y473760D01*
X223120Y473440D01*
X222830Y473130D01*
X222520Y472840D01*
X222200Y472570D01*
X221870Y472320D01*
X221530Y472080D01*
X221170Y471860D01*
X220800Y471660D01*
X220420Y471480D01*
X220040Y471320D01*
X219640Y471180D01*
X219240Y471060D01*
X218830Y470960D01*
X218420Y470890D01*
X218010Y470830D01*
X217590Y470800D01*
X217170Y470790D01*
X216750Y470800D01*
X216330Y470830D01*
X215920Y470890D01*
X215510Y470960D01*
X215100Y471060D01*
X214700Y471180D01*
X214300Y471320D01*
X213920Y471480D01*
X213540Y471660D01*
X213170Y471860D01*
X212810Y472080D01*
X212470Y472320D01*
X212140Y472570D01*
X211820Y472840D01*
X211510Y473130D01*
X211220Y473440D01*
X210950Y473760D01*
X210700Y474090D01*
X210460Y474430D01*
X210240Y474790D01*
X210040Y475160D01*
X209860Y475540D01*
X209700Y475920D01*
X209560Y476320D01*
X209440Y476720D01*
X209340Y477130D01*
X209270Y477540D01*
X209210Y477950D01*
X209180Y478370D01*
X209170Y478790D01*
Y502790D01*
X225170D01*
Y478790D01*
D02*
G37*
G36*
X199770D02*
X199760Y478370D01*
X199730Y477950D01*
X199670Y477540D01*
X199600Y477130D01*
X199500Y476720D01*
X199380Y476320D01*
X199240Y475920D01*
X199080Y475540D01*
X198900Y475160D01*
X198700Y474790D01*
X198480Y474430D01*
X198240Y474090D01*
X197990Y473760D01*
X197720Y473440D01*
X197430Y473130D01*
X197120Y472840D01*
X196800Y472570D01*
X196470Y472320D01*
X196130Y472080D01*
X195770Y471860D01*
X195400Y471660D01*
X195020Y471480D01*
X194640Y471320D01*
X194240Y471180D01*
X193840Y471060D01*
X193430Y470960D01*
X193020Y470890D01*
X192610Y470830D01*
X192190Y470800D01*
X191770Y470790D01*
X191350Y470800D01*
X190930Y470830D01*
X190520Y470890D01*
X190110Y470960D01*
X189700Y471060D01*
X189300Y471180D01*
X188900Y471320D01*
X188520Y471480D01*
X188140Y471660D01*
X187770Y471860D01*
X187410Y472080D01*
X187070Y472320D01*
X186740Y472570D01*
X186420Y472840D01*
X186110Y473130D01*
X185820Y473440D01*
X185550Y473760D01*
X185300Y474090D01*
X185060Y474430D01*
X184840Y474790D01*
X184640Y475160D01*
X184460Y475540D01*
X184300Y475920D01*
X184160Y476320D01*
X184040Y476720D01*
X183940Y477130D01*
X183870Y477540D01*
X183810Y477950D01*
X183780Y478370D01*
X183770Y478790D01*
Y502790D01*
X199770D01*
Y478790D01*
D02*
G37*
G36*
X174370D02*
X174360Y478370D01*
X174330Y477950D01*
X174270Y477540D01*
X174200Y477130D01*
X174100Y476720D01*
X173980Y476320D01*
X173840Y475920D01*
X173680Y475540D01*
X173500Y475160D01*
X173300Y474790D01*
X173080Y474430D01*
X172840Y474090D01*
X172590Y473760D01*
X172320Y473440D01*
X172030Y473130D01*
X171720Y472840D01*
X171400Y472570D01*
X171070Y472320D01*
X170730Y472080D01*
X170370Y471860D01*
X170000Y471660D01*
X169620Y471480D01*
X169240Y471320D01*
X168840Y471180D01*
X168440Y471060D01*
X168030Y470960D01*
X167620Y470890D01*
X167210Y470830D01*
X166790Y470800D01*
X166370Y470790D01*
X165950Y470800D01*
X165530Y470830D01*
X165120Y470890D01*
X164710Y470960D01*
X164300Y471060D01*
X163900Y471180D01*
X163500Y471320D01*
X163120Y471480D01*
X162740Y471660D01*
X162370Y471860D01*
X162010Y472080D01*
X161670Y472320D01*
X161340Y472570D01*
X161020Y472840D01*
X160710Y473130D01*
X160420Y473440D01*
X160150Y473760D01*
X159900Y474090D01*
X159660Y474430D01*
X159440Y474790D01*
X159240Y475160D01*
X159060Y475540D01*
X158900Y475920D01*
X158760Y476320D01*
X158640Y476720D01*
X158540Y477130D01*
X158470Y477540D01*
X158410Y477950D01*
X158380Y478370D01*
X158370Y478790D01*
Y502790D01*
X174370D01*
Y478790D01*
D02*
G37*
G36*
X148970D02*
X148960Y478370D01*
X148930Y477950D01*
X148870Y477540D01*
X148800Y477130D01*
X148700Y476720D01*
X148580Y476320D01*
X148440Y475920D01*
X148280Y475540D01*
X148100Y475160D01*
X147900Y474790D01*
X147680Y474430D01*
X147440Y474090D01*
X147190Y473760D01*
X146920Y473440D01*
X146630Y473130D01*
X146320Y472840D01*
X146000Y472570D01*
X145670Y472320D01*
X145330Y472080D01*
X144970Y471860D01*
X144600Y471660D01*
X144220Y471480D01*
X143840Y471320D01*
X143440Y471180D01*
X143040Y471060D01*
X142630Y470960D01*
X142220Y470890D01*
X141810Y470830D01*
X141390Y470800D01*
X140970Y470790D01*
X140550Y470800D01*
X140130Y470830D01*
X139720Y470890D01*
X139310Y470960D01*
X138900Y471060D01*
X138500Y471180D01*
X138100Y471320D01*
X137720Y471480D01*
X137340Y471660D01*
X136970Y471860D01*
X136610Y472080D01*
X136270Y472320D01*
X135940Y472570D01*
X135620Y472840D01*
X135310Y473130D01*
X135020Y473440D01*
X134750Y473760D01*
X134500Y474090D01*
X134260Y474430D01*
X134040Y474790D01*
X133840Y475160D01*
X133660Y475540D01*
X133500Y475920D01*
X133360Y476320D01*
X133240Y476720D01*
X133140Y477130D01*
X133070Y477540D01*
X133010Y477950D01*
X132980Y478370D01*
X132970Y478790D01*
Y502790D01*
X148970D01*
Y478790D01*
D02*
G37*
G36*
X123570Y472690D02*
X123560Y472580D01*
X123550Y472480D01*
X123530Y472370D01*
X123500Y472270D01*
X123470Y472170D01*
X123440Y472070D01*
X123400Y471980D01*
X123350Y471880D01*
X123300Y471790D01*
X123250Y471700D01*
X123190Y471610D01*
X123120Y471530D01*
X123060Y471450D01*
X122980Y471380D01*
X122910Y471300D01*
X122830Y471240D01*
X122750Y471170D01*
X122660Y471110D01*
X122570Y471060D01*
X122480Y471010D01*
X122380Y470960D01*
X122290Y470920D01*
X122190Y470890D01*
X122090Y470860D01*
X121990Y470830D01*
X121880Y470810D01*
X121780Y470800D01*
X121670Y470790D01*
X109470D01*
X109360Y470800D01*
X109260Y470810D01*
X109150Y470830D01*
X109050Y470860D01*
X108950Y470890D01*
X108850Y470920D01*
X108760Y470960D01*
X108660Y471010D01*
X108570Y471060D01*
X108480Y471110D01*
X108390Y471170D01*
X108310Y471240D01*
X108230Y471300D01*
X108160Y471380D01*
X108080Y471450D01*
X108020Y471530D01*
X107950Y471610D01*
X107890Y471700D01*
X107840Y471790D01*
X107790Y471880D01*
X107740Y471980D01*
X107700Y472070D01*
X107670Y472170D01*
X107640Y472270D01*
X107610Y472370D01*
X107590Y472480D01*
X107580Y472580D01*
X107570Y472690D01*
Y502790D01*
X123570D01*
Y472690D01*
D02*
G37*
G36*
X98170Y478790D02*
X98160Y478370D01*
X98130Y477950D01*
X98070Y477540D01*
X98000Y477130D01*
X97900Y476720D01*
X97780Y476320D01*
X97640Y475920D01*
X97480Y475540D01*
X97300Y475160D01*
X97100Y474790D01*
X96880Y474430D01*
X96640Y474090D01*
X96390Y473760D01*
X96120Y473440D01*
X95830Y473130D01*
X95520Y472840D01*
X95200Y472570D01*
X94870Y472320D01*
X94530Y472080D01*
X94170Y471860D01*
X93800Y471660D01*
X93420Y471480D01*
X93040Y471320D01*
X92640Y471180D01*
X92240Y471060D01*
X91830Y470960D01*
X91420Y470890D01*
X91010Y470830D01*
X90590Y470800D01*
X90170Y470790D01*
X89750Y470800D01*
X89330Y470830D01*
X88920Y470890D01*
X88510Y470960D01*
X88100Y471060D01*
X87700Y471180D01*
X87300Y471320D01*
X86920Y471480D01*
X86540Y471660D01*
X86170Y471860D01*
X85810Y472080D01*
X85470Y472320D01*
X85140Y472570D01*
X84820Y472840D01*
X84510Y473130D01*
X84220Y473440D01*
X83950Y473760D01*
X83700Y474090D01*
X83460Y474430D01*
X83240Y474790D01*
X83040Y475160D01*
X82860Y475540D01*
X82700Y475920D01*
X82560Y476320D01*
X82440Y476720D01*
X82340Y477130D01*
X82270Y477540D01*
X82210Y477950D01*
X82180Y478370D01*
X82170Y478790D01*
Y502790D01*
X98170D01*
Y478790D01*
D02*
G37*
G36*
X72770D02*
X72760Y478370D01*
X72730Y477950D01*
X72670Y477540D01*
X72600Y477130D01*
X72500Y476720D01*
X72380Y476320D01*
X72240Y475920D01*
X72080Y475540D01*
X71900Y475160D01*
X71700Y474790D01*
X71480Y474430D01*
X71240Y474090D01*
X70990Y473760D01*
X70720Y473440D01*
X70430Y473130D01*
X70120Y472840D01*
X69800Y472570D01*
X69470Y472320D01*
X69130Y472080D01*
X68770Y471860D01*
X68400Y471660D01*
X68020Y471480D01*
X67640Y471320D01*
X67240Y471180D01*
X66840Y471060D01*
X66430Y470960D01*
X66020Y470890D01*
X65610Y470830D01*
X65190Y470800D01*
X64770Y470790D01*
X64350Y470800D01*
X63930Y470830D01*
X63520Y470890D01*
X63110Y470960D01*
X62700Y471060D01*
X62300Y471180D01*
X61900Y471320D01*
X61520Y471480D01*
X61140Y471660D01*
X60770Y471860D01*
X60410Y472080D01*
X60070Y472320D01*
X59740Y472570D01*
X59420Y472840D01*
X59110Y473130D01*
X58820Y473440D01*
X58550Y473760D01*
X58300Y474090D01*
X58060Y474430D01*
X57840Y474790D01*
X57640Y475160D01*
X57460Y475540D01*
X57300Y475920D01*
X57160Y476320D01*
X57040Y476720D01*
X56940Y477130D01*
X56870Y477540D01*
X56810Y477950D01*
X56780Y478370D01*
X56770Y478790D01*
Y502790D01*
X72770D01*
Y478790D01*
D02*
G37*
G36*
X569070Y407290D02*
X545070D01*
X544650Y407300D01*
X544230Y407330D01*
X543820Y407390D01*
X543410Y407460D01*
X543000Y407560D01*
X542600Y407680D01*
X542200Y407820D01*
X541820Y407980D01*
X541440Y408160D01*
X541070Y408360D01*
X540710Y408580D01*
X540370Y408820D01*
X540040Y409070D01*
X539720Y409340D01*
X539410Y409630D01*
X539120Y409940D01*
X538850Y410260D01*
X538600Y410590D01*
X538360Y410930D01*
X538140Y411290D01*
X537940Y411660D01*
X537760Y412040D01*
X537600Y412420D01*
X537460Y412820D01*
X537340Y413220D01*
X537240Y413630D01*
X537170Y414040D01*
X537110Y414450D01*
X537080Y414870D01*
X537070Y415290D01*
X537080Y415710D01*
X537110Y416130D01*
X537170Y416540D01*
X537240Y416950D01*
X537340Y417360D01*
X537460Y417760D01*
X537600Y418160D01*
X537760Y418540D01*
X537940Y418920D01*
X538140Y419290D01*
X538360Y419650D01*
X538600Y419990D01*
X538850Y420320D01*
X539120Y420640D01*
X539410Y420950D01*
X539720Y421240D01*
X540040Y421510D01*
X540370Y421760D01*
X540710Y422000D01*
X541070Y422220D01*
X541440Y422420D01*
X541820Y422600D01*
X542200Y422760D01*
X542600Y422900D01*
X543000Y423020D01*
X543410Y423120D01*
X543820Y423190D01*
X544230Y423250D01*
X544650Y423280D01*
X545070Y423290D01*
X569070D01*
Y407290D01*
D02*
G37*
G36*
Y381890D02*
X538970D01*
X538860Y381900D01*
X538760Y381910D01*
X538650Y381930D01*
X538550Y381960D01*
X538450Y381990D01*
X538350Y382020D01*
X538260Y382060D01*
X538160Y382110D01*
X538070Y382160D01*
X537980Y382210D01*
X537890Y382270D01*
X537810Y382340D01*
X537730Y382400D01*
X537660Y382480D01*
X537580Y382550D01*
X537520Y382630D01*
X537450Y382710D01*
X537390Y382800D01*
X537340Y382890D01*
X537290Y382980D01*
X537240Y383080D01*
X537200Y383170D01*
X537170Y383270D01*
X537140Y383370D01*
X537110Y383470D01*
X537090Y383580D01*
X537080Y383680D01*
X537070Y383790D01*
Y395990D01*
X537080Y396100D01*
X537090Y396200D01*
X537110Y396310D01*
X537140Y396410D01*
X537170Y396510D01*
X537200Y396610D01*
X537240Y396700D01*
X537290Y396800D01*
X537340Y396890D01*
X537390Y396980D01*
X537450Y397070D01*
X537520Y397150D01*
X537580Y397230D01*
X537660Y397300D01*
X537730Y397380D01*
X537810Y397440D01*
X537890Y397510D01*
X537980Y397570D01*
X538070Y397620D01*
X538160Y397670D01*
X538260Y397720D01*
X538350Y397760D01*
X538450Y397790D01*
X538550Y397820D01*
X538650Y397850D01*
X538760Y397870D01*
X538860Y397880D01*
X538970Y397890D01*
X569070D01*
Y381890D01*
D02*
G37*
G36*
Y356490D02*
X545070D01*
X544650Y356500D01*
X544230Y356530D01*
X543820Y356590D01*
X543410Y356660D01*
X543000Y356760D01*
X542600Y356880D01*
X542200Y357020D01*
X541820Y357180D01*
X541440Y357360D01*
X541070Y357560D01*
X540710Y357780D01*
X540370Y358020D01*
X540040Y358270D01*
X539720Y358540D01*
X539410Y358830D01*
X539120Y359140D01*
X538850Y359460D01*
X538600Y359790D01*
X538360Y360130D01*
X538140Y360490D01*
X537940Y360860D01*
X537760Y361240D01*
X537600Y361620D01*
X537460Y362020D01*
X537340Y362420D01*
X537240Y362830D01*
X537170Y363240D01*
X537110Y363650D01*
X537080Y364070D01*
X537070Y364490D01*
X537080Y364910D01*
X537110Y365330D01*
X537170Y365740D01*
X537240Y366150D01*
X537340Y366560D01*
X537460Y366960D01*
X537600Y367360D01*
X537760Y367740D01*
X537940Y368120D01*
X538140Y368490D01*
X538360Y368850D01*
X538600Y369190D01*
X538850Y369520D01*
X539120Y369840D01*
X539410Y370150D01*
X539720Y370440D01*
X540040Y370710D01*
X540370Y370960D01*
X540710Y371200D01*
X541070Y371420D01*
X541440Y371620D01*
X541820Y371800D01*
X542200Y371960D01*
X542600Y372100D01*
X543000Y372220D01*
X543410Y372320D01*
X543820Y372390D01*
X544230Y372450D01*
X544650Y372480D01*
X545070Y372490D01*
X569070D01*
Y356490D01*
D02*
G37*
G36*
X547790Y308980D02*
X548210Y308950D01*
X548620Y308890D01*
X549030Y308820D01*
X549440Y308720D01*
X549840Y308600D01*
X550240Y308460D01*
X550620Y308300D01*
X551000Y308120D01*
X551370Y307920D01*
X551730Y307700D01*
X552070Y307460D01*
X552400Y307210D01*
X552720Y306940D01*
X553030Y306650D01*
X553320Y306340D01*
X553590Y306020D01*
X553840Y305690D01*
X554080Y305350D01*
X554300Y304990D01*
X554500Y304620D01*
X554680Y304240D01*
X554840Y303860D01*
X554980Y303460D01*
X555100Y303060D01*
X555200Y302650D01*
X555270Y302240D01*
X555330Y301830D01*
X555360Y301410D01*
X555370Y300990D01*
Y276990D01*
X539370D01*
Y300990D01*
X539380Y301410D01*
X539410Y301830D01*
X539470Y302240D01*
X539540Y302650D01*
X539640Y303060D01*
X539760Y303460D01*
X539900Y303860D01*
X540060Y304240D01*
X540240Y304620D01*
X540440Y304990D01*
X540660Y305350D01*
X540900Y305690D01*
X541150Y306020D01*
X541420Y306340D01*
X541710Y306650D01*
X542020Y306940D01*
X542340Y307210D01*
X542670Y307460D01*
X543010Y307700D01*
X543370Y307920D01*
X543740Y308120D01*
X544120Y308300D01*
X544500Y308460D01*
X544900Y308600D01*
X545300Y308720D01*
X545710Y308820D01*
X546120Y308890D01*
X546530Y308950D01*
X546950Y308980D01*
X547370Y308990D01*
X547790Y308980D01*
D02*
G37*
G36*
X522390D02*
X522810Y308950D01*
X523220Y308890D01*
X523630Y308820D01*
X524040Y308720D01*
X524440Y308600D01*
X524840Y308460D01*
X525220Y308300D01*
X525600Y308120D01*
X525970Y307920D01*
X526330Y307700D01*
X526670Y307460D01*
X527000Y307210D01*
X527320Y306940D01*
X527630Y306650D01*
X527920Y306340D01*
X528190Y306020D01*
X528440Y305690D01*
X528680Y305350D01*
X528900Y304990D01*
X529100Y304620D01*
X529280Y304240D01*
X529440Y303860D01*
X529580Y303460D01*
X529700Y303060D01*
X529800Y302650D01*
X529870Y302240D01*
X529930Y301830D01*
X529960Y301410D01*
X529970Y300990D01*
Y276990D01*
X513970D01*
Y300990D01*
X513980Y301410D01*
X514010Y301830D01*
X514070Y302240D01*
X514140Y302650D01*
X514240Y303060D01*
X514360Y303460D01*
X514500Y303860D01*
X514660Y304240D01*
X514840Y304620D01*
X515040Y304990D01*
X515260Y305350D01*
X515500Y305690D01*
X515750Y306020D01*
X516020Y306340D01*
X516310Y306650D01*
X516620Y306940D01*
X516940Y307210D01*
X517270Y307460D01*
X517610Y307700D01*
X517970Y307920D01*
X518340Y308120D01*
X518720Y308300D01*
X519100Y308460D01*
X519500Y308600D01*
X519900Y308720D01*
X520310Y308820D01*
X520720Y308890D01*
X521130Y308950D01*
X521550Y308980D01*
X521970Y308990D01*
X522390Y308980D01*
D02*
G37*
G36*
X502780D02*
X502880Y308970D01*
X502990Y308950D01*
X503090Y308920D01*
X503190Y308890D01*
X503290Y308860D01*
X503380Y308820D01*
X503480Y308770D01*
X503570Y308720D01*
X503660Y308670D01*
X503750Y308610D01*
X503830Y308540D01*
X503910Y308480D01*
X503980Y308400D01*
X504060Y308330D01*
X504120Y308250D01*
X504190Y308170D01*
X504250Y308080D01*
X504300Y307990D01*
X504350Y307900D01*
X504400Y307800D01*
X504440Y307710D01*
X504470Y307610D01*
X504500Y307510D01*
X504530Y307410D01*
X504550Y307300D01*
X504560Y307200D01*
X504570Y307090D01*
Y276990D01*
X488570D01*
Y307090D01*
X488580Y307200D01*
X488590Y307300D01*
X488610Y307410D01*
X488640Y307510D01*
X488670Y307610D01*
X488700Y307710D01*
X488740Y307800D01*
X488790Y307900D01*
X488840Y307990D01*
X488890Y308080D01*
X488950Y308170D01*
X489020Y308250D01*
X489080Y308330D01*
X489160Y308400D01*
X489230Y308480D01*
X489310Y308540D01*
X489390Y308610D01*
X489480Y308670D01*
X489570Y308720D01*
X489660Y308770D01*
X489760Y308820D01*
X489850Y308860D01*
X489950Y308890D01*
X490050Y308920D01*
X490150Y308950D01*
X490260Y308970D01*
X490360Y308980D01*
X490470Y308990D01*
X502670D01*
X502780Y308980D01*
D02*
G37*
G36*
X471590D02*
X472010Y308950D01*
X472420Y308890D01*
X472830Y308820D01*
X473240Y308720D01*
X473640Y308600D01*
X474040Y308460D01*
X474420Y308300D01*
X474800Y308120D01*
X475170Y307920D01*
X475530Y307700D01*
X475870Y307460D01*
X476200Y307210D01*
X476520Y306940D01*
X476830Y306650D01*
X477120Y306340D01*
X477390Y306020D01*
X477640Y305690D01*
X477880Y305350D01*
X478100Y304990D01*
X478300Y304620D01*
X478480Y304240D01*
X478640Y303860D01*
X478780Y303460D01*
X478900Y303060D01*
X479000Y302650D01*
X479070Y302240D01*
X479130Y301830D01*
X479160Y301410D01*
X479170Y300990D01*
Y276990D01*
X463170D01*
Y300990D01*
X463180Y301410D01*
X463210Y301830D01*
X463270Y302240D01*
X463340Y302650D01*
X463440Y303060D01*
X463560Y303460D01*
X463700Y303860D01*
X463860Y304240D01*
X464040Y304620D01*
X464240Y304990D01*
X464460Y305350D01*
X464700Y305690D01*
X464950Y306020D01*
X465220Y306340D01*
X465510Y306650D01*
X465820Y306940D01*
X466140Y307210D01*
X466470Y307460D01*
X466810Y307700D01*
X467170Y307920D01*
X467540Y308120D01*
X467920Y308300D01*
X468300Y308460D01*
X468700Y308600D01*
X469100Y308720D01*
X469510Y308820D01*
X469920Y308890D01*
X470330Y308950D01*
X470750Y308980D01*
X471170Y308990D01*
X471590Y308980D01*
D02*
G37*
G36*
X446190D02*
X446610Y308950D01*
X447020Y308890D01*
X447430Y308820D01*
X447840Y308720D01*
X448240Y308600D01*
X448640Y308460D01*
X449020Y308300D01*
X449400Y308120D01*
X449770Y307920D01*
X450130Y307700D01*
X450470Y307460D01*
X450800Y307210D01*
X451120Y306940D01*
X451430Y306650D01*
X451720Y306340D01*
X451990Y306020D01*
X452240Y305690D01*
X452480Y305350D01*
X452700Y304990D01*
X452900Y304620D01*
X453080Y304240D01*
X453240Y303860D01*
X453380Y303460D01*
X453500Y303060D01*
X453600Y302650D01*
X453670Y302240D01*
X453730Y301830D01*
X453760Y301410D01*
X453770Y300990D01*
Y276990D01*
X437770D01*
Y300990D01*
X437780Y301410D01*
X437810Y301830D01*
X437870Y302240D01*
X437940Y302650D01*
X438040Y303060D01*
X438160Y303460D01*
X438300Y303860D01*
X438460Y304240D01*
X438640Y304620D01*
X438840Y304990D01*
X439060Y305350D01*
X439300Y305690D01*
X439550Y306020D01*
X439820Y306340D01*
X440110Y306650D01*
X440420Y306940D01*
X440740Y307210D01*
X441070Y307460D01*
X441410Y307700D01*
X441770Y307920D01*
X442140Y308120D01*
X442520Y308300D01*
X442900Y308460D01*
X443300Y308600D01*
X443700Y308720D01*
X444110Y308820D01*
X444520Y308890D01*
X444930Y308950D01*
X445350Y308980D01*
X445770Y308990D01*
X446190Y308980D01*
D02*
G37*
G36*
X420790D02*
X421210Y308950D01*
X421620Y308890D01*
X422030Y308820D01*
X422440Y308720D01*
X422840Y308600D01*
X423240Y308460D01*
X423620Y308300D01*
X424000Y308120D01*
X424370Y307920D01*
X424730Y307700D01*
X425070Y307460D01*
X425400Y307210D01*
X425720Y306940D01*
X426030Y306650D01*
X426320Y306340D01*
X426590Y306020D01*
X426840Y305690D01*
X427080Y305350D01*
X427300Y304990D01*
X427500Y304620D01*
X427680Y304240D01*
X427840Y303860D01*
X427980Y303460D01*
X428100Y303060D01*
X428200Y302650D01*
X428270Y302240D01*
X428330Y301830D01*
X428360Y301410D01*
X428370Y300990D01*
Y276990D01*
X412370D01*
Y300990D01*
X412380Y301410D01*
X412410Y301830D01*
X412470Y302240D01*
X412540Y302650D01*
X412640Y303060D01*
X412760Y303460D01*
X412900Y303860D01*
X413060Y304240D01*
X413240Y304620D01*
X413440Y304990D01*
X413660Y305350D01*
X413900Y305690D01*
X414150Y306020D01*
X414420Y306340D01*
X414710Y306650D01*
X415020Y306940D01*
X415340Y307210D01*
X415670Y307460D01*
X416010Y307700D01*
X416370Y307920D01*
X416740Y308120D01*
X417120Y308300D01*
X417500Y308460D01*
X417900Y308600D01*
X418300Y308720D01*
X418710Y308820D01*
X419120Y308890D01*
X419530Y308950D01*
X419950Y308980D01*
X420370Y308990D01*
X420790Y308980D01*
D02*
G37*
G36*
X395390D02*
X395810Y308950D01*
X396220Y308890D01*
X396630Y308820D01*
X397040Y308720D01*
X397440Y308600D01*
X397840Y308460D01*
X398220Y308300D01*
X398600Y308120D01*
X398970Y307920D01*
X399330Y307700D01*
X399670Y307460D01*
X400000Y307210D01*
X400320Y306940D01*
X400630Y306650D01*
X400920Y306340D01*
X401190Y306020D01*
X401440Y305690D01*
X401680Y305350D01*
X401900Y304990D01*
X402100Y304620D01*
X402280Y304240D01*
X402440Y303860D01*
X402580Y303460D01*
X402700Y303060D01*
X402800Y302650D01*
X402870Y302240D01*
X402930Y301830D01*
X402960Y301410D01*
X402970Y300990D01*
Y276990D01*
X386970D01*
Y300990D01*
X386980Y301410D01*
X387010Y301830D01*
X387070Y302240D01*
X387140Y302650D01*
X387240Y303060D01*
X387360Y303460D01*
X387500Y303860D01*
X387660Y304240D01*
X387840Y304620D01*
X388040Y304990D01*
X388260Y305350D01*
X388500Y305690D01*
X388750Y306020D01*
X389020Y306340D01*
X389310Y306650D01*
X389620Y306940D01*
X389940Y307210D01*
X390270Y307460D01*
X390610Y307700D01*
X390970Y307920D01*
X391340Y308120D01*
X391720Y308300D01*
X392100Y308460D01*
X392500Y308600D01*
X392900Y308720D01*
X393310Y308820D01*
X393720Y308890D01*
X394130Y308950D01*
X394550Y308980D01*
X394970Y308990D01*
X395390Y308980D01*
D02*
G37*
G36*
X375780D02*
X375880Y308970D01*
X375990Y308950D01*
X376090Y308920D01*
X376190Y308890D01*
X376290Y308860D01*
X376380Y308820D01*
X376480Y308770D01*
X376570Y308720D01*
X376660Y308670D01*
X376750Y308610D01*
X376830Y308540D01*
X376910Y308480D01*
X376980Y308400D01*
X377060Y308330D01*
X377120Y308250D01*
X377190Y308170D01*
X377250Y308080D01*
X377300Y307990D01*
X377350Y307900D01*
X377400Y307800D01*
X377440Y307710D01*
X377470Y307610D01*
X377500Y307510D01*
X377530Y307410D01*
X377550Y307300D01*
X377560Y307200D01*
X377570Y307090D01*
Y276990D01*
X361570D01*
Y307090D01*
X361580Y307200D01*
X361590Y307300D01*
X361610Y307410D01*
X361640Y307510D01*
X361670Y307610D01*
X361700Y307710D01*
X361740Y307800D01*
X361790Y307900D01*
X361840Y307990D01*
X361890Y308080D01*
X361950Y308170D01*
X362020Y308250D01*
X362080Y308330D01*
X362160Y308400D01*
X362230Y308480D01*
X362310Y308540D01*
X362390Y308610D01*
X362480Y308670D01*
X362570Y308720D01*
X362660Y308770D01*
X362760Y308820D01*
X362850Y308860D01*
X362950Y308890D01*
X363050Y308920D01*
X363150Y308950D01*
X363260Y308970D01*
X363360Y308980D01*
X363470Y308990D01*
X375670D01*
X375780Y308980D01*
D02*
G37*
G36*
X344590D02*
X345010Y308950D01*
X345420Y308890D01*
X345830Y308820D01*
X346240Y308720D01*
X346640Y308600D01*
X347040Y308460D01*
X347420Y308300D01*
X347800Y308120D01*
X348170Y307920D01*
X348530Y307700D01*
X348870Y307460D01*
X349200Y307210D01*
X349520Y306940D01*
X349830Y306650D01*
X350120Y306340D01*
X350390Y306020D01*
X350640Y305690D01*
X350880Y305350D01*
X351100Y304990D01*
X351300Y304620D01*
X351480Y304240D01*
X351640Y303860D01*
X351780Y303460D01*
X351900Y303060D01*
X352000Y302650D01*
X352070Y302240D01*
X352130Y301830D01*
X352160Y301410D01*
X352170Y300990D01*
Y276990D01*
X336170D01*
Y300990D01*
X336180Y301410D01*
X336210Y301830D01*
X336270Y302240D01*
X336340Y302650D01*
X336440Y303060D01*
X336560Y303460D01*
X336700Y303860D01*
X336860Y304240D01*
X337040Y304620D01*
X337240Y304990D01*
X337460Y305350D01*
X337700Y305690D01*
X337950Y306020D01*
X338220Y306340D01*
X338510Y306650D01*
X338820Y306940D01*
X339140Y307210D01*
X339470Y307460D01*
X339810Y307700D01*
X340170Y307920D01*
X340540Y308120D01*
X340920Y308300D01*
X341300Y308460D01*
X341700Y308600D01*
X342100Y308720D01*
X342510Y308820D01*
X342920Y308890D01*
X343330Y308950D01*
X343750Y308980D01*
X344170Y308990D01*
X344590Y308980D01*
D02*
G37*
G36*
X319190D02*
X319610Y308950D01*
X320020Y308890D01*
X320430Y308820D01*
X320840Y308720D01*
X321240Y308600D01*
X321640Y308460D01*
X322020Y308300D01*
X322400Y308120D01*
X322770Y307920D01*
X323130Y307700D01*
X323470Y307460D01*
X323800Y307210D01*
X324120Y306940D01*
X324430Y306650D01*
X324720Y306340D01*
X324990Y306020D01*
X325240Y305690D01*
X325480Y305350D01*
X325700Y304990D01*
X325900Y304620D01*
X326080Y304240D01*
X326240Y303860D01*
X326380Y303460D01*
X326500Y303060D01*
X326600Y302650D01*
X326670Y302240D01*
X326730Y301830D01*
X326760Y301410D01*
X326770Y300990D01*
Y276990D01*
X310770D01*
Y300990D01*
X310780Y301410D01*
X310810Y301830D01*
X310870Y302240D01*
X310940Y302650D01*
X311040Y303060D01*
X311160Y303460D01*
X311300Y303860D01*
X311460Y304240D01*
X311640Y304620D01*
X311840Y304990D01*
X312060Y305350D01*
X312300Y305690D01*
X312550Y306020D01*
X312820Y306340D01*
X313110Y306650D01*
X313420Y306940D01*
X313740Y307210D01*
X314070Y307460D01*
X314410Y307700D01*
X314770Y307920D01*
X315140Y308120D01*
X315520Y308300D01*
X315900Y308460D01*
X316300Y308600D01*
X316700Y308720D01*
X317110Y308820D01*
X317520Y308890D01*
X317930Y308950D01*
X318350Y308980D01*
X318770Y308990D01*
X319190Y308980D01*
D02*
G37*
G36*
X293790D02*
X294210Y308950D01*
X294620Y308890D01*
X295030Y308820D01*
X295440Y308720D01*
X295840Y308600D01*
X296240Y308460D01*
X296620Y308300D01*
X297000Y308120D01*
X297370Y307920D01*
X297730Y307700D01*
X298070Y307460D01*
X298400Y307210D01*
X298720Y306940D01*
X299030Y306650D01*
X299320Y306340D01*
X299590Y306020D01*
X299840Y305690D01*
X300080Y305350D01*
X300300Y304990D01*
X300500Y304620D01*
X300680Y304240D01*
X300840Y303860D01*
X300980Y303460D01*
X301100Y303060D01*
X301200Y302650D01*
X301270Y302240D01*
X301330Y301830D01*
X301360Y301410D01*
X301370Y300990D01*
Y276990D01*
X285370D01*
Y300990D01*
X285380Y301410D01*
X285410Y301830D01*
X285470Y302240D01*
X285540Y302650D01*
X285640Y303060D01*
X285760Y303460D01*
X285900Y303860D01*
X286060Y304240D01*
X286240Y304620D01*
X286440Y304990D01*
X286660Y305350D01*
X286900Y305690D01*
X287150Y306020D01*
X287420Y306340D01*
X287710Y306650D01*
X288020Y306940D01*
X288340Y307210D01*
X288670Y307460D01*
X289010Y307700D01*
X289370Y307920D01*
X289740Y308120D01*
X290120Y308300D01*
X290500Y308460D01*
X290900Y308600D01*
X291300Y308720D01*
X291710Y308820D01*
X292120Y308890D01*
X292530Y308950D01*
X292950Y308980D01*
X293370Y308990D01*
X293790Y308980D01*
D02*
G37*
G36*
X268390D02*
X268810Y308950D01*
X269220Y308890D01*
X269630Y308820D01*
X270040Y308720D01*
X270440Y308600D01*
X270840Y308460D01*
X271220Y308300D01*
X271600Y308120D01*
X271970Y307920D01*
X272330Y307700D01*
X272670Y307460D01*
X273000Y307210D01*
X273320Y306940D01*
X273630Y306650D01*
X273920Y306340D01*
X274190Y306020D01*
X274440Y305690D01*
X274680Y305350D01*
X274900Y304990D01*
X275100Y304620D01*
X275280Y304240D01*
X275440Y303860D01*
X275580Y303460D01*
X275700Y303060D01*
X275800Y302650D01*
X275870Y302240D01*
X275930Y301830D01*
X275960Y301410D01*
X275970Y300990D01*
Y276990D01*
X259970D01*
Y300990D01*
X259980Y301410D01*
X260010Y301830D01*
X260070Y302240D01*
X260140Y302650D01*
X260240Y303060D01*
X260360Y303460D01*
X260500Y303860D01*
X260660Y304240D01*
X260840Y304620D01*
X261040Y304990D01*
X261260Y305350D01*
X261500Y305690D01*
X261750Y306020D01*
X262020Y306340D01*
X262310Y306650D01*
X262620Y306940D01*
X262940Y307210D01*
X263270Y307460D01*
X263610Y307700D01*
X263970Y307920D01*
X264340Y308120D01*
X264720Y308300D01*
X265100Y308460D01*
X265500Y308600D01*
X265900Y308720D01*
X266310Y308820D01*
X266720Y308890D01*
X267130Y308950D01*
X267550Y308980D01*
X267970Y308990D01*
X268390Y308980D01*
D02*
G37*
G36*
X248780D02*
X248880Y308970D01*
X248990Y308950D01*
X249090Y308920D01*
X249190Y308890D01*
X249290Y308860D01*
X249380Y308820D01*
X249480Y308770D01*
X249570Y308720D01*
X249660Y308670D01*
X249750Y308610D01*
X249830Y308540D01*
X249910Y308480D01*
X249980Y308400D01*
X250060Y308330D01*
X250120Y308250D01*
X250190Y308170D01*
X250250Y308080D01*
X250300Y307990D01*
X250350Y307900D01*
X250400Y307800D01*
X250440Y307710D01*
X250470Y307610D01*
X250500Y307510D01*
X250530Y307410D01*
X250550Y307300D01*
X250560Y307200D01*
X250570Y307090D01*
Y276990D01*
X234570D01*
Y307090D01*
X234580Y307200D01*
X234590Y307300D01*
X234610Y307410D01*
X234640Y307510D01*
X234670Y307610D01*
X234700Y307710D01*
X234740Y307800D01*
X234790Y307900D01*
X234840Y307990D01*
X234890Y308080D01*
X234950Y308170D01*
X235020Y308250D01*
X235080Y308330D01*
X235160Y308400D01*
X235230Y308480D01*
X235310Y308540D01*
X235390Y308610D01*
X235480Y308670D01*
X235570Y308720D01*
X235660Y308770D01*
X235760Y308820D01*
X235850Y308860D01*
X235950Y308890D01*
X236050Y308920D01*
X236150Y308950D01*
X236260Y308970D01*
X236360Y308980D01*
X236470Y308990D01*
X248670D01*
X248780Y308980D01*
D02*
G37*
G36*
X217590D02*
X218010Y308950D01*
X218420Y308890D01*
X218830Y308820D01*
X219240Y308720D01*
X219640Y308600D01*
X220040Y308460D01*
X220420Y308300D01*
X220800Y308120D01*
X221170Y307920D01*
X221530Y307700D01*
X221870Y307460D01*
X222200Y307210D01*
X222520Y306940D01*
X222830Y306650D01*
X223120Y306340D01*
X223390Y306020D01*
X223640Y305690D01*
X223880Y305350D01*
X224100Y304990D01*
X224300Y304620D01*
X224480Y304240D01*
X224640Y303860D01*
X224780Y303460D01*
X224900Y303060D01*
X225000Y302650D01*
X225070Y302240D01*
X225130Y301830D01*
X225160Y301410D01*
X225170Y300990D01*
Y276990D01*
X209170D01*
Y300990D01*
X209180Y301410D01*
X209210Y301830D01*
X209270Y302240D01*
X209340Y302650D01*
X209440Y303060D01*
X209560Y303460D01*
X209700Y303860D01*
X209860Y304240D01*
X210040Y304620D01*
X210240Y304990D01*
X210460Y305350D01*
X210700Y305690D01*
X210950Y306020D01*
X211220Y306340D01*
X211510Y306650D01*
X211820Y306940D01*
X212140Y307210D01*
X212470Y307460D01*
X212810Y307700D01*
X213170Y307920D01*
X213540Y308120D01*
X213920Y308300D01*
X214300Y308460D01*
X214700Y308600D01*
X215100Y308720D01*
X215510Y308820D01*
X215920Y308890D01*
X216330Y308950D01*
X216750Y308980D01*
X217170Y308990D01*
X217590Y308980D01*
D02*
G37*
G36*
X192190D02*
X192610Y308950D01*
X193020Y308890D01*
X193430Y308820D01*
X193840Y308720D01*
X194240Y308600D01*
X194640Y308460D01*
X195020Y308300D01*
X195400Y308120D01*
X195770Y307920D01*
X196130Y307700D01*
X196470Y307460D01*
X196800Y307210D01*
X197120Y306940D01*
X197430Y306650D01*
X197720Y306340D01*
X197990Y306020D01*
X198240Y305690D01*
X198480Y305350D01*
X198700Y304990D01*
X198900Y304620D01*
X199080Y304240D01*
X199240Y303860D01*
X199380Y303460D01*
X199500Y303060D01*
X199600Y302650D01*
X199670Y302240D01*
X199730Y301830D01*
X199760Y301410D01*
X199770Y300990D01*
Y276990D01*
X183770D01*
Y300990D01*
X183780Y301410D01*
X183810Y301830D01*
X183870Y302240D01*
X183940Y302650D01*
X184040Y303060D01*
X184160Y303460D01*
X184300Y303860D01*
X184460Y304240D01*
X184640Y304620D01*
X184840Y304990D01*
X185060Y305350D01*
X185300Y305690D01*
X185550Y306020D01*
X185820Y306340D01*
X186110Y306650D01*
X186420Y306940D01*
X186740Y307210D01*
X187070Y307460D01*
X187410Y307700D01*
X187770Y307920D01*
X188140Y308120D01*
X188520Y308300D01*
X188900Y308460D01*
X189300Y308600D01*
X189700Y308720D01*
X190110Y308820D01*
X190520Y308890D01*
X190930Y308950D01*
X191350Y308980D01*
X191770Y308990D01*
X192190Y308980D01*
D02*
G37*
G36*
X166790D02*
X167210Y308950D01*
X167620Y308890D01*
X168030Y308820D01*
X168440Y308720D01*
X168840Y308600D01*
X169240Y308460D01*
X169620Y308300D01*
X170000Y308120D01*
X170370Y307920D01*
X170730Y307700D01*
X171070Y307460D01*
X171400Y307210D01*
X171720Y306940D01*
X172030Y306650D01*
X172320Y306340D01*
X172590Y306020D01*
X172840Y305690D01*
X173080Y305350D01*
X173300Y304990D01*
X173500Y304620D01*
X173680Y304240D01*
X173840Y303860D01*
X173980Y303460D01*
X174100Y303060D01*
X174200Y302650D01*
X174270Y302240D01*
X174330Y301830D01*
X174360Y301410D01*
X174370Y300990D01*
Y276990D01*
X158370D01*
Y300990D01*
X158380Y301410D01*
X158410Y301830D01*
X158470Y302240D01*
X158540Y302650D01*
X158640Y303060D01*
X158760Y303460D01*
X158900Y303860D01*
X159060Y304240D01*
X159240Y304620D01*
X159440Y304990D01*
X159660Y305350D01*
X159900Y305690D01*
X160150Y306020D01*
X160420Y306340D01*
X160710Y306650D01*
X161020Y306940D01*
X161340Y307210D01*
X161670Y307460D01*
X162010Y307700D01*
X162370Y307920D01*
X162740Y308120D01*
X163120Y308300D01*
X163500Y308460D01*
X163900Y308600D01*
X164300Y308720D01*
X164710Y308820D01*
X165120Y308890D01*
X165530Y308950D01*
X165950Y308980D01*
X166370Y308990D01*
X166790Y308980D01*
D02*
G37*
G36*
X141390D02*
X141810Y308950D01*
X142220Y308890D01*
X142630Y308820D01*
X143040Y308720D01*
X143440Y308600D01*
X143840Y308460D01*
X144220Y308300D01*
X144600Y308120D01*
X144970Y307920D01*
X145330Y307700D01*
X145670Y307460D01*
X146000Y307210D01*
X146320Y306940D01*
X146630Y306650D01*
X146920Y306340D01*
X147190Y306020D01*
X147440Y305690D01*
X147680Y305350D01*
X147900Y304990D01*
X148100Y304620D01*
X148280Y304240D01*
X148440Y303860D01*
X148580Y303460D01*
X148700Y303060D01*
X148800Y302650D01*
X148870Y302240D01*
X148930Y301830D01*
X148960Y301410D01*
X148970Y300990D01*
Y276990D01*
X132970D01*
Y300990D01*
X132980Y301410D01*
X133010Y301830D01*
X133070Y302240D01*
X133140Y302650D01*
X133240Y303060D01*
X133360Y303460D01*
X133500Y303860D01*
X133660Y304240D01*
X133840Y304620D01*
X134040Y304990D01*
X134260Y305350D01*
X134500Y305690D01*
X134750Y306020D01*
X135020Y306340D01*
X135310Y306650D01*
X135620Y306940D01*
X135940Y307210D01*
X136270Y307460D01*
X136610Y307700D01*
X136970Y307920D01*
X137340Y308120D01*
X137720Y308300D01*
X138100Y308460D01*
X138500Y308600D01*
X138900Y308720D01*
X139310Y308820D01*
X139720Y308890D01*
X140130Y308950D01*
X140550Y308980D01*
X140970Y308990D01*
X141390Y308980D01*
D02*
G37*
G36*
X121780D02*
X121880Y308970D01*
X121990Y308950D01*
X122090Y308920D01*
X122190Y308890D01*
X122290Y308860D01*
X122380Y308820D01*
X122480Y308770D01*
X122570Y308720D01*
X122660Y308670D01*
X122750Y308610D01*
X122830Y308540D01*
X122910Y308480D01*
X122980Y308400D01*
X123060Y308330D01*
X123120Y308250D01*
X123190Y308170D01*
X123250Y308080D01*
X123300Y307990D01*
X123350Y307900D01*
X123400Y307800D01*
X123440Y307710D01*
X123470Y307610D01*
X123500Y307510D01*
X123530Y307410D01*
X123550Y307300D01*
X123560Y307200D01*
X123570Y307090D01*
Y276990D01*
X107570D01*
Y307090D01*
X107580Y307200D01*
X107590Y307300D01*
X107610Y307410D01*
X107640Y307510D01*
X107670Y307610D01*
X107700Y307710D01*
X107740Y307800D01*
X107790Y307900D01*
X107840Y307990D01*
X107890Y308080D01*
X107950Y308170D01*
X108020Y308250D01*
X108080Y308330D01*
X108160Y308400D01*
X108230Y308480D01*
X108310Y308540D01*
X108390Y308610D01*
X108480Y308670D01*
X108570Y308720D01*
X108660Y308770D01*
X108760Y308820D01*
X108850Y308860D01*
X108950Y308890D01*
X109050Y308920D01*
X109150Y308950D01*
X109260Y308970D01*
X109360Y308980D01*
X109470Y308990D01*
X121670D01*
X121780Y308980D01*
D02*
G37*
G36*
X90590D02*
X91010Y308950D01*
X91420Y308890D01*
X91830Y308820D01*
X92240Y308720D01*
X92640Y308600D01*
X93040Y308460D01*
X93420Y308300D01*
X93800Y308120D01*
X94170Y307920D01*
X94530Y307700D01*
X94870Y307460D01*
X95200Y307210D01*
X95520Y306940D01*
X95830Y306650D01*
X96120Y306340D01*
X96390Y306020D01*
X96640Y305690D01*
X96880Y305350D01*
X97100Y304990D01*
X97300Y304620D01*
X97480Y304240D01*
X97640Y303860D01*
X97780Y303460D01*
X97900Y303060D01*
X98000Y302650D01*
X98070Y302240D01*
X98130Y301830D01*
X98160Y301410D01*
X98170Y300990D01*
Y276990D01*
X82170D01*
Y300990D01*
X82180Y301410D01*
X82210Y301830D01*
X82270Y302240D01*
X82340Y302650D01*
X82440Y303060D01*
X82560Y303460D01*
X82700Y303860D01*
X82860Y304240D01*
X83040Y304620D01*
X83240Y304990D01*
X83460Y305350D01*
X83700Y305690D01*
X83950Y306020D01*
X84220Y306340D01*
X84510Y306650D01*
X84820Y306940D01*
X85140Y307210D01*
X85470Y307460D01*
X85810Y307700D01*
X86170Y307920D01*
X86540Y308120D01*
X86920Y308300D01*
X87300Y308460D01*
X87700Y308600D01*
X88100Y308720D01*
X88510Y308820D01*
X88920Y308890D01*
X89330Y308950D01*
X89750Y308980D01*
X90170Y308990D01*
X90590Y308980D01*
D02*
G37*
G36*
X65190D02*
X65610Y308950D01*
X66020Y308890D01*
X66430Y308820D01*
X66840Y308720D01*
X67240Y308600D01*
X67640Y308460D01*
X68020Y308300D01*
X68400Y308120D01*
X68770Y307920D01*
X69130Y307700D01*
X69470Y307460D01*
X69800Y307210D01*
X70120Y306940D01*
X70430Y306650D01*
X70720Y306340D01*
X70990Y306020D01*
X71240Y305690D01*
X71480Y305350D01*
X71700Y304990D01*
X71900Y304620D01*
X72080Y304240D01*
X72240Y303860D01*
X72380Y303460D01*
X72500Y303060D01*
X72600Y302650D01*
X72670Y302240D01*
X72730Y301830D01*
X72760Y301410D01*
X72770Y300990D01*
Y276990D01*
X56770D01*
Y300990D01*
X56780Y301410D01*
X56810Y301830D01*
X56870Y302240D01*
X56940Y302650D01*
X57040Y303060D01*
X57160Y303460D01*
X57300Y303860D01*
X57460Y304240D01*
X57640Y304620D01*
X57840Y304990D01*
X58060Y305350D01*
X58300Y305690D01*
X58550Y306020D01*
X58820Y306340D01*
X59110Y306650D01*
X59420Y306940D01*
X59740Y307210D01*
X60070Y307460D01*
X60410Y307700D01*
X60770Y307920D01*
X61140Y308120D01*
X61520Y308300D01*
X61900Y308460D01*
X62300Y308600D01*
X62700Y308720D01*
X63110Y308820D01*
X63520Y308890D01*
X63930Y308950D01*
X64350Y308980D01*
X64770Y308990D01*
X65190Y308980D01*
D02*
G37*
D14*
X63070Y379890D02*
D03*
Y399890D02*
D03*
X96070Y389890D02*
D03*
X131070Y364890D02*
D03*
X156070D02*
D03*
X181070D02*
D03*
D15*
X66070Y362640D02*
D03*
Y417140D02*
D03*
D16*
X96370Y365640D02*
D03*
Y414140D02*
D03*
D17*
X39370Y232420D02*
D03*
Y201920D02*
D03*
D22*
X544420Y143980D02*
D03*
X474420D02*
D03*
X404420D02*
D03*
X334420D02*
D03*
X264420D02*
D03*
X509420Y93980D02*
D03*
X439420D02*
D03*
X369420D02*
D03*
X299420D02*
D03*
X966370Y144950D02*
D03*
X896370D02*
D03*
X826370D02*
D03*
X756370D02*
D03*
X686370D02*
D03*
X931370Y94950D02*
D03*
X861370D02*
D03*
X791370D02*
D03*
X721370D02*
D03*
X233530Y624840D02*
D03*
X303530D02*
D03*
X373530D02*
D03*
X443530D02*
D03*
X513530D02*
D03*
X268530Y674840D02*
D03*
X338530D02*
D03*
X408530D02*
D03*
X478530D02*
D03*
X647960Y624370D02*
D03*
X717960D02*
D03*
X787960D02*
D03*
X857960D02*
D03*
X927960D02*
D03*
X682960Y674370D02*
D03*
X752960D02*
D03*
X822960D02*
D03*
X892960D02*
D03*
X48980Y104140D02*
D03*
X138980D02*
D03*
X44620Y662940D02*
D03*
X134620D02*
D03*
D23*
X229420Y93980D02*
D03*
X651370Y94950D02*
D03*
X548530Y674840D02*
D03*
X962960Y674370D02*
D03*
D29*
X64770Y292990D02*
D03*
Y486790D02*
D03*
X115570D02*
D03*
X553070Y364490D02*
D03*
Y389890D02*
D03*
X90170Y292990D02*
D03*
X140970D02*
D03*
X166370D02*
D03*
X191770D02*
D03*
X217170D02*
D03*
X267970D02*
D03*
X293370D02*
D03*
X318770D02*
D03*
X344170D02*
D03*
X394970D02*
D03*
X420370D02*
D03*
X445770D02*
D03*
X471170D02*
D03*
X521970D02*
D03*
X547370D02*
D03*
X115570D02*
D03*
X242570D02*
D03*
X369570D02*
D03*
X496570D02*
D03*
X90170Y486790D02*
D03*
X140970D02*
D03*
X166370D02*
D03*
X191770D02*
D03*
X217170D02*
D03*
X267970D02*
D03*
X293370D02*
D03*
X318770D02*
D03*
X344170D02*
D03*
X394970D02*
D03*
X420370D02*
D03*
X445770D02*
D03*
X471170D02*
D03*
X521970D02*
D03*
X547370D02*
D03*
X242570D02*
D03*
X369570D02*
D03*
X496570D02*
D03*
X553070Y415290D02*
D03*
D30*
X267970Y440690D02*
Y486790D01*
X171119Y431753D02*
X308502D01*
X129033Y473839D02*
X171119Y431753D01*
X308502D02*
X320087Y443338D01*
X217170Y455930D02*
X228600Y444500D01*
X292100Y294260D02*
X293370Y292990D01*
X292100Y294260D02*
Y332740D01*
X217170Y318390D02*
Y391160D01*
X170180Y548640D02*
X233530Y611990D01*
Y624840D01*
X154433Y504421D02*
X290178Y640166D01*
X228919Y560054D02*
X308744D01*
X166370Y497505D02*
X228919Y560054D01*
X205233Y504421D02*
X255024Y554212D01*
X191770Y292990D02*
X217170Y318390D01*
X166370Y282194D02*
X317246Y131318D01*
X140970Y282275D02*
X267578Y155667D01*
X197612Y210788D02*
X264420Y143980D01*
X193604Y210788D02*
X197612D01*
X129033Y275359D02*
X193604Y210788D01*
X95885Y213320D02*
X215225Y93980D01*
X87509Y132842D02*
Y196393D01*
X290178Y640166D02*
X294346D01*
X295530Y641350D01*
X267970Y273050D02*
Y292990D01*
Y273050D02*
X280670Y260350D01*
X230217Y636527D02*
X268530Y674840D01*
X49787Y636527D02*
X230217D01*
X26433Y613173D02*
X49787Y636527D01*
X26433Y224539D02*
Y613173D01*
Y224539D02*
X39370Y211602D01*
Y201920D02*
Y211602D01*
Y407286D02*
X64770Y432686D01*
X39370Y232420D02*
Y407286D01*
X64770Y432686D02*
Y523240D01*
X73660Y532130D01*
X408433Y240920D02*
Y302621D01*
X267131Y247911D02*
Y252299D01*
X372110Y455930D02*
Y458336D01*
X243205Y293625D02*
Y319405D01*
X523875Y390525D02*
X552435D01*
X408433Y240920D02*
X491998Y157355D01*
X42120Y201920D02*
X46465Y197575D01*
Y189155D02*
X68980Y166640D01*
X432307Y299251D02*
Y302621D01*
Y299251D02*
X436283Y295275D01*
X443485D01*
X445770Y292990D01*
X408480Y303068D02*
Y303078D01*
X420370Y292180D02*
X433833Y278717D01*
X408530Y643312D02*
Y674840D01*
X242570Y458470D02*
Y486790D01*
X114620Y600440D02*
X129033Y586027D01*
X320087Y443338D02*
Y485473D01*
X129033Y473839D02*
Y586027D01*
X318770Y486790D02*
X320087Y485473D01*
X131070Y364890D02*
X144780Y351180D01*
X85130Y213320D02*
X95885D01*
X81667Y139639D02*
Y193973D01*
X52408Y369227D02*
X63070Y379890D01*
X234393Y28953D02*
X299420Y93980D01*
X156070Y364890D02*
X174829Y346131D01*
Y336981D02*
X176530Y335280D01*
X174829Y336981D02*
Y346131D01*
X202769Y352221D02*
X204470Y350520D01*
X193739Y352221D02*
X202769D01*
X267131Y247911D02*
X371062Y143980D01*
X509420Y90817D02*
Y93980D01*
Y90817D02*
X517191Y83046D01*
Y43796D02*
Y83046D01*
X511956Y38561D02*
X517191Y43796D01*
X140970Y282275D02*
Y292990D01*
X280258Y155667D02*
X397364Y38561D01*
X267578Y155667D02*
X280258D01*
X224595Y251460D02*
X332075Y143980D01*
X369420Y93980D02*
Y127150D01*
X247650Y248920D02*
X369420Y127150D01*
X118980Y41640D02*
Y166640D01*
X166370Y282194D02*
Y292990D01*
X332075Y143980D02*
X334420D01*
X144780Y335280D02*
Y351180D01*
X222250Y251460D02*
X224595D01*
X293370Y236220D02*
Y292990D01*
Y236220D02*
X309880Y219710D01*
X371062Y143980D02*
X404420D01*
X181070Y364890D02*
X193739Y352221D01*
X265430Y254000D02*
X267131Y252299D01*
X217170Y307918D02*
X355600Y446348D01*
X356107Y502895D02*
X478052Y624840D01*
X355600Y446348D02*
Y450404D01*
X115570Y292990D02*
Y309880D01*
X101600Y323850D02*
X115570Y309880D01*
X85294Y399890D02*
X86731Y401327D01*
X370205Y262255D02*
Y292355D01*
X369570Y460876D02*
Y486790D01*
Y292990D02*
X370205Y292355D01*
X243205Y319405D02*
X243840Y320040D01*
X394970Y178369D02*
X508254Y65085D01*
Y47498D02*
Y65085D01*
X409301Y305614D02*
X409303Y305616D01*
X409301Y305611D02*
Y305614D01*
X413083Y310591D02*
X413084D01*
X408480Y303078D02*
X408482Y303079D01*
X420370Y292180D02*
Y292990D01*
X497919Y211273D02*
X760047D01*
X433833Y275359D02*
Y278717D01*
X496570Y292990D02*
Y323850D01*
X523240Y391160D02*
X523875Y390525D01*
X369570Y460876D02*
X372110Y458336D01*
X496570Y458470D02*
Y486790D01*
X471170Y455930D02*
Y486790D01*
X242570Y292990D02*
X243205Y293625D01*
X552435Y390525D02*
X553070Y389890D01*
X293370Y464820D02*
X311150Y447040D01*
X293370Y464820D02*
Y486790D01*
X115570Y452120D02*
Y486790D01*
X63070Y399890D02*
X85294D01*
X86731Y401327D02*
X103443D01*
X344170Y302260D02*
X361950Y320040D01*
X344170Y292990D02*
Y302260D01*
X90170Y486790D02*
Y506730D01*
X82550Y514350D02*
X90170Y506730D01*
X408916Y304594D02*
X409076Y305064D01*
X410071Y307205D02*
X410213Y307459D01*
X410489Y307903D01*
X410773Y308281D01*
X422012Y312927D02*
X422013Y312926D01*
X413084Y310591D02*
X413461Y310873D01*
X414271Y311339D01*
X414599Y311523D01*
X415246Y311847D01*
X415405Y311916D01*
X415771Y312066D01*
X416459Y312348D01*
X416964Y312516D01*
X417789Y312773D01*
X418295Y312880D01*
X418739Y312927D01*
X427661Y310587D02*
X429967Y308281D01*
X422013Y312926D02*
X422459Y312878D01*
X423220Y312681D01*
X423369Y312634D01*
X423982Y312436D01*
X424091Y312400D01*
X424450Y312278D01*
X425000Y312055D01*
X425481Y311855D01*
X425979Y311637D01*
X426585Y311289D01*
X426839Y311147D01*
X427284Y310870D01*
X427661Y310587D01*
X491998Y93980D02*
Y157355D01*
X429967Y308281D02*
X430257Y307894D01*
X430869Y306809D01*
X431204Y306152D01*
X431237Y306086D01*
X431285Y305975D01*
X410773Y308281D02*
Y308281D01*
X431285Y305975D02*
X431446Y305567D01*
X431693Y304942D01*
X431819Y304566D01*
X432152Y303575D01*
X408433Y302621D02*
X408480Y303068D01*
X432152Y303575D02*
X432258Y303079D01*
X432307Y302621D01*
X408482Y303079D02*
X408763Y304101D01*
X418739Y312927D02*
X422012D01*
X408763Y304101D02*
X408835Y304341D01*
X409506Y306102D02*
X409723Y306600D01*
X409723Y306600D02*
X410071Y307205D01*
X410773Y308281D02*
X413083Y310591D01*
X408835Y304341D02*
X408916Y304594D01*
X409303Y305616D02*
X409506Y306102D01*
X427661Y310587D02*
X427661D01*
X409076Y305064D02*
X409301Y305611D01*
X394970Y178369D02*
Y292990D01*
X433833Y275359D02*
X497919Y211273D01*
X824205Y217115D02*
X896370Y144950D01*
X536330Y217115D02*
X824205D01*
X471170Y282275D02*
Y292990D01*
Y282275D02*
X536330Y217115D01*
X521970Y486790D02*
X541907Y466853D01*
X770443D02*
X927960Y624370D01*
X541907Y466853D02*
X770443D01*
X745861Y512271D02*
X857960Y624370D01*
X457974Y503162D02*
X467083Y512271D01*
X745861D01*
X445770Y486790D02*
X457974Y498994D01*
Y503162D01*
X447525Y518113D02*
X698231D01*
X822960Y642842D02*
Y674370D01*
X433833Y500253D02*
Y504421D01*
X447525Y518113D01*
X394970Y495300D02*
X426720Y527050D01*
X673100D01*
X420370Y486790D02*
X433833Y500253D01*
X344805Y487425D02*
Y513715D01*
X345440Y514350D01*
X344170Y486790D02*
X344805Y487425D01*
X394970Y486790D02*
Y495300D01*
X355600Y450404D02*
X356107Y477159D01*
X217170Y292990D02*
Y307918D01*
X356107Y477159D02*
Y502895D01*
X217170Y455930D02*
Y486790D01*
X166370D02*
Y497505D01*
X154433Y501063D02*
Y504421D01*
X140970Y487600D02*
X154433Y501063D01*
X140970Y486790D02*
Y487600D01*
X78740Y323850D02*
X79007Y324117D01*
Y372827D02*
X96070Y389890D01*
X79007Y324117D02*
Y372827D01*
X215225Y93980D02*
X229420D01*
X83820Y214630D02*
X85130Y213320D01*
X63070Y379890D02*
Y379890D01*
X78572Y64106D02*
X113725Y28953D01*
X234393D01*
X112528Y322383D02*
X121612Y313299D01*
X124535Y312419D02*
X124538D01*
X129033Y275359D02*
Y307925D01*
X124229Y312547D02*
X124535Y312419D01*
X123301Y312927D02*
X124229Y312547D01*
X121612Y313299D02*
X123301Y312927D01*
X90170Y249682D02*
X107696Y232156D01*
X90170Y249682D02*
Y292990D01*
X52408Y223232D02*
Y369227D01*
Y223232D02*
X81667Y193973D01*
X78572Y64106D02*
Y136544D01*
X64770Y219132D02*
X87509Y196393D01*
X521970Y292990D02*
X541907Y312927D01*
X744921D01*
X931370Y126478D01*
Y94950D02*
Y126478D01*
X370205Y262255D02*
X370840Y261620D01*
X46465Y189155D02*
Y197575D01*
X39370Y201920D02*
X42120D01*
X308744Y560054D02*
X373530Y624840D01*
X319430Y554212D02*
X408530Y643312D01*
X191770Y487600D02*
X205233Y501063D01*
Y504421D01*
X191770Y486790D02*
Y487600D01*
X255024Y554212D02*
X319430D01*
X760047Y211273D02*
X826370Y144950D01*
X547370Y292990D02*
X569594D01*
X698231Y518113D02*
X822960Y642842D01*
X124538Y312419D02*
X129033Y307925D01*
X112528Y322383D02*
Y392243D01*
X103443Y401327D02*
X112528Y392243D01*
X78572Y136544D02*
X81667Y139639D01*
X478052Y624840D02*
X513530D01*
X397364Y38561D02*
X511956D01*
X64770Y219132D02*
Y292990D01*
X924488Y674370D02*
X962960D01*
X736908Y486790D02*
X924488Y674370D01*
X547370Y486790D02*
X736908D01*
X356996Y331216D02*
X446024D01*
X318770Y292990D02*
X356996Y331216D01*
X418739Y312927D02*
X418739Y312927D01*
D31*
X68980Y41640D02*
D03*
Y166640D02*
D03*
X118980Y41640D02*
D03*
X64620Y600440D02*
D03*
Y725440D02*
D03*
X114620Y600440D02*
D03*
D32*
X118980Y166640D02*
D03*
X114620Y725440D02*
D03*
D33*
X267970Y440690D02*
D03*
X228600Y444500D02*
D03*
X217170Y391160D02*
D03*
X280670Y260350D02*
D03*
X295530Y641350D02*
D03*
X73660Y532130D02*
D03*
X317246Y131318D02*
D03*
X361950Y320040D02*
D03*
X82550Y514350D02*
D03*
X471170Y455930D02*
D03*
X673100Y527050D02*
D03*
X345440Y514350D02*
D03*
X311150Y447040D02*
D03*
X569594Y292990D02*
D03*
X87509Y132842D02*
D03*
X446024Y331216D02*
D03*
X107696Y232156D02*
D03*
X508254Y47498D02*
D03*
X491998Y93980D02*
D03*
D34*
X292100Y332740D02*
D03*
X170180Y548640D02*
D03*
X242570Y458470D02*
D03*
X247650Y248920D02*
D03*
X176530Y335280D02*
D03*
X222250Y251460D02*
D03*
X144780Y335280D02*
D03*
X309880Y219710D02*
D03*
X204470Y350520D02*
D03*
X265430Y254000D02*
D03*
X243840Y320040D02*
D03*
X496570Y458470D02*
D03*
X372110Y455930D02*
D03*
X523240Y391160D02*
D03*
X496570Y323850D02*
D03*
X370840Y261620D02*
D03*
X101600Y323850D02*
D03*
X115570Y452120D02*
D03*
X83820Y214630D02*
D03*
X78740Y323850D02*
D03*
M02*
