M48
;Layer_Color=9868419
;FILE_FORMAT=4:4
METRIC,LZ
;TYPE=PLATED
T01F00S00C0.5000
T02F00S00C0.7112
T03F00S00C1.0000
T04F00S00C1.2500
;TYPE=NON_PLATED
T05F00S00C1.8500
%
T01
X00569594Y0029299
X0036195Y0032004
X0028067Y0026035
X00317246Y00131318
X00491998Y0009398
X00508254Y00047498
X00087509Y00132842
X00107696Y00232156
X0008255Y0051435
X0007366Y0053213
X002286Y004445
X0026797Y0044069
X0031115Y0044704
X0034544Y0051435
X0029553Y0064135
X0021717Y0039116
X00446024Y00331216
X0047117Y0045593
X006731Y0052705
T02
X0022225Y0025146
X0024765Y0024892
X0026543Y00254
X0030988Y0021971
X0037084Y0026162
X0024384Y0032004
X0049657Y0032385
X001016
X0007874
X0008382Y0021463
X0011557Y0045212
X0024257Y0045847
X0037211Y0045593
X0049657Y0045847
X0052324Y0039116
X002921Y0033274
X0020447Y0035052
X0017653Y0033528
X0014478
X0017018Y0054864
T03
X0096637Y0014495
X0089637
X0082637
X0075637
X0068637
X0072137Y0009495
X0079137
X0086137
X0093137
X0065137
X0054442Y0014398
X0047442
X0040442
X0033442
X0026442
X0029942Y0009398
X0022942
X0036942
X0043942
X0050942
X0051353Y0062484
X0044353
X0037353
X0030353
X0023353
X0026853Y0067484
X0033853
X0040853
X0047853
X0054853
X0068296Y0067437
X0075296
X0082296
X0089296
X0085796Y0062437
X0092796
X0078796
X0071796
X0064796
X0096296Y0067437
T04
X0006898Y0004164
X0011898
Y0016664
X0006898
X0006462Y0060044
X0011462
Y0072544
X0006462
T05
X0004898Y0010414
X0013898
X0013462Y0066294
X0004462
M30
