G04*
G04 #@! TF.GenerationSoftware,Altium Limited,Altium Designer,24.1.2 (44)*
G04*
G04 Layer_Color=8616805*
%FSLAX44Y44*%
%MOMM*%
G71*
G04*
G04 #@! TF.SameCoordinates,B28CFC15-B4C6-47B7-BC68-1C9BB1E78066*
G04*
G04*
G04 #@! TF.FilePolarity,Positive*
G04*
G01*
G75*
%ADD22C,1.5500*%
%ADD23R,1.5500X1.5500*%
%ADD31C,1.7500*%
%ADD32R,1.7500X1.7500*%
D22*
X544420Y143980D02*
D03*
X474420D02*
D03*
X404420D02*
D03*
X334420D02*
D03*
X264420D02*
D03*
X509420Y93980D02*
D03*
X439420D02*
D03*
X369420D02*
D03*
X299420D02*
D03*
X966370Y144950D02*
D03*
X896370D02*
D03*
X826370D02*
D03*
X756370D02*
D03*
X686370D02*
D03*
X931370Y94950D02*
D03*
X861370D02*
D03*
X791370D02*
D03*
X721370D02*
D03*
X233530Y624840D02*
D03*
X303530D02*
D03*
X373530D02*
D03*
X443530D02*
D03*
X513530D02*
D03*
X268530Y674840D02*
D03*
X338530D02*
D03*
X408530D02*
D03*
X478530D02*
D03*
X647960Y624370D02*
D03*
X717960D02*
D03*
X787960D02*
D03*
X857960D02*
D03*
X927960D02*
D03*
X682960Y674370D02*
D03*
X752960D02*
D03*
X822960D02*
D03*
X892960D02*
D03*
X48980Y104140D02*
D03*
X138980D02*
D03*
X44620Y662940D02*
D03*
X134620D02*
D03*
D23*
X229420Y93980D02*
D03*
X651370Y94950D02*
D03*
X548530Y674840D02*
D03*
X962960Y674370D02*
D03*
D31*
X68980Y41640D02*
D03*
Y166640D02*
D03*
X118980Y41640D02*
D03*
X64620Y600440D02*
D03*
Y725440D02*
D03*
X114620Y600440D02*
D03*
D32*
X118980Y166640D02*
D03*
X114620Y725440D02*
D03*
M02*
