G04*
G04 #@! TF.GenerationSoftware,Altium Limited,Altium Designer,24.1.2 (44)*
G04*
G04 Layer_Color=32768*
%FSLAX44Y44*%
%MOMM*%
G71*
G04*
G04 #@! TF.SameCoordinates,B28CFC15-B4C6-47B7-BC68-1C9BB1E78066*
G04*
G04*
G04 #@! TF.FilePolarity,Positive*
G04*
G01*
G75*
%ADD10C,0.2000*%
%ADD35C,0.1000*%
%ADD36C,0.0500*%
D10*
X194920Y45230D02*
Y168730D01*
Y45230D02*
X563920D01*
Y168730D01*
X194920D02*
X563920D01*
X616870Y46200D02*
Y169700D01*
Y46200D02*
X985870D01*
Y169700D01*
X616870D02*
X985870D01*
X583030Y600090D02*
Y723590D01*
X214030D02*
X583030D01*
X214030Y600090D02*
Y723590D01*
Y600090D02*
X583030D01*
X997460Y599620D02*
Y723120D01*
X628460D02*
X997460D01*
X628460Y599620D02*
Y723120D01*
Y599620D02*
X997460D01*
D35*
X93980Y99140D02*
Y109140D01*
X88980Y104140D02*
X98980D01*
X39370Y212170D02*
Y222170D01*
X34370Y217170D02*
X44370D01*
X89620Y657940D02*
Y667940D01*
X84620Y662940D02*
X94620D01*
D36*
X35570Y274490D02*
X571570D01*
Y505290D01*
X35570D02*
X571570D01*
X35570Y274490D02*
Y505290D01*
X32980Y176390D02*
X154980D01*
Y31890D02*
Y176390D01*
X32980Y31890D02*
X154980D01*
X32980D02*
Y176390D01*
X25370Y243670D02*
X53370D01*
X25370Y190670D02*
X53370D01*
Y243670D01*
X25370Y190670D02*
Y243670D01*
X28620Y735190D02*
X150620D01*
Y590690D02*
Y735190D01*
X28620Y590690D02*
X150620D01*
X28620D02*
Y735190D01*
M02*
