G04*
G04 #@! TF.GenerationSoftware,Altium Limited,Altium Designer,24.1.2 (44)*
G04*
G04 Layer_Color=13798182*
%FSLAX44Y44*%
%MOMM*%
G71*
G04*
G04 #@! TF.SameCoordinates,B28CFC15-B4C6-47B7-BC68-1C9BB1E78066*
G04*
G04*
G04 #@! TF.FilePolarity,Negative*
G04*
G01*
G75*
G04:AMPARAMS|DCode=18|XSize=1.7032mm|YSize=1.7032mm|CornerRadius=0.4016mm|HoleSize=0mm|Usage=FLASHONLY|Rotation=90.000|XOffset=0mm|YOffset=0mm|HoleType=Round|Shape=RoundedRectangle|*
%AMROUNDEDRECTD18*
21,1,1.7032,0.9000,0,0,90.0*
21,1,0.9000,1.7032,0,0,90.0*
1,1,0.8032,0.4500,0.4500*
1,1,0.8032,0.4500,-0.4500*
1,1,0.8032,-0.4500,-0.4500*
1,1,0.8032,-0.4500,0.4500*
%
%ADD18ROUNDEDRECTD18*%
%ADD19O,2.0032X1.3032*%
%ADD20O,1.6532X1.2532*%
%ADD21R,2.0032X1.4532*%
%ADD22C,1.5500*%
%ADD23R,1.5500X1.5500*%
%ADD24C,1.9532*%
%ADD25R,1.9532X1.9532*%
%ADD26C,1.7532*%
%ADD27C,1.2032*%
%ADD28C,1.4732*%
G36*
X556370Y478790D02*
X556360Y478320D01*
X556320Y477850D01*
X556260Y477380D01*
X556170Y476920D01*
X556060Y476460D01*
X555930Y476010D01*
X555770Y475560D01*
X555590Y475130D01*
X555390Y474700D01*
X555160Y474290D01*
X554920Y473890D01*
X554650Y473500D01*
X554360Y473130D01*
X554060Y472770D01*
X553730Y472430D01*
X553390Y472100D01*
X553030Y471800D01*
X552660Y471510D01*
X552270Y471240D01*
X551870Y471000D01*
X551460Y470770D01*
X551030Y470570D01*
X550600Y470390D01*
X550150Y470230D01*
X549700Y470100D01*
X549240Y469990D01*
X548780Y469900D01*
X548310Y469840D01*
X547840Y469800D01*
X547370Y469790D01*
X546900Y469800D01*
X546430Y469840D01*
X545960Y469900D01*
X545500Y469990D01*
X545040Y470100D01*
X544590Y470230D01*
X544140Y470390D01*
X543710Y470570D01*
X543280Y470770D01*
X542870Y471000D01*
X542470Y471240D01*
X542080Y471510D01*
X541710Y471800D01*
X541350Y472100D01*
X541010Y472430D01*
X540680Y472770D01*
X540380Y473130D01*
X540090Y473500D01*
X539820Y473890D01*
X539580Y474290D01*
X539350Y474700D01*
X539150Y475130D01*
X538970Y475560D01*
X538810Y476010D01*
X538680Y476460D01*
X538570Y476920D01*
X538480Y477380D01*
X538420Y477850D01*
X538380Y478320D01*
X538370Y478790D01*
Y503790D01*
X556370D01*
Y478790D01*
D02*
G37*
G36*
X530970D02*
X530960Y478320D01*
X530920Y477850D01*
X530860Y477380D01*
X530770Y476920D01*
X530660Y476460D01*
X530530Y476010D01*
X530370Y475560D01*
X530190Y475130D01*
X529990Y474700D01*
X529760Y474290D01*
X529520Y473890D01*
X529250Y473500D01*
X528960Y473130D01*
X528660Y472770D01*
X528330Y472430D01*
X527990Y472100D01*
X527630Y471800D01*
X527260Y471510D01*
X526870Y471240D01*
X526470Y471000D01*
X526060Y470770D01*
X525630Y470570D01*
X525200Y470390D01*
X524750Y470230D01*
X524300Y470100D01*
X523840Y469990D01*
X523380Y469900D01*
X522910Y469840D01*
X522440Y469800D01*
X521970Y469790D01*
X521500Y469800D01*
X521030Y469840D01*
X520560Y469900D01*
X520100Y469990D01*
X519640Y470100D01*
X519190Y470230D01*
X518740Y470390D01*
X518310Y470570D01*
X517880Y470770D01*
X517470Y471000D01*
X517070Y471240D01*
X516680Y471510D01*
X516310Y471800D01*
X515950Y472100D01*
X515610Y472430D01*
X515280Y472770D01*
X514980Y473130D01*
X514690Y473500D01*
X514420Y473890D01*
X514180Y474290D01*
X513950Y474700D01*
X513750Y475130D01*
X513570Y475560D01*
X513410Y476010D01*
X513280Y476460D01*
X513170Y476920D01*
X513080Y477380D01*
X513020Y477850D01*
X512980Y478320D01*
X512970Y478790D01*
Y503790D01*
X530970D01*
Y478790D01*
D02*
G37*
G36*
X505570Y472630D02*
X505550Y472480D01*
X505530Y472320D01*
X505500Y472170D01*
X505470Y472010D01*
X505420Y471860D01*
X505370Y471710D01*
X505310Y471570D01*
X505240Y471430D01*
X505170Y471290D01*
X505090Y471160D01*
X505000Y471030D01*
X504900Y470900D01*
X504800Y470780D01*
X504690Y470670D01*
X504580Y470560D01*
X504460Y470460D01*
X504330Y470360D01*
X504200Y470270D01*
X504070Y470190D01*
X503930Y470120D01*
X503790Y470050D01*
X503650Y469990D01*
X503500Y469940D01*
X503350Y469890D01*
X503190Y469860D01*
X503040Y469830D01*
X502880Y469810D01*
X502730Y469790D01*
X490410D01*
X490260Y469810D01*
X490100Y469830D01*
X489950Y469860D01*
X489790Y469890D01*
X489640Y469940D01*
X489490Y469990D01*
X489350Y470050D01*
X489210Y470120D01*
X489070Y470190D01*
X488940Y470270D01*
X488810Y470360D01*
X488680Y470460D01*
X488560Y470560D01*
X488450Y470670D01*
X488340Y470780D01*
X488240Y470900D01*
X488140Y471030D01*
X488050Y471160D01*
X487970Y471290D01*
X487900Y471430D01*
X487830Y471570D01*
X487770Y471710D01*
X487720Y471860D01*
X487670Y472010D01*
X487640Y472170D01*
X487610Y472320D01*
X487590Y472480D01*
X487570Y472630D01*
Y503790D01*
X505570D01*
Y472630D01*
D02*
G37*
G36*
X480170Y478790D02*
X480160Y478320D01*
X480120Y477850D01*
X480060Y477380D01*
X479970Y476920D01*
X479860Y476460D01*
X479730Y476010D01*
X479570Y475560D01*
X479390Y475130D01*
X479190Y474700D01*
X478960Y474290D01*
X478720Y473890D01*
X478450Y473500D01*
X478160Y473130D01*
X477860Y472770D01*
X477530Y472430D01*
X477190Y472100D01*
X476830Y471800D01*
X476460Y471510D01*
X476070Y471240D01*
X475670Y471000D01*
X475260Y470770D01*
X474830Y470570D01*
X474400Y470390D01*
X473950Y470230D01*
X473500Y470100D01*
X473040Y469990D01*
X472580Y469900D01*
X472110Y469840D01*
X471640Y469800D01*
X471170Y469790D01*
X470700Y469800D01*
X470230Y469840D01*
X469760Y469900D01*
X469300Y469990D01*
X468840Y470100D01*
X468390Y470230D01*
X467940Y470390D01*
X467510Y470570D01*
X467080Y470770D01*
X466670Y471000D01*
X466270Y471240D01*
X465880Y471510D01*
X465510Y471800D01*
X465150Y472100D01*
X464810Y472430D01*
X464480Y472770D01*
X464180Y473130D01*
X463890Y473500D01*
X463620Y473890D01*
X463380Y474290D01*
X463150Y474700D01*
X462950Y475130D01*
X462770Y475560D01*
X462610Y476010D01*
X462480Y476460D01*
X462370Y476920D01*
X462280Y477380D01*
X462220Y477850D01*
X462180Y478320D01*
X462170Y478790D01*
Y503790D01*
X480170D01*
Y478790D01*
D02*
G37*
G36*
X454770D02*
X454760Y478320D01*
X454720Y477850D01*
X454660Y477380D01*
X454570Y476920D01*
X454460Y476460D01*
X454330Y476010D01*
X454170Y475560D01*
X453990Y475130D01*
X453790Y474700D01*
X453560Y474290D01*
X453320Y473890D01*
X453050Y473500D01*
X452760Y473130D01*
X452460Y472770D01*
X452130Y472430D01*
X451790Y472100D01*
X451430Y471800D01*
X451060Y471510D01*
X450670Y471240D01*
X450270Y471000D01*
X449860Y470770D01*
X449430Y470570D01*
X449000Y470390D01*
X448550Y470230D01*
X448100Y470100D01*
X447640Y469990D01*
X447180Y469900D01*
X446710Y469840D01*
X446240Y469800D01*
X445770Y469790D01*
X445300Y469800D01*
X444830Y469840D01*
X444360Y469900D01*
X443900Y469990D01*
X443440Y470100D01*
X442990Y470230D01*
X442540Y470390D01*
X442110Y470570D01*
X441680Y470770D01*
X441270Y471000D01*
X440870Y471240D01*
X440480Y471510D01*
X440110Y471800D01*
X439750Y472100D01*
X439410Y472430D01*
X439080Y472770D01*
X438780Y473130D01*
X438490Y473500D01*
X438220Y473890D01*
X437980Y474290D01*
X437750Y474700D01*
X437550Y475130D01*
X437370Y475560D01*
X437210Y476010D01*
X437080Y476460D01*
X436970Y476920D01*
X436880Y477380D01*
X436820Y477850D01*
X436780Y478320D01*
X436770Y478790D01*
Y503790D01*
X454770D01*
Y478790D01*
D02*
G37*
G36*
X429370D02*
X429360Y478320D01*
X429320Y477850D01*
X429260Y477380D01*
X429170Y476920D01*
X429060Y476460D01*
X428930Y476010D01*
X428770Y475560D01*
X428590Y475130D01*
X428390Y474700D01*
X428160Y474290D01*
X427920Y473890D01*
X427650Y473500D01*
X427360Y473130D01*
X427060Y472770D01*
X426730Y472430D01*
X426390Y472100D01*
X426030Y471800D01*
X425660Y471510D01*
X425270Y471240D01*
X424870Y471000D01*
X424460Y470770D01*
X424030Y470570D01*
X423600Y470390D01*
X423150Y470230D01*
X422700Y470100D01*
X422240Y469990D01*
X421780Y469900D01*
X421310Y469840D01*
X420840Y469800D01*
X420370Y469790D01*
X419900Y469800D01*
X419430Y469840D01*
X418960Y469900D01*
X418500Y469990D01*
X418040Y470100D01*
X417590Y470230D01*
X417140Y470390D01*
X416710Y470570D01*
X416280Y470770D01*
X415870Y471000D01*
X415470Y471240D01*
X415080Y471510D01*
X414710Y471800D01*
X414350Y472100D01*
X414010Y472430D01*
X413680Y472770D01*
X413380Y473130D01*
X413090Y473500D01*
X412820Y473890D01*
X412580Y474290D01*
X412350Y474700D01*
X412150Y475130D01*
X411970Y475560D01*
X411810Y476010D01*
X411680Y476460D01*
X411570Y476920D01*
X411480Y477380D01*
X411420Y477850D01*
X411380Y478320D01*
X411370Y478790D01*
Y503790D01*
X429370D01*
Y478790D01*
D02*
G37*
G36*
X403970D02*
X403960Y478320D01*
X403920Y477850D01*
X403860Y477380D01*
X403770Y476920D01*
X403660Y476460D01*
X403530Y476010D01*
X403370Y475560D01*
X403190Y475130D01*
X402990Y474700D01*
X402760Y474290D01*
X402520Y473890D01*
X402250Y473500D01*
X401960Y473130D01*
X401660Y472770D01*
X401330Y472430D01*
X400990Y472100D01*
X400630Y471800D01*
X400260Y471510D01*
X399870Y471240D01*
X399470Y471000D01*
X399060Y470770D01*
X398630Y470570D01*
X398200Y470390D01*
X397750Y470230D01*
X397300Y470100D01*
X396840Y469990D01*
X396380Y469900D01*
X395910Y469840D01*
X395440Y469800D01*
X394970Y469790D01*
X394500Y469800D01*
X394030Y469840D01*
X393560Y469900D01*
X393100Y469990D01*
X392640Y470100D01*
X392190Y470230D01*
X391740Y470390D01*
X391310Y470570D01*
X390880Y470770D01*
X390470Y471000D01*
X390070Y471240D01*
X389680Y471510D01*
X389310Y471800D01*
X388950Y472100D01*
X388610Y472430D01*
X388280Y472770D01*
X387980Y473130D01*
X387690Y473500D01*
X387420Y473890D01*
X387180Y474290D01*
X386950Y474700D01*
X386750Y475130D01*
X386570Y475560D01*
X386410Y476010D01*
X386280Y476460D01*
X386170Y476920D01*
X386080Y477380D01*
X386020Y477850D01*
X385980Y478320D01*
X385970Y478790D01*
Y503790D01*
X403970D01*
Y478790D01*
D02*
G37*
G36*
X378570Y472630D02*
X378550Y472480D01*
X378530Y472320D01*
X378500Y472170D01*
X378470Y472010D01*
X378420Y471860D01*
X378370Y471710D01*
X378310Y471570D01*
X378240Y471430D01*
X378170Y471290D01*
X378090Y471160D01*
X378000Y471030D01*
X377900Y470900D01*
X377800Y470780D01*
X377690Y470670D01*
X377580Y470560D01*
X377460Y470460D01*
X377330Y470360D01*
X377200Y470270D01*
X377070Y470190D01*
X376930Y470120D01*
X376790Y470050D01*
X376650Y469990D01*
X376500Y469940D01*
X376350Y469890D01*
X376190Y469860D01*
X376040Y469830D01*
X375880Y469810D01*
X375730Y469790D01*
X363410D01*
X363260Y469810D01*
X363100Y469830D01*
X362950Y469860D01*
X362790Y469890D01*
X362640Y469940D01*
X362490Y469990D01*
X362350Y470050D01*
X362210Y470120D01*
X362070Y470190D01*
X361940Y470270D01*
X361810Y470360D01*
X361680Y470460D01*
X361560Y470560D01*
X361450Y470670D01*
X361340Y470780D01*
X361240Y470900D01*
X361140Y471030D01*
X361050Y471160D01*
X360970Y471290D01*
X360900Y471430D01*
X360830Y471570D01*
X360770Y471710D01*
X360720Y471860D01*
X360670Y472010D01*
X360640Y472170D01*
X360610Y472320D01*
X360590Y472480D01*
X360570Y472630D01*
Y503790D01*
X378570D01*
Y472630D01*
D02*
G37*
G36*
X353170Y478790D02*
X353160Y478320D01*
X353120Y477850D01*
X353060Y477380D01*
X352970Y476920D01*
X352860Y476460D01*
X352730Y476010D01*
X352570Y475560D01*
X352390Y475130D01*
X352190Y474700D01*
X351960Y474290D01*
X351720Y473890D01*
X351450Y473500D01*
X351160Y473130D01*
X350860Y472770D01*
X350530Y472430D01*
X350190Y472100D01*
X349830Y471800D01*
X349460Y471510D01*
X349070Y471240D01*
X348670Y471000D01*
X348260Y470770D01*
X347830Y470570D01*
X347400Y470390D01*
X346950Y470230D01*
X346500Y470100D01*
X346040Y469990D01*
X345580Y469900D01*
X345110Y469840D01*
X344640Y469800D01*
X344170Y469790D01*
X343700Y469800D01*
X343230Y469840D01*
X342760Y469900D01*
X342300Y469990D01*
X341840Y470100D01*
X341390Y470230D01*
X340940Y470390D01*
X340510Y470570D01*
X340080Y470770D01*
X339670Y471000D01*
X339270Y471240D01*
X338880Y471510D01*
X338510Y471800D01*
X338150Y472100D01*
X337810Y472430D01*
X337480Y472770D01*
X337180Y473130D01*
X336890Y473500D01*
X336620Y473890D01*
X336380Y474290D01*
X336150Y474700D01*
X335950Y475130D01*
X335770Y475560D01*
X335610Y476010D01*
X335480Y476460D01*
X335370Y476920D01*
X335280Y477380D01*
X335220Y477850D01*
X335180Y478320D01*
X335170Y478790D01*
Y503790D01*
X353170D01*
Y478790D01*
D02*
G37*
G36*
X327770D02*
X327760Y478320D01*
X327720Y477850D01*
X327660Y477380D01*
X327570Y476920D01*
X327460Y476460D01*
X327330Y476010D01*
X327170Y475560D01*
X326990Y475130D01*
X326790Y474700D01*
X326560Y474290D01*
X326320Y473890D01*
X326050Y473500D01*
X325760Y473130D01*
X325460Y472770D01*
X325130Y472430D01*
X324790Y472100D01*
X324430Y471800D01*
X324060Y471510D01*
X323670Y471240D01*
X323270Y471000D01*
X322860Y470770D01*
X322430Y470570D01*
X322000Y470390D01*
X321550Y470230D01*
X321100Y470100D01*
X320640Y469990D01*
X320180Y469900D01*
X319710Y469840D01*
X319240Y469800D01*
X318770Y469790D01*
X318300Y469800D01*
X317830Y469840D01*
X317360Y469900D01*
X316900Y469990D01*
X316440Y470100D01*
X315990Y470230D01*
X315540Y470390D01*
X315110Y470570D01*
X314680Y470770D01*
X314270Y471000D01*
X313870Y471240D01*
X313480Y471510D01*
X313110Y471800D01*
X312750Y472100D01*
X312410Y472430D01*
X312080Y472770D01*
X311780Y473130D01*
X311490Y473500D01*
X311220Y473890D01*
X310980Y474290D01*
X310750Y474700D01*
X310550Y475130D01*
X310370Y475560D01*
X310210Y476010D01*
X310080Y476460D01*
X309970Y476920D01*
X309880Y477380D01*
X309820Y477850D01*
X309780Y478320D01*
X309770Y478790D01*
Y503790D01*
X327770D01*
Y478790D01*
D02*
G37*
G36*
X302370D02*
X302360Y478320D01*
X302320Y477850D01*
X302260Y477380D01*
X302170Y476920D01*
X302060Y476460D01*
X301930Y476010D01*
X301770Y475560D01*
X301590Y475130D01*
X301390Y474700D01*
X301160Y474290D01*
X300920Y473890D01*
X300650Y473500D01*
X300360Y473130D01*
X300060Y472770D01*
X299730Y472430D01*
X299390Y472100D01*
X299030Y471800D01*
X298660Y471510D01*
X298270Y471240D01*
X297870Y471000D01*
X297460Y470770D01*
X297030Y470570D01*
X296600Y470390D01*
X296150Y470230D01*
X295700Y470100D01*
X295240Y469990D01*
X294780Y469900D01*
X294310Y469840D01*
X293840Y469800D01*
X293370Y469790D01*
X292900Y469800D01*
X292430Y469840D01*
X291960Y469900D01*
X291500Y469990D01*
X291040Y470100D01*
X290590Y470230D01*
X290140Y470390D01*
X289710Y470570D01*
X289280Y470770D01*
X288870Y471000D01*
X288470Y471240D01*
X288080Y471510D01*
X287710Y471800D01*
X287350Y472100D01*
X287010Y472430D01*
X286680Y472770D01*
X286380Y473130D01*
X286090Y473500D01*
X285820Y473890D01*
X285580Y474290D01*
X285350Y474700D01*
X285150Y475130D01*
X284970Y475560D01*
X284810Y476010D01*
X284680Y476460D01*
X284570Y476920D01*
X284480Y477380D01*
X284420Y477850D01*
X284380Y478320D01*
X284370Y478790D01*
Y503790D01*
X302370D01*
Y478790D01*
D02*
G37*
G36*
X276970D02*
X276960Y478320D01*
X276920Y477850D01*
X276860Y477380D01*
X276770Y476920D01*
X276660Y476460D01*
X276530Y476010D01*
X276370Y475560D01*
X276190Y475130D01*
X275990Y474700D01*
X275760Y474290D01*
X275520Y473890D01*
X275250Y473500D01*
X274960Y473130D01*
X274660Y472770D01*
X274330Y472430D01*
X273990Y472100D01*
X273630Y471800D01*
X273260Y471510D01*
X272870Y471240D01*
X272470Y471000D01*
X272060Y470770D01*
X271630Y470570D01*
X271200Y470390D01*
X270750Y470230D01*
X270300Y470100D01*
X269840Y469990D01*
X269380Y469900D01*
X268910Y469840D01*
X268440Y469800D01*
X267970Y469790D01*
X267500Y469800D01*
X267030Y469840D01*
X266560Y469900D01*
X266100Y469990D01*
X265640Y470100D01*
X265190Y470230D01*
X264740Y470390D01*
X264310Y470570D01*
X263880Y470770D01*
X263470Y471000D01*
X263070Y471240D01*
X262680Y471510D01*
X262310Y471800D01*
X261950Y472100D01*
X261610Y472430D01*
X261280Y472770D01*
X260980Y473130D01*
X260690Y473500D01*
X260420Y473890D01*
X260180Y474290D01*
X259950Y474700D01*
X259750Y475130D01*
X259570Y475560D01*
X259410Y476010D01*
X259280Y476460D01*
X259170Y476920D01*
X259080Y477380D01*
X259020Y477850D01*
X258980Y478320D01*
X258970Y478790D01*
Y503790D01*
X276970D01*
Y478790D01*
D02*
G37*
G36*
X251570Y472630D02*
X251550Y472480D01*
X251530Y472320D01*
X251500Y472170D01*
X251470Y472010D01*
X251420Y471860D01*
X251370Y471710D01*
X251310Y471570D01*
X251240Y471430D01*
X251170Y471290D01*
X251090Y471160D01*
X251000Y471030D01*
X250900Y470900D01*
X250800Y470780D01*
X250690Y470670D01*
X250580Y470560D01*
X250460Y470460D01*
X250330Y470360D01*
X250200Y470270D01*
X250070Y470190D01*
X249930Y470120D01*
X249790Y470050D01*
X249650Y469990D01*
X249500Y469940D01*
X249350Y469890D01*
X249190Y469860D01*
X249040Y469830D01*
X248880Y469810D01*
X248730Y469790D01*
X236410D01*
X236260Y469810D01*
X236100Y469830D01*
X235950Y469860D01*
X235790Y469890D01*
X235640Y469940D01*
X235490Y469990D01*
X235350Y470050D01*
X235210Y470120D01*
X235070Y470190D01*
X234940Y470270D01*
X234810Y470360D01*
X234680Y470460D01*
X234560Y470560D01*
X234450Y470670D01*
X234340Y470780D01*
X234240Y470900D01*
X234140Y471030D01*
X234050Y471160D01*
X233970Y471290D01*
X233900Y471430D01*
X233830Y471570D01*
X233770Y471710D01*
X233720Y471860D01*
X233670Y472010D01*
X233640Y472170D01*
X233610Y472320D01*
X233590Y472480D01*
X233570Y472630D01*
Y503790D01*
X251570D01*
Y472630D01*
D02*
G37*
G36*
X226170Y478790D02*
X226160Y478320D01*
X226120Y477850D01*
X226060Y477380D01*
X225970Y476920D01*
X225860Y476460D01*
X225730Y476010D01*
X225570Y475560D01*
X225390Y475130D01*
X225190Y474700D01*
X224960Y474290D01*
X224720Y473890D01*
X224450Y473500D01*
X224160Y473130D01*
X223860Y472770D01*
X223530Y472430D01*
X223190Y472100D01*
X222830Y471800D01*
X222460Y471510D01*
X222070Y471240D01*
X221670Y471000D01*
X221260Y470770D01*
X220830Y470570D01*
X220400Y470390D01*
X219950Y470230D01*
X219500Y470100D01*
X219040Y469990D01*
X218580Y469900D01*
X218110Y469840D01*
X217640Y469800D01*
X217170Y469790D01*
X216700Y469800D01*
X216230Y469840D01*
X215760Y469900D01*
X215300Y469990D01*
X214840Y470100D01*
X214390Y470230D01*
X213940Y470390D01*
X213510Y470570D01*
X213080Y470770D01*
X212670Y471000D01*
X212270Y471240D01*
X211880Y471510D01*
X211510Y471800D01*
X211150Y472100D01*
X210810Y472430D01*
X210480Y472770D01*
X210180Y473130D01*
X209890Y473500D01*
X209620Y473890D01*
X209380Y474290D01*
X209150Y474700D01*
X208950Y475130D01*
X208770Y475560D01*
X208610Y476010D01*
X208480Y476460D01*
X208370Y476920D01*
X208280Y477380D01*
X208220Y477850D01*
X208180Y478320D01*
X208170Y478790D01*
Y503790D01*
X226170D01*
Y478790D01*
D02*
G37*
G36*
X200770D02*
X200760Y478320D01*
X200720Y477850D01*
X200660Y477380D01*
X200570Y476920D01*
X200460Y476460D01*
X200330Y476010D01*
X200170Y475560D01*
X199990Y475130D01*
X199790Y474700D01*
X199560Y474290D01*
X199320Y473890D01*
X199050Y473500D01*
X198760Y473130D01*
X198460Y472770D01*
X198130Y472430D01*
X197790Y472100D01*
X197430Y471800D01*
X197060Y471510D01*
X196670Y471240D01*
X196270Y471000D01*
X195860Y470770D01*
X195430Y470570D01*
X195000Y470390D01*
X194550Y470230D01*
X194100Y470100D01*
X193640Y469990D01*
X193180Y469900D01*
X192710Y469840D01*
X192240Y469800D01*
X191770Y469790D01*
X191300Y469800D01*
X190830Y469840D01*
X190360Y469900D01*
X189900Y469990D01*
X189440Y470100D01*
X188990Y470230D01*
X188540Y470390D01*
X188110Y470570D01*
X187680Y470770D01*
X187270Y471000D01*
X186870Y471240D01*
X186480Y471510D01*
X186110Y471800D01*
X185750Y472100D01*
X185410Y472430D01*
X185080Y472770D01*
X184780Y473130D01*
X184490Y473500D01*
X184220Y473890D01*
X183980Y474290D01*
X183750Y474700D01*
X183550Y475130D01*
X183370Y475560D01*
X183210Y476010D01*
X183080Y476460D01*
X182970Y476920D01*
X182880Y477380D01*
X182820Y477850D01*
X182780Y478320D01*
X182770Y478790D01*
Y503790D01*
X200770D01*
Y478790D01*
D02*
G37*
G36*
X175370D02*
X175360Y478320D01*
X175320Y477850D01*
X175260Y477380D01*
X175170Y476920D01*
X175060Y476460D01*
X174930Y476010D01*
X174770Y475560D01*
X174590Y475130D01*
X174390Y474700D01*
X174160Y474290D01*
X173920Y473890D01*
X173650Y473500D01*
X173360Y473130D01*
X173060Y472770D01*
X172730Y472430D01*
X172390Y472100D01*
X172030Y471800D01*
X171660Y471510D01*
X171270Y471240D01*
X170870Y471000D01*
X170460Y470770D01*
X170030Y470570D01*
X169600Y470390D01*
X169150Y470230D01*
X168700Y470100D01*
X168240Y469990D01*
X167780Y469900D01*
X167310Y469840D01*
X166840Y469800D01*
X166370Y469790D01*
X165900Y469800D01*
X165430Y469840D01*
X164960Y469900D01*
X164500Y469990D01*
X164040Y470100D01*
X163590Y470230D01*
X163140Y470390D01*
X162710Y470570D01*
X162280Y470770D01*
X161870Y471000D01*
X161470Y471240D01*
X161080Y471510D01*
X160710Y471800D01*
X160350Y472100D01*
X160010Y472430D01*
X159680Y472770D01*
X159380Y473130D01*
X159090Y473500D01*
X158820Y473890D01*
X158580Y474290D01*
X158350Y474700D01*
X158150Y475130D01*
X157970Y475560D01*
X157810Y476010D01*
X157680Y476460D01*
X157570Y476920D01*
X157480Y477380D01*
X157420Y477850D01*
X157380Y478320D01*
X157370Y478790D01*
Y503790D01*
X175370D01*
Y478790D01*
D02*
G37*
G36*
X149970D02*
X149960Y478320D01*
X149920Y477850D01*
X149860Y477380D01*
X149770Y476920D01*
X149660Y476460D01*
X149530Y476010D01*
X149370Y475560D01*
X149190Y475130D01*
X148990Y474700D01*
X148760Y474290D01*
X148520Y473890D01*
X148250Y473500D01*
X147960Y473130D01*
X147660Y472770D01*
X147330Y472430D01*
X146990Y472100D01*
X146630Y471800D01*
X146260Y471510D01*
X145870Y471240D01*
X145470Y471000D01*
X145060Y470770D01*
X144630Y470570D01*
X144200Y470390D01*
X143750Y470230D01*
X143300Y470100D01*
X142840Y469990D01*
X142380Y469900D01*
X141910Y469840D01*
X141440Y469800D01*
X140970Y469790D01*
X140500Y469800D01*
X140030Y469840D01*
X139560Y469900D01*
X139100Y469990D01*
X138640Y470100D01*
X138190Y470230D01*
X137740Y470390D01*
X137310Y470570D01*
X136880Y470770D01*
X136470Y471000D01*
X136070Y471240D01*
X135680Y471510D01*
X135310Y471800D01*
X134950Y472100D01*
X134610Y472430D01*
X134280Y472770D01*
X133980Y473130D01*
X133690Y473500D01*
X133420Y473890D01*
X133180Y474290D01*
X132950Y474700D01*
X132750Y475130D01*
X132570Y475560D01*
X132410Y476010D01*
X132280Y476460D01*
X132170Y476920D01*
X132080Y477380D01*
X132020Y477850D01*
X131980Y478320D01*
X131970Y478790D01*
Y503790D01*
X149970D01*
Y478790D01*
D02*
G37*
G36*
X124570Y472630D02*
X124550Y472480D01*
X124530Y472320D01*
X124500Y472170D01*
X124470Y472010D01*
X124420Y471860D01*
X124370Y471710D01*
X124310Y471570D01*
X124240Y471430D01*
X124170Y471290D01*
X124090Y471160D01*
X124000Y471030D01*
X123900Y470900D01*
X123800Y470780D01*
X123690Y470670D01*
X123580Y470560D01*
X123460Y470460D01*
X123330Y470360D01*
X123200Y470270D01*
X123070Y470190D01*
X122930Y470120D01*
X122790Y470050D01*
X122650Y469990D01*
X122500Y469940D01*
X122350Y469890D01*
X122190Y469860D01*
X122040Y469830D01*
X121880Y469810D01*
X121730Y469790D01*
X109410D01*
X109260Y469810D01*
X109100Y469830D01*
X108950Y469860D01*
X108790Y469890D01*
X108640Y469940D01*
X108490Y469990D01*
X108350Y470050D01*
X108210Y470120D01*
X108070Y470190D01*
X107940Y470270D01*
X107810Y470360D01*
X107680Y470460D01*
X107560Y470560D01*
X107450Y470670D01*
X107340Y470780D01*
X107240Y470900D01*
X107140Y471030D01*
X107050Y471160D01*
X106970Y471290D01*
X106900Y471430D01*
X106830Y471570D01*
X106770Y471710D01*
X106720Y471860D01*
X106670Y472010D01*
X106640Y472170D01*
X106610Y472320D01*
X106590Y472480D01*
X106570Y472630D01*
Y503790D01*
X124570D01*
Y472630D01*
D02*
G37*
G36*
X99170Y478790D02*
X99160Y478320D01*
X99120Y477850D01*
X99060Y477380D01*
X98970Y476920D01*
X98860Y476460D01*
X98730Y476010D01*
X98570Y475560D01*
X98390Y475130D01*
X98190Y474700D01*
X97960Y474290D01*
X97720Y473890D01*
X97450Y473500D01*
X97160Y473130D01*
X96860Y472770D01*
X96530Y472430D01*
X96190Y472100D01*
X95830Y471800D01*
X95460Y471510D01*
X95070Y471240D01*
X94670Y471000D01*
X94260Y470770D01*
X93830Y470570D01*
X93400Y470390D01*
X92950Y470230D01*
X92500Y470100D01*
X92040Y469990D01*
X91580Y469900D01*
X91110Y469840D01*
X90640Y469800D01*
X90170Y469790D01*
X89700Y469800D01*
X89230Y469840D01*
X88760Y469900D01*
X88300Y469990D01*
X87840Y470100D01*
X87390Y470230D01*
X86940Y470390D01*
X86510Y470570D01*
X86080Y470770D01*
X85670Y471000D01*
X85270Y471240D01*
X84880Y471510D01*
X84510Y471800D01*
X84150Y472100D01*
X83810Y472430D01*
X83480Y472770D01*
X83180Y473130D01*
X82890Y473500D01*
X82620Y473890D01*
X82380Y474290D01*
X82150Y474700D01*
X81950Y475130D01*
X81770Y475560D01*
X81610Y476010D01*
X81480Y476460D01*
X81370Y476920D01*
X81280Y477380D01*
X81220Y477850D01*
X81180Y478320D01*
X81170Y478790D01*
Y503790D01*
X99170D01*
Y478790D01*
D02*
G37*
G36*
X73770D02*
X73760Y478320D01*
X73720Y477850D01*
X73660Y477380D01*
X73570Y476920D01*
X73460Y476460D01*
X73330Y476010D01*
X73170Y475560D01*
X72990Y475130D01*
X72790Y474700D01*
X72560Y474290D01*
X72320Y473890D01*
X72050Y473500D01*
X71760Y473130D01*
X71460Y472770D01*
X71130Y472430D01*
X70790Y472100D01*
X70430Y471800D01*
X70060Y471510D01*
X69670Y471240D01*
X69270Y471000D01*
X68860Y470770D01*
X68430Y470570D01*
X68000Y470390D01*
X67550Y470230D01*
X67100Y470100D01*
X66640Y469990D01*
X66180Y469900D01*
X65710Y469840D01*
X65240Y469800D01*
X64770Y469790D01*
X64300Y469800D01*
X63830Y469840D01*
X63360Y469900D01*
X62900Y469990D01*
X62440Y470100D01*
X61990Y470230D01*
X61540Y470390D01*
X61110Y470570D01*
X60680Y470770D01*
X60270Y471000D01*
X59870Y471240D01*
X59480Y471510D01*
X59110Y471800D01*
X58750Y472100D01*
X58410Y472430D01*
X58080Y472770D01*
X57780Y473130D01*
X57490Y473500D01*
X57220Y473890D01*
X56980Y474290D01*
X56750Y474700D01*
X56550Y475130D01*
X56370Y475560D01*
X56210Y476010D01*
X56080Y476460D01*
X55970Y476920D01*
X55880Y477380D01*
X55820Y477850D01*
X55780Y478320D01*
X55770Y478790D01*
Y503790D01*
X73770D01*
Y478790D01*
D02*
G37*
G36*
X570070Y406290D02*
X545070D01*
X544600Y406300D01*
X544130Y406340D01*
X543660Y406400D01*
X543200Y406490D01*
X542740Y406600D01*
X542290Y406730D01*
X541840Y406890D01*
X541410Y407070D01*
X540980Y407270D01*
X540570Y407500D01*
X540170Y407740D01*
X539780Y408010D01*
X539410Y408300D01*
X539050Y408600D01*
X538710Y408930D01*
X538380Y409270D01*
X538080Y409630D01*
X537790Y410000D01*
X537520Y410390D01*
X537280Y410790D01*
X537050Y411200D01*
X536850Y411630D01*
X536670Y412060D01*
X536510Y412510D01*
X536380Y412960D01*
X536270Y413420D01*
X536180Y413880D01*
X536120Y414350D01*
X536080Y414820D01*
X536070Y415290D01*
X536080Y415760D01*
X536120Y416230D01*
X536180Y416700D01*
X536270Y417160D01*
X536380Y417620D01*
X536510Y418070D01*
X536670Y418520D01*
X536850Y418950D01*
X537050Y419380D01*
X537280Y419790D01*
X537520Y420190D01*
X537790Y420580D01*
X538080Y420950D01*
X538380Y421310D01*
X538710Y421650D01*
X539050Y421980D01*
X539410Y422280D01*
X539780Y422570D01*
X540170Y422840D01*
X540570Y423080D01*
X540980Y423310D01*
X541410Y423510D01*
X541840Y423690D01*
X542290Y423850D01*
X542740Y423980D01*
X543200Y424090D01*
X543660Y424180D01*
X544130Y424240D01*
X544600Y424280D01*
X545070Y424290D01*
X570070D01*
Y406290D01*
D02*
G37*
G36*
Y380890D02*
X538910D01*
X538760Y380910D01*
X538600Y380930D01*
X538450Y380960D01*
X538290Y380990D01*
X538140Y381040D01*
X537990Y381090D01*
X537850Y381150D01*
X537710Y381220D01*
X537570Y381290D01*
X537440Y381370D01*
X537310Y381460D01*
X537180Y381560D01*
X537060Y381660D01*
X536950Y381770D01*
X536840Y381880D01*
X536740Y382000D01*
X536640Y382130D01*
X536550Y382260D01*
X536470Y382390D01*
X536400Y382530D01*
X536330Y382670D01*
X536270Y382810D01*
X536220Y382960D01*
X536170Y383110D01*
X536140Y383270D01*
X536110Y383420D01*
X536090Y383580D01*
X536070Y383730D01*
Y396050D01*
X536090Y396200D01*
X536110Y396360D01*
X536140Y396510D01*
X536170Y396670D01*
X536220Y396820D01*
X536270Y396970D01*
X536330Y397110D01*
X536400Y397250D01*
X536470Y397390D01*
X536550Y397520D01*
X536640Y397650D01*
X536740Y397780D01*
X536840Y397900D01*
X536950Y398010D01*
X537060Y398120D01*
X537180Y398220D01*
X537310Y398320D01*
X537440Y398410D01*
X537570Y398490D01*
X537710Y398560D01*
X537850Y398630D01*
X537990Y398690D01*
X538140Y398740D01*
X538290Y398790D01*
X538450Y398820D01*
X538600Y398850D01*
X538760Y398870D01*
X538910Y398890D01*
X570070D01*
Y380890D01*
D02*
G37*
G36*
Y355490D02*
X545070D01*
X544600Y355500D01*
X544130Y355540D01*
X543660Y355600D01*
X543200Y355690D01*
X542740Y355800D01*
X542290Y355930D01*
X541840Y356090D01*
X541410Y356270D01*
X540980Y356470D01*
X540570Y356700D01*
X540170Y356940D01*
X539780Y357210D01*
X539410Y357500D01*
X539050Y357800D01*
X538710Y358130D01*
X538380Y358470D01*
X538080Y358830D01*
X537790Y359200D01*
X537520Y359590D01*
X537280Y359990D01*
X537050Y360400D01*
X536850Y360830D01*
X536670Y361260D01*
X536510Y361710D01*
X536380Y362160D01*
X536270Y362620D01*
X536180Y363080D01*
X536120Y363550D01*
X536080Y364020D01*
X536070Y364490D01*
X536080Y364960D01*
X536120Y365430D01*
X536180Y365900D01*
X536270Y366360D01*
X536380Y366820D01*
X536510Y367270D01*
X536670Y367720D01*
X536850Y368150D01*
X537050Y368580D01*
X537280Y368990D01*
X537520Y369390D01*
X537790Y369780D01*
X538080Y370150D01*
X538380Y370510D01*
X538710Y370850D01*
X539050Y371180D01*
X539410Y371480D01*
X539780Y371770D01*
X540170Y372040D01*
X540570Y372280D01*
X540980Y372510D01*
X541410Y372710D01*
X541840Y372890D01*
X542290Y373050D01*
X542740Y373180D01*
X543200Y373290D01*
X543660Y373380D01*
X544130Y373440D01*
X544600Y373480D01*
X545070Y373490D01*
X570070D01*
Y355490D01*
D02*
G37*
G36*
X547840Y309980D02*
X548310Y309940D01*
X548780Y309880D01*
X549240Y309790D01*
X549700Y309680D01*
X550150Y309550D01*
X550600Y309390D01*
X551030Y309210D01*
X551460Y309010D01*
X551870Y308780D01*
X552270Y308540D01*
X552660Y308270D01*
X553030Y307980D01*
X553390Y307680D01*
X553730Y307350D01*
X554060Y307010D01*
X554360Y306650D01*
X554650Y306280D01*
X554920Y305890D01*
X555160Y305490D01*
X555390Y305080D01*
X555590Y304650D01*
X555770Y304220D01*
X555930Y303770D01*
X556060Y303320D01*
X556170Y302860D01*
X556260Y302400D01*
X556320Y301930D01*
X556360Y301460D01*
X556370Y300990D01*
Y275990D01*
X538370D01*
Y300990D01*
X538380Y301460D01*
X538420Y301930D01*
X538480Y302400D01*
X538570Y302860D01*
X538680Y303320D01*
X538810Y303770D01*
X538970Y304220D01*
X539150Y304650D01*
X539350Y305080D01*
X539580Y305490D01*
X539820Y305890D01*
X540090Y306280D01*
X540380Y306650D01*
X540680Y307010D01*
X541010Y307350D01*
X541350Y307680D01*
X541710Y307980D01*
X542080Y308270D01*
X542470Y308540D01*
X542870Y308780D01*
X543280Y309010D01*
X543710Y309210D01*
X544140Y309390D01*
X544590Y309550D01*
X545040Y309680D01*
X545500Y309790D01*
X545960Y309880D01*
X546430Y309940D01*
X546900Y309980D01*
X547370Y309990D01*
X547840Y309980D01*
D02*
G37*
G36*
X522440D02*
X522910Y309940D01*
X523380Y309880D01*
X523840Y309790D01*
X524300Y309680D01*
X524750Y309550D01*
X525200Y309390D01*
X525630Y309210D01*
X526060Y309010D01*
X526470Y308780D01*
X526870Y308540D01*
X527260Y308270D01*
X527630Y307980D01*
X527990Y307680D01*
X528330Y307350D01*
X528660Y307010D01*
X528960Y306650D01*
X529250Y306280D01*
X529520Y305890D01*
X529760Y305490D01*
X529990Y305080D01*
X530190Y304650D01*
X530370Y304220D01*
X530530Y303770D01*
X530660Y303320D01*
X530770Y302860D01*
X530860Y302400D01*
X530920Y301930D01*
X530960Y301460D01*
X530970Y300990D01*
Y275990D01*
X512970D01*
Y300990D01*
X512980Y301460D01*
X513020Y301930D01*
X513080Y302400D01*
X513170Y302860D01*
X513280Y303320D01*
X513410Y303770D01*
X513570Y304220D01*
X513750Y304650D01*
X513950Y305080D01*
X514180Y305490D01*
X514420Y305890D01*
X514690Y306280D01*
X514980Y306650D01*
X515280Y307010D01*
X515610Y307350D01*
X515950Y307680D01*
X516310Y307980D01*
X516680Y308270D01*
X517070Y308540D01*
X517470Y308780D01*
X517880Y309010D01*
X518310Y309210D01*
X518740Y309390D01*
X519190Y309550D01*
X519640Y309680D01*
X520100Y309790D01*
X520560Y309880D01*
X521030Y309940D01*
X521500Y309980D01*
X521970Y309990D01*
X522440Y309980D01*
D02*
G37*
G36*
X502880Y309970D02*
X503040Y309950D01*
X503190Y309920D01*
X503350Y309890D01*
X503500Y309840D01*
X503650Y309790D01*
X503790Y309730D01*
X503930Y309660D01*
X504070Y309590D01*
X504200Y309510D01*
X504330Y309420D01*
X504460Y309320D01*
X504580Y309220D01*
X504690Y309110D01*
X504800Y309000D01*
X504900Y308880D01*
X505000Y308750D01*
X505090Y308620D01*
X505170Y308490D01*
X505240Y308350D01*
X505310Y308210D01*
X505370Y308070D01*
X505420Y307920D01*
X505470Y307770D01*
X505500Y307610D01*
X505530Y307460D01*
X505550Y307300D01*
X505570Y307150D01*
Y275990D01*
X487570D01*
Y307150D01*
X487590Y307300D01*
X487610Y307460D01*
X487640Y307610D01*
X487670Y307770D01*
X487720Y307920D01*
X487770Y308070D01*
X487830Y308210D01*
X487900Y308350D01*
X487970Y308490D01*
X488050Y308620D01*
X488140Y308750D01*
X488240Y308880D01*
X488340Y309000D01*
X488450Y309110D01*
X488560Y309220D01*
X488680Y309320D01*
X488810Y309420D01*
X488940Y309510D01*
X489070Y309590D01*
X489210Y309660D01*
X489350Y309730D01*
X489490Y309790D01*
X489640Y309840D01*
X489790Y309890D01*
X489950Y309920D01*
X490100Y309950D01*
X490260Y309970D01*
X490410Y309990D01*
X502730D01*
X502880Y309970D01*
D02*
G37*
G36*
X471640Y309980D02*
X472110Y309940D01*
X472580Y309880D01*
X473040Y309790D01*
X473500Y309680D01*
X473950Y309550D01*
X474400Y309390D01*
X474830Y309210D01*
X475260Y309010D01*
X475670Y308780D01*
X476070Y308540D01*
X476460Y308270D01*
X476830Y307980D01*
X477190Y307680D01*
X477530Y307350D01*
X477860Y307010D01*
X478160Y306650D01*
X478450Y306280D01*
X478720Y305890D01*
X478960Y305490D01*
X479190Y305080D01*
X479390Y304650D01*
X479570Y304220D01*
X479730Y303770D01*
X479860Y303320D01*
X479970Y302860D01*
X480060Y302400D01*
X480120Y301930D01*
X480160Y301460D01*
X480170Y300990D01*
Y275990D01*
X462170D01*
Y300990D01*
X462180Y301460D01*
X462220Y301930D01*
X462280Y302400D01*
X462370Y302860D01*
X462480Y303320D01*
X462610Y303770D01*
X462770Y304220D01*
X462950Y304650D01*
X463150Y305080D01*
X463380Y305490D01*
X463620Y305890D01*
X463890Y306280D01*
X464180Y306650D01*
X464480Y307010D01*
X464810Y307350D01*
X465150Y307680D01*
X465510Y307980D01*
X465880Y308270D01*
X466270Y308540D01*
X466670Y308780D01*
X467080Y309010D01*
X467510Y309210D01*
X467940Y309390D01*
X468390Y309550D01*
X468840Y309680D01*
X469300Y309790D01*
X469760Y309880D01*
X470230Y309940D01*
X470700Y309980D01*
X471170Y309990D01*
X471640Y309980D01*
D02*
G37*
G36*
X446240D02*
X446710Y309940D01*
X447180Y309880D01*
X447640Y309790D01*
X448100Y309680D01*
X448550Y309550D01*
X449000Y309390D01*
X449430Y309210D01*
X449860Y309010D01*
X450270Y308780D01*
X450670Y308540D01*
X451060Y308270D01*
X451430Y307980D01*
X451790Y307680D01*
X452130Y307350D01*
X452460Y307010D01*
X452760Y306650D01*
X453050Y306280D01*
X453320Y305890D01*
X453560Y305490D01*
X453790Y305080D01*
X453990Y304650D01*
X454170Y304220D01*
X454330Y303770D01*
X454460Y303320D01*
X454570Y302860D01*
X454660Y302400D01*
X454720Y301930D01*
X454760Y301460D01*
X454770Y300990D01*
Y275990D01*
X436770D01*
Y300990D01*
X436780Y301460D01*
X436820Y301930D01*
X436880Y302400D01*
X436970Y302860D01*
X437080Y303320D01*
X437210Y303770D01*
X437370Y304220D01*
X437550Y304650D01*
X437750Y305080D01*
X437980Y305490D01*
X438220Y305890D01*
X438490Y306280D01*
X438780Y306650D01*
X439080Y307010D01*
X439410Y307350D01*
X439750Y307680D01*
X440110Y307980D01*
X440480Y308270D01*
X440870Y308540D01*
X441270Y308780D01*
X441680Y309010D01*
X442110Y309210D01*
X442540Y309390D01*
X442990Y309550D01*
X443440Y309680D01*
X443900Y309790D01*
X444360Y309880D01*
X444830Y309940D01*
X445300Y309980D01*
X445770Y309990D01*
X446240Y309980D01*
D02*
G37*
G36*
X420840D02*
X421310Y309940D01*
X421780Y309880D01*
X422240Y309790D01*
X422700Y309680D01*
X423150Y309550D01*
X423600Y309390D01*
X424030Y309210D01*
X424460Y309010D01*
X424870Y308780D01*
X425270Y308540D01*
X425660Y308270D01*
X426030Y307980D01*
X426390Y307680D01*
X426730Y307350D01*
X427060Y307010D01*
X427360Y306650D01*
X427650Y306280D01*
X427920Y305890D01*
X428160Y305490D01*
X428390Y305080D01*
X428590Y304650D01*
X428770Y304220D01*
X428930Y303770D01*
X429060Y303320D01*
X429170Y302860D01*
X429260Y302400D01*
X429320Y301930D01*
X429360Y301460D01*
X429370Y300990D01*
Y275990D01*
X411370D01*
Y300990D01*
X411380Y301460D01*
X411420Y301930D01*
X411480Y302400D01*
X411570Y302860D01*
X411680Y303320D01*
X411810Y303770D01*
X411970Y304220D01*
X412150Y304650D01*
X412350Y305080D01*
X412580Y305490D01*
X412820Y305890D01*
X413090Y306280D01*
X413380Y306650D01*
X413680Y307010D01*
X414010Y307350D01*
X414350Y307680D01*
X414710Y307980D01*
X415080Y308270D01*
X415470Y308540D01*
X415870Y308780D01*
X416280Y309010D01*
X416710Y309210D01*
X417140Y309390D01*
X417590Y309550D01*
X418040Y309680D01*
X418500Y309790D01*
X418960Y309880D01*
X419430Y309940D01*
X419900Y309980D01*
X420370Y309990D01*
X420840Y309980D01*
D02*
G37*
G36*
X395440D02*
X395910Y309940D01*
X396380Y309880D01*
X396840Y309790D01*
X397300Y309680D01*
X397750Y309550D01*
X398200Y309390D01*
X398630Y309210D01*
X399060Y309010D01*
X399470Y308780D01*
X399870Y308540D01*
X400260Y308270D01*
X400630Y307980D01*
X400990Y307680D01*
X401330Y307350D01*
X401660Y307010D01*
X401960Y306650D01*
X402250Y306280D01*
X402520Y305890D01*
X402760Y305490D01*
X402990Y305080D01*
X403190Y304650D01*
X403370Y304220D01*
X403530Y303770D01*
X403660Y303320D01*
X403770Y302860D01*
X403860Y302400D01*
X403920Y301930D01*
X403960Y301460D01*
X403970Y300990D01*
Y275990D01*
X385970D01*
Y300990D01*
X385980Y301460D01*
X386020Y301930D01*
X386080Y302400D01*
X386170Y302860D01*
X386280Y303320D01*
X386410Y303770D01*
X386570Y304220D01*
X386750Y304650D01*
X386950Y305080D01*
X387180Y305490D01*
X387420Y305890D01*
X387690Y306280D01*
X387980Y306650D01*
X388280Y307010D01*
X388610Y307350D01*
X388950Y307680D01*
X389310Y307980D01*
X389680Y308270D01*
X390070Y308540D01*
X390470Y308780D01*
X390880Y309010D01*
X391310Y309210D01*
X391740Y309390D01*
X392190Y309550D01*
X392640Y309680D01*
X393100Y309790D01*
X393560Y309880D01*
X394030Y309940D01*
X394500Y309980D01*
X394970Y309990D01*
X395440Y309980D01*
D02*
G37*
G36*
X375880Y309970D02*
X376040Y309950D01*
X376190Y309920D01*
X376350Y309890D01*
X376500Y309840D01*
X376650Y309790D01*
X376790Y309730D01*
X376930Y309660D01*
X377070Y309590D01*
X377200Y309510D01*
X377330Y309420D01*
X377460Y309320D01*
X377580Y309220D01*
X377690Y309110D01*
X377800Y309000D01*
X377900Y308880D01*
X378000Y308750D01*
X378090Y308620D01*
X378170Y308490D01*
X378240Y308350D01*
X378310Y308210D01*
X378370Y308070D01*
X378420Y307920D01*
X378470Y307770D01*
X378500Y307610D01*
X378530Y307460D01*
X378550Y307300D01*
X378570Y307150D01*
Y275990D01*
X360570D01*
Y307150D01*
X360590Y307300D01*
X360610Y307460D01*
X360640Y307610D01*
X360670Y307770D01*
X360720Y307920D01*
X360770Y308070D01*
X360830Y308210D01*
X360900Y308350D01*
X360970Y308490D01*
X361050Y308620D01*
X361140Y308750D01*
X361240Y308880D01*
X361340Y309000D01*
X361450Y309110D01*
X361560Y309220D01*
X361680Y309320D01*
X361810Y309420D01*
X361940Y309510D01*
X362070Y309590D01*
X362210Y309660D01*
X362350Y309730D01*
X362490Y309790D01*
X362640Y309840D01*
X362790Y309890D01*
X362950Y309920D01*
X363100Y309950D01*
X363260Y309970D01*
X363410Y309990D01*
X375730D01*
X375880Y309970D01*
D02*
G37*
G36*
X344640Y309980D02*
X345110Y309940D01*
X345580Y309880D01*
X346040Y309790D01*
X346500Y309680D01*
X346950Y309550D01*
X347400Y309390D01*
X347830Y309210D01*
X348260Y309010D01*
X348670Y308780D01*
X349070Y308540D01*
X349460Y308270D01*
X349830Y307980D01*
X350190Y307680D01*
X350530Y307350D01*
X350860Y307010D01*
X351160Y306650D01*
X351450Y306280D01*
X351720Y305890D01*
X351960Y305490D01*
X352190Y305080D01*
X352390Y304650D01*
X352570Y304220D01*
X352730Y303770D01*
X352860Y303320D01*
X352970Y302860D01*
X353060Y302400D01*
X353120Y301930D01*
X353160Y301460D01*
X353170Y300990D01*
Y275990D01*
X335170D01*
Y300990D01*
X335180Y301460D01*
X335220Y301930D01*
X335280Y302400D01*
X335370Y302860D01*
X335480Y303320D01*
X335610Y303770D01*
X335770Y304220D01*
X335950Y304650D01*
X336150Y305080D01*
X336380Y305490D01*
X336620Y305890D01*
X336890Y306280D01*
X337180Y306650D01*
X337480Y307010D01*
X337810Y307350D01*
X338150Y307680D01*
X338510Y307980D01*
X338880Y308270D01*
X339270Y308540D01*
X339670Y308780D01*
X340080Y309010D01*
X340510Y309210D01*
X340940Y309390D01*
X341390Y309550D01*
X341840Y309680D01*
X342300Y309790D01*
X342760Y309880D01*
X343230Y309940D01*
X343700Y309980D01*
X344170Y309990D01*
X344640Y309980D01*
D02*
G37*
G36*
X319240D02*
X319710Y309940D01*
X320180Y309880D01*
X320640Y309790D01*
X321100Y309680D01*
X321550Y309550D01*
X322000Y309390D01*
X322430Y309210D01*
X322860Y309010D01*
X323270Y308780D01*
X323670Y308540D01*
X324060Y308270D01*
X324430Y307980D01*
X324790Y307680D01*
X325130Y307350D01*
X325460Y307010D01*
X325760Y306650D01*
X326050Y306280D01*
X326320Y305890D01*
X326560Y305490D01*
X326790Y305080D01*
X326990Y304650D01*
X327170Y304220D01*
X327330Y303770D01*
X327460Y303320D01*
X327570Y302860D01*
X327660Y302400D01*
X327720Y301930D01*
X327760Y301460D01*
X327770Y300990D01*
Y275990D01*
X309770D01*
Y300990D01*
X309780Y301460D01*
X309820Y301930D01*
X309880Y302400D01*
X309970Y302860D01*
X310080Y303320D01*
X310210Y303770D01*
X310370Y304220D01*
X310550Y304650D01*
X310750Y305080D01*
X310980Y305490D01*
X311220Y305890D01*
X311490Y306280D01*
X311780Y306650D01*
X312080Y307010D01*
X312410Y307350D01*
X312750Y307680D01*
X313110Y307980D01*
X313480Y308270D01*
X313870Y308540D01*
X314270Y308780D01*
X314680Y309010D01*
X315110Y309210D01*
X315540Y309390D01*
X315990Y309550D01*
X316440Y309680D01*
X316900Y309790D01*
X317360Y309880D01*
X317830Y309940D01*
X318300Y309980D01*
X318770Y309990D01*
X319240Y309980D01*
D02*
G37*
G36*
X293840D02*
X294310Y309940D01*
X294780Y309880D01*
X295240Y309790D01*
X295700Y309680D01*
X296150Y309550D01*
X296600Y309390D01*
X297030Y309210D01*
X297460Y309010D01*
X297870Y308780D01*
X298270Y308540D01*
X298660Y308270D01*
X299030Y307980D01*
X299390Y307680D01*
X299730Y307350D01*
X300060Y307010D01*
X300360Y306650D01*
X300650Y306280D01*
X300920Y305890D01*
X301160Y305490D01*
X301390Y305080D01*
X301590Y304650D01*
X301770Y304220D01*
X301930Y303770D01*
X302060Y303320D01*
X302170Y302860D01*
X302260Y302400D01*
X302320Y301930D01*
X302360Y301460D01*
X302370Y300990D01*
Y275990D01*
X284370D01*
Y300990D01*
X284380Y301460D01*
X284420Y301930D01*
X284480Y302400D01*
X284570Y302860D01*
X284680Y303320D01*
X284810Y303770D01*
X284970Y304220D01*
X285150Y304650D01*
X285350Y305080D01*
X285580Y305490D01*
X285820Y305890D01*
X286090Y306280D01*
X286380Y306650D01*
X286680Y307010D01*
X287010Y307350D01*
X287350Y307680D01*
X287710Y307980D01*
X288080Y308270D01*
X288470Y308540D01*
X288870Y308780D01*
X289280Y309010D01*
X289710Y309210D01*
X290140Y309390D01*
X290590Y309550D01*
X291040Y309680D01*
X291500Y309790D01*
X291960Y309880D01*
X292430Y309940D01*
X292900Y309980D01*
X293370Y309990D01*
X293840Y309980D01*
D02*
G37*
G36*
X268440D02*
X268910Y309940D01*
X269380Y309880D01*
X269840Y309790D01*
X270300Y309680D01*
X270750Y309550D01*
X271200Y309390D01*
X271630Y309210D01*
X272060Y309010D01*
X272470Y308780D01*
X272870Y308540D01*
X273260Y308270D01*
X273630Y307980D01*
X273990Y307680D01*
X274330Y307350D01*
X274660Y307010D01*
X274960Y306650D01*
X275250Y306280D01*
X275520Y305890D01*
X275760Y305490D01*
X275990Y305080D01*
X276190Y304650D01*
X276370Y304220D01*
X276530Y303770D01*
X276660Y303320D01*
X276770Y302860D01*
X276860Y302400D01*
X276920Y301930D01*
X276960Y301460D01*
X276970Y300990D01*
Y275990D01*
X258970D01*
Y300990D01*
X258980Y301460D01*
X259020Y301930D01*
X259080Y302400D01*
X259170Y302860D01*
X259280Y303320D01*
X259410Y303770D01*
X259570Y304220D01*
X259750Y304650D01*
X259950Y305080D01*
X260180Y305490D01*
X260420Y305890D01*
X260690Y306280D01*
X260980Y306650D01*
X261280Y307010D01*
X261610Y307350D01*
X261950Y307680D01*
X262310Y307980D01*
X262680Y308270D01*
X263070Y308540D01*
X263470Y308780D01*
X263880Y309010D01*
X264310Y309210D01*
X264740Y309390D01*
X265190Y309550D01*
X265640Y309680D01*
X266100Y309790D01*
X266560Y309880D01*
X267030Y309940D01*
X267500Y309980D01*
X267970Y309990D01*
X268440Y309980D01*
D02*
G37*
G36*
X248880Y309970D02*
X249040Y309950D01*
X249190Y309920D01*
X249350Y309890D01*
X249500Y309840D01*
X249650Y309790D01*
X249790Y309730D01*
X249930Y309660D01*
X250070Y309590D01*
X250200Y309510D01*
X250330Y309420D01*
X250460Y309320D01*
X250580Y309220D01*
X250690Y309110D01*
X250800Y309000D01*
X250900Y308880D01*
X251000Y308750D01*
X251090Y308620D01*
X251170Y308490D01*
X251240Y308350D01*
X251310Y308210D01*
X251370Y308070D01*
X251420Y307920D01*
X251470Y307770D01*
X251500Y307610D01*
X251530Y307460D01*
X251550Y307300D01*
X251570Y307150D01*
Y275990D01*
X233570D01*
Y307150D01*
X233590Y307300D01*
X233610Y307460D01*
X233640Y307610D01*
X233670Y307770D01*
X233720Y307920D01*
X233770Y308070D01*
X233830Y308210D01*
X233900Y308350D01*
X233970Y308490D01*
X234050Y308620D01*
X234140Y308750D01*
X234240Y308880D01*
X234340Y309000D01*
X234450Y309110D01*
X234560Y309220D01*
X234680Y309320D01*
X234810Y309420D01*
X234940Y309510D01*
X235070Y309590D01*
X235210Y309660D01*
X235350Y309730D01*
X235490Y309790D01*
X235640Y309840D01*
X235790Y309890D01*
X235950Y309920D01*
X236100Y309950D01*
X236260Y309970D01*
X236410Y309990D01*
X248730D01*
X248880Y309970D01*
D02*
G37*
G36*
X217640Y309980D02*
X218110Y309940D01*
X218580Y309880D01*
X219040Y309790D01*
X219500Y309680D01*
X219950Y309550D01*
X220400Y309390D01*
X220830Y309210D01*
X221260Y309010D01*
X221670Y308780D01*
X222070Y308540D01*
X222460Y308270D01*
X222830Y307980D01*
X223190Y307680D01*
X223530Y307350D01*
X223860Y307010D01*
X224160Y306650D01*
X224450Y306280D01*
X224720Y305890D01*
X224960Y305490D01*
X225190Y305080D01*
X225390Y304650D01*
X225570Y304220D01*
X225730Y303770D01*
X225860Y303320D01*
X225970Y302860D01*
X226060Y302400D01*
X226120Y301930D01*
X226160Y301460D01*
X226170Y300990D01*
Y275990D01*
X208170D01*
Y300990D01*
X208180Y301460D01*
X208220Y301930D01*
X208280Y302400D01*
X208370Y302860D01*
X208480Y303320D01*
X208610Y303770D01*
X208770Y304220D01*
X208950Y304650D01*
X209150Y305080D01*
X209380Y305490D01*
X209620Y305890D01*
X209890Y306280D01*
X210180Y306650D01*
X210480Y307010D01*
X210810Y307350D01*
X211150Y307680D01*
X211510Y307980D01*
X211880Y308270D01*
X212270Y308540D01*
X212670Y308780D01*
X213080Y309010D01*
X213510Y309210D01*
X213940Y309390D01*
X214390Y309550D01*
X214840Y309680D01*
X215300Y309790D01*
X215760Y309880D01*
X216230Y309940D01*
X216700Y309980D01*
X217170Y309990D01*
X217640Y309980D01*
D02*
G37*
G36*
X192240D02*
X192710Y309940D01*
X193180Y309880D01*
X193640Y309790D01*
X194100Y309680D01*
X194550Y309550D01*
X195000Y309390D01*
X195430Y309210D01*
X195860Y309010D01*
X196270Y308780D01*
X196670Y308540D01*
X197060Y308270D01*
X197430Y307980D01*
X197790Y307680D01*
X198130Y307350D01*
X198460Y307010D01*
X198760Y306650D01*
X199050Y306280D01*
X199320Y305890D01*
X199560Y305490D01*
X199790Y305080D01*
X199990Y304650D01*
X200170Y304220D01*
X200330Y303770D01*
X200460Y303320D01*
X200570Y302860D01*
X200660Y302400D01*
X200720Y301930D01*
X200760Y301460D01*
X200770Y300990D01*
Y275990D01*
X182770D01*
Y300990D01*
X182780Y301460D01*
X182820Y301930D01*
X182880Y302400D01*
X182970Y302860D01*
X183080Y303320D01*
X183210Y303770D01*
X183370Y304220D01*
X183550Y304650D01*
X183750Y305080D01*
X183980Y305490D01*
X184220Y305890D01*
X184490Y306280D01*
X184780Y306650D01*
X185080Y307010D01*
X185410Y307350D01*
X185750Y307680D01*
X186110Y307980D01*
X186480Y308270D01*
X186870Y308540D01*
X187270Y308780D01*
X187680Y309010D01*
X188110Y309210D01*
X188540Y309390D01*
X188990Y309550D01*
X189440Y309680D01*
X189900Y309790D01*
X190360Y309880D01*
X190830Y309940D01*
X191300Y309980D01*
X191770Y309990D01*
X192240Y309980D01*
D02*
G37*
G36*
X166840D02*
X167310Y309940D01*
X167780Y309880D01*
X168240Y309790D01*
X168700Y309680D01*
X169150Y309550D01*
X169600Y309390D01*
X170030Y309210D01*
X170460Y309010D01*
X170870Y308780D01*
X171270Y308540D01*
X171660Y308270D01*
X172030Y307980D01*
X172390Y307680D01*
X172730Y307350D01*
X173060Y307010D01*
X173360Y306650D01*
X173650Y306280D01*
X173920Y305890D01*
X174160Y305490D01*
X174390Y305080D01*
X174590Y304650D01*
X174770Y304220D01*
X174930Y303770D01*
X175060Y303320D01*
X175170Y302860D01*
X175260Y302400D01*
X175320Y301930D01*
X175360Y301460D01*
X175370Y300990D01*
Y275990D01*
X157370D01*
Y300990D01*
X157380Y301460D01*
X157420Y301930D01*
X157480Y302400D01*
X157570Y302860D01*
X157680Y303320D01*
X157810Y303770D01*
X157970Y304220D01*
X158150Y304650D01*
X158350Y305080D01*
X158580Y305490D01*
X158820Y305890D01*
X159090Y306280D01*
X159380Y306650D01*
X159680Y307010D01*
X160010Y307350D01*
X160350Y307680D01*
X160710Y307980D01*
X161080Y308270D01*
X161470Y308540D01*
X161870Y308780D01*
X162280Y309010D01*
X162710Y309210D01*
X163140Y309390D01*
X163590Y309550D01*
X164040Y309680D01*
X164500Y309790D01*
X164960Y309880D01*
X165430Y309940D01*
X165900Y309980D01*
X166370Y309990D01*
X166840Y309980D01*
D02*
G37*
G36*
X141440D02*
X141910Y309940D01*
X142380Y309880D01*
X142840Y309790D01*
X143300Y309680D01*
X143750Y309550D01*
X144200Y309390D01*
X144630Y309210D01*
X145060Y309010D01*
X145470Y308780D01*
X145870Y308540D01*
X146260Y308270D01*
X146630Y307980D01*
X146990Y307680D01*
X147330Y307350D01*
X147660Y307010D01*
X147960Y306650D01*
X148250Y306280D01*
X148520Y305890D01*
X148760Y305490D01*
X148990Y305080D01*
X149190Y304650D01*
X149370Y304220D01*
X149530Y303770D01*
X149660Y303320D01*
X149770Y302860D01*
X149860Y302400D01*
X149920Y301930D01*
X149960Y301460D01*
X149970Y300990D01*
Y275990D01*
X131970D01*
Y300990D01*
X131980Y301460D01*
X132020Y301930D01*
X132080Y302400D01*
X132170Y302860D01*
X132280Y303320D01*
X132410Y303770D01*
X132570Y304220D01*
X132750Y304650D01*
X132950Y305080D01*
X133180Y305490D01*
X133420Y305890D01*
X133690Y306280D01*
X133980Y306650D01*
X134280Y307010D01*
X134610Y307350D01*
X134950Y307680D01*
X135310Y307980D01*
X135680Y308270D01*
X136070Y308540D01*
X136470Y308780D01*
X136880Y309010D01*
X137310Y309210D01*
X137740Y309390D01*
X138190Y309550D01*
X138640Y309680D01*
X139100Y309790D01*
X139560Y309880D01*
X140030Y309940D01*
X140500Y309980D01*
X140970Y309990D01*
X141440Y309980D01*
D02*
G37*
G36*
X121880Y309970D02*
X122040Y309950D01*
X122190Y309920D01*
X122350Y309890D01*
X122500Y309840D01*
X122650Y309790D01*
X122790Y309730D01*
X122930Y309660D01*
X123070Y309590D01*
X123200Y309510D01*
X123330Y309420D01*
X123460Y309320D01*
X123580Y309220D01*
X123690Y309110D01*
X123800Y309000D01*
X123900Y308880D01*
X124000Y308750D01*
X124090Y308620D01*
X124170Y308490D01*
X124240Y308350D01*
X124310Y308210D01*
X124370Y308070D01*
X124420Y307920D01*
X124470Y307770D01*
X124500Y307610D01*
X124530Y307460D01*
X124550Y307300D01*
X124570Y307150D01*
Y275990D01*
X106570D01*
Y307150D01*
X106590Y307300D01*
X106610Y307460D01*
X106640Y307610D01*
X106670Y307770D01*
X106720Y307920D01*
X106770Y308070D01*
X106830Y308210D01*
X106900Y308350D01*
X106970Y308490D01*
X107050Y308620D01*
X107140Y308750D01*
X107240Y308880D01*
X107340Y309000D01*
X107450Y309110D01*
X107560Y309220D01*
X107680Y309320D01*
X107810Y309420D01*
X107940Y309510D01*
X108070Y309590D01*
X108210Y309660D01*
X108350Y309730D01*
X108490Y309790D01*
X108640Y309840D01*
X108790Y309890D01*
X108950Y309920D01*
X109100Y309950D01*
X109260Y309970D01*
X109410Y309990D01*
X121730D01*
X121880Y309970D01*
D02*
G37*
G36*
X90640Y309980D02*
X91110Y309940D01*
X91580Y309880D01*
X92040Y309790D01*
X92500Y309680D01*
X92950Y309550D01*
X93400Y309390D01*
X93830Y309210D01*
X94260Y309010D01*
X94670Y308780D01*
X95070Y308540D01*
X95460Y308270D01*
X95830Y307980D01*
X96190Y307680D01*
X96530Y307350D01*
X96860Y307010D01*
X97160Y306650D01*
X97450Y306280D01*
X97720Y305890D01*
X97960Y305490D01*
X98190Y305080D01*
X98390Y304650D01*
X98570Y304220D01*
X98730Y303770D01*
X98860Y303320D01*
X98970Y302860D01*
X99060Y302400D01*
X99120Y301930D01*
X99160Y301460D01*
X99170Y300990D01*
Y275990D01*
X81170D01*
Y300990D01*
X81180Y301460D01*
X81220Y301930D01*
X81280Y302400D01*
X81370Y302860D01*
X81480Y303320D01*
X81610Y303770D01*
X81770Y304220D01*
X81950Y304650D01*
X82150Y305080D01*
X82380Y305490D01*
X82620Y305890D01*
X82890Y306280D01*
X83180Y306650D01*
X83480Y307010D01*
X83810Y307350D01*
X84150Y307680D01*
X84510Y307980D01*
X84880Y308270D01*
X85270Y308540D01*
X85670Y308780D01*
X86080Y309010D01*
X86510Y309210D01*
X86940Y309390D01*
X87390Y309550D01*
X87840Y309680D01*
X88300Y309790D01*
X88760Y309880D01*
X89230Y309940D01*
X89700Y309980D01*
X90170Y309990D01*
X90640Y309980D01*
D02*
G37*
G36*
X65240D02*
X65710Y309940D01*
X66180Y309880D01*
X66640Y309790D01*
X67100Y309680D01*
X67550Y309550D01*
X68000Y309390D01*
X68430Y309210D01*
X68860Y309010D01*
X69270Y308780D01*
X69670Y308540D01*
X70060Y308270D01*
X70430Y307980D01*
X70790Y307680D01*
X71130Y307350D01*
X71460Y307010D01*
X71760Y306650D01*
X72050Y306280D01*
X72320Y305890D01*
X72560Y305490D01*
X72790Y305080D01*
X72990Y304650D01*
X73170Y304220D01*
X73330Y303770D01*
X73460Y303320D01*
X73570Y302860D01*
X73660Y302400D01*
X73720Y301930D01*
X73760Y301460D01*
X73770Y300990D01*
Y275990D01*
X55770D01*
Y300990D01*
X55780Y301460D01*
X55820Y301930D01*
X55880Y302400D01*
X55970Y302860D01*
X56080Y303320D01*
X56210Y303770D01*
X56370Y304220D01*
X56550Y304650D01*
X56750Y305080D01*
X56980Y305490D01*
X57220Y305890D01*
X57490Y306280D01*
X57780Y306650D01*
X58080Y307010D01*
X58410Y307350D01*
X58750Y307680D01*
X59110Y307980D01*
X59480Y308270D01*
X59870Y308540D01*
X60270Y308780D01*
X60680Y309010D01*
X61110Y309210D01*
X61540Y309390D01*
X61990Y309550D01*
X62440Y309680D01*
X62900Y309790D01*
X63360Y309880D01*
X63830Y309940D01*
X64300Y309980D01*
X64770Y309990D01*
X65240Y309980D01*
D02*
G37*
D18*
X63070Y379890D02*
D03*
Y399890D02*
D03*
X96070Y389890D02*
D03*
X131070Y364890D02*
D03*
X156070D02*
D03*
X181070D02*
D03*
D19*
X66070Y362640D02*
D03*
Y417140D02*
D03*
D20*
X96370Y365640D02*
D03*
Y414140D02*
D03*
D21*
X39370Y232420D02*
D03*
Y201920D02*
D03*
D22*
X544420Y143980D02*
D03*
X474420D02*
D03*
X404420D02*
D03*
X334420D02*
D03*
X264420D02*
D03*
X509420Y93980D02*
D03*
X439420D02*
D03*
X369420D02*
D03*
X299420D02*
D03*
X966370Y144950D02*
D03*
X896370D02*
D03*
X826370D02*
D03*
X756370D02*
D03*
X686370D02*
D03*
X931370Y94950D02*
D03*
X861370D02*
D03*
X791370D02*
D03*
X721370D02*
D03*
X233530Y624840D02*
D03*
X303530D02*
D03*
X373530D02*
D03*
X443530D02*
D03*
X513530D02*
D03*
X268530Y674840D02*
D03*
X338530D02*
D03*
X408530D02*
D03*
X478530D02*
D03*
X647960Y624370D02*
D03*
X717960D02*
D03*
X787960D02*
D03*
X857960D02*
D03*
X927960D02*
D03*
X682960Y674370D02*
D03*
X752960D02*
D03*
X822960D02*
D03*
X892960D02*
D03*
D23*
X229420Y93980D02*
D03*
X651370Y94950D02*
D03*
X548530Y674840D02*
D03*
X962960Y674370D02*
D03*
D24*
X68980Y41640D02*
D03*
Y166640D02*
D03*
X118980Y41640D02*
D03*
X64620Y600440D02*
D03*
Y725440D02*
D03*
X114620Y600440D02*
D03*
D25*
X118980Y166640D02*
D03*
X114620Y725440D02*
D03*
D26*
X48980Y104140D02*
D03*
X138980D02*
D03*
X44620Y662940D02*
D03*
X134620D02*
D03*
D27*
X267970Y440690D02*
D03*
X228600Y444500D02*
D03*
X217170Y391160D02*
D03*
X280670Y260350D02*
D03*
X295530Y641350D02*
D03*
X73660Y532130D02*
D03*
X317246Y131318D02*
D03*
X361950Y320040D02*
D03*
X82550Y514350D02*
D03*
X471170Y455930D02*
D03*
X673100Y527050D02*
D03*
X345440Y514350D02*
D03*
X311150Y447040D02*
D03*
X569594Y292990D02*
D03*
X87509Y132842D02*
D03*
X446024Y331216D02*
D03*
X107696Y232156D02*
D03*
X508254Y47498D02*
D03*
X491998Y93980D02*
D03*
D28*
X292100Y332740D02*
D03*
X170180Y548640D02*
D03*
X242570Y458470D02*
D03*
X247650Y248920D02*
D03*
X176530Y335280D02*
D03*
X222250Y251460D02*
D03*
X144780Y335280D02*
D03*
X309880Y219710D02*
D03*
X204470Y350520D02*
D03*
X265430Y254000D02*
D03*
X243840Y320040D02*
D03*
X496570Y458470D02*
D03*
X372110Y455930D02*
D03*
X523240Y391160D02*
D03*
X496570Y323850D02*
D03*
X370840Y261620D02*
D03*
X101600Y323850D02*
D03*
X115570Y452120D02*
D03*
X83820Y214630D02*
D03*
X78740Y323850D02*
D03*
M02*
