G04*
G04 #@! TF.GenerationSoftware,Altium Limited,Altium Designer,24.1.2 (44)*
G04*
G04 Layer_Color=8533715*
%FSLAX44Y44*%
%MOMM*%
G71*
G04*
G04 #@! TF.SameCoordinates,B28CFC15-B4C6-47B7-BC68-1C9BB1E78066*
G04*
G04*
G04 #@! TF.FilePolarity,Positive*
G04*
G01*
G75*
G04:AMPARAMS|DCode=14|XSize=1.5mm|YSize=1.5mm|CornerRadius=0.3mm|HoleSize=0mm|Usage=FLASHONLY|Rotation=90.000|XOffset=0mm|YOffset=0mm|HoleType=Round|Shape=RoundedRectangle|*
%AMROUNDEDRECTD14*
21,1,1.5000,0.9000,0,0,90.0*
21,1,0.9000,1.5000,0,0,90.0*
1,1,0.6000,0.4500,0.4500*
1,1,0.6000,0.4500,-0.4500*
1,1,0.6000,-0.4500,-0.4500*
1,1,0.6000,-0.4500,0.4500*
%
%ADD14ROUNDEDRECTD14*%
%ADD15O,1.8000X1.1000*%
%ADD16O,1.4500X1.0500*%
%ADD17R,1.8000X1.2500*%
%ADD22C,1.5500*%
%ADD23R,1.5500X1.5500*%
%ADD29R,1.0000X1.0000*%
%ADD31C,1.7500*%
%ADD32R,1.7500X1.7500*%
D14*
X63070Y379890D02*
D03*
Y399890D02*
D03*
X96070Y389890D02*
D03*
X131070Y364890D02*
D03*
X156070D02*
D03*
X181070D02*
D03*
D15*
X66070Y362640D02*
D03*
Y417140D02*
D03*
D16*
X96370Y365640D02*
D03*
Y414140D02*
D03*
D17*
X39370Y232420D02*
D03*
Y201920D02*
D03*
D22*
X544420Y143980D02*
D03*
X474420D02*
D03*
X404420D02*
D03*
X334420D02*
D03*
X264420D02*
D03*
X509420Y93980D02*
D03*
X439420D02*
D03*
X369420D02*
D03*
X299420D02*
D03*
X966370Y144950D02*
D03*
X896370D02*
D03*
X826370D02*
D03*
X756370D02*
D03*
X686370D02*
D03*
X931370Y94950D02*
D03*
X861370D02*
D03*
X791370D02*
D03*
X721370D02*
D03*
X233530Y624840D02*
D03*
X303530D02*
D03*
X373530D02*
D03*
X443530D02*
D03*
X513530D02*
D03*
X268530Y674840D02*
D03*
X338530D02*
D03*
X408530D02*
D03*
X478530D02*
D03*
X647960Y624370D02*
D03*
X717960D02*
D03*
X787960D02*
D03*
X857960D02*
D03*
X927960D02*
D03*
X682960Y674370D02*
D03*
X752960D02*
D03*
X822960D02*
D03*
X892960D02*
D03*
X48980Y104140D02*
D03*
X138980D02*
D03*
X44620Y662940D02*
D03*
X134620D02*
D03*
D23*
X229420Y93980D02*
D03*
X651370Y94950D02*
D03*
X548530Y674840D02*
D03*
X962960Y674370D02*
D03*
D29*
X64770Y292990D02*
D03*
Y486790D02*
D03*
X115570D02*
D03*
X553070Y364490D02*
D03*
Y389890D02*
D03*
X90170Y292990D02*
D03*
X140970D02*
D03*
X166370D02*
D03*
X191770D02*
D03*
X217170D02*
D03*
X267970D02*
D03*
X293370D02*
D03*
X318770D02*
D03*
X344170D02*
D03*
X394970D02*
D03*
X420370D02*
D03*
X445770D02*
D03*
X471170D02*
D03*
X521970D02*
D03*
X547370D02*
D03*
X115570D02*
D03*
X242570D02*
D03*
X369570D02*
D03*
X496570D02*
D03*
X90170Y486790D02*
D03*
X140970D02*
D03*
X166370D02*
D03*
X191770D02*
D03*
X217170D02*
D03*
X267970D02*
D03*
X293370D02*
D03*
X318770D02*
D03*
X344170D02*
D03*
X394970D02*
D03*
X420370D02*
D03*
X445770D02*
D03*
X471170D02*
D03*
X521970D02*
D03*
X547370D02*
D03*
X242570D02*
D03*
X369570D02*
D03*
X496570D02*
D03*
X553070Y415290D02*
D03*
D31*
X68980Y41640D02*
D03*
Y166640D02*
D03*
X118980Y41640D02*
D03*
X64620Y600440D02*
D03*
Y725440D02*
D03*
X114620Y600440D02*
D03*
D32*
X118980Y166640D02*
D03*
X114620Y725440D02*
D03*
M02*
