G04*
G04 #@! TF.GenerationSoftware,Altium Limited,Altium Designer,24.1.2 (44)*
G04*
G04 Layer_Color=8388736*
%FSLAX44Y44*%
%MOMM*%
G71*
G04*
G04 #@! TF.SameCoordinates,B28CFC15-B4C6-47B7-BC68-1C9BB1E78066*
G04*
G04*
G04 #@! TF.FilePolarity,Positive*
G04*
G01*
G75*
%ADD10C,0.2000*%
%ADD12C,0.1270*%
%ADD35C,0.1000*%
D10*
X65770Y267990D02*
G03*
X65770Y267990I-1000J0D01*
G01*
X195920Y46230D02*
Y167730D01*
Y46230D02*
X562920D01*
Y167730D01*
X195920D02*
X562920D01*
X617870Y47200D02*
Y168700D01*
Y47200D02*
X984870D01*
Y168700D01*
X617870D02*
X984870D01*
X582030Y601090D02*
Y722590D01*
X215030D02*
X582030D01*
X215030Y601090D02*
Y722590D01*
Y601090D02*
X582030D01*
X996460Y600620D02*
Y722120D01*
X629460D02*
X996460D01*
X629460Y600620D02*
Y722120D01*
Y600620D02*
X996460D01*
D12*
X51070Y284890D02*
X561070D01*
X51070D02*
Y349890D01*
X38070D02*
X51070D01*
X38070D02*
Y429890D01*
X51070D01*
Y494890D01*
X561070D01*
Y284890D02*
Y494890D01*
D35*
X33980Y164140D02*
X153980D01*
X33980Y44140D02*
Y164140D01*
Y44140D02*
X153980D01*
Y164140D01*
X30870Y233170D02*
X47870D01*
X30870Y201170D02*
X47870D01*
Y233170D01*
X30870Y201170D02*
Y233170D01*
X29620Y722940D02*
X149620D01*
X29620Y602940D02*
Y722940D01*
Y602940D02*
X149620D01*
Y722940D01*
M02*
