G04*
G04 #@! TF.GenerationSoftware,Altium Limited,Altium Designer,24.1.2 (44)*
G04*
G04 Layer_Color=128*
%FSLAX44Y44*%
%MOMM*%
G71*
G04*
G04 #@! TF.SameCoordinates,B28CFC15-B4C6-47B7-BC68-1C9BB1E78066*
G04*
G04*
G04 #@! TF.FilePolarity,Positive*
G04*
G01*
G75*
%ADD12C,0.1270*%
D12*
X539420Y143980D02*
X549420D01*
X544420Y138980D02*
Y148980D01*
X469420Y143980D02*
X479420D01*
X474420Y138980D02*
Y148980D01*
X399420Y143980D02*
X409420D01*
X404420Y138980D02*
Y148980D01*
X329420Y143980D02*
X339420D01*
X334420Y138980D02*
Y148980D01*
X259420Y143980D02*
X269420D01*
X264420Y138980D02*
Y148980D01*
X504420Y93980D02*
X514420D01*
X509420Y88980D02*
Y98980D01*
X434420Y93980D02*
X444420D01*
X439420Y88980D02*
Y98980D01*
X364420Y93980D02*
X374420D01*
X369420Y88980D02*
Y98980D01*
X294420Y93980D02*
X304420D01*
X299420Y88980D02*
Y98980D01*
X224420Y93980D02*
X234420D01*
X229420Y88980D02*
Y98980D01*
X961370Y144950D02*
X971370D01*
X966370Y139950D02*
Y149950D01*
X891370Y144950D02*
X901370D01*
X896370Y139950D02*
Y149950D01*
X821370Y144950D02*
X831370D01*
X826370Y139950D02*
Y149950D01*
X751370Y144950D02*
X761370D01*
X756370Y139950D02*
Y149950D01*
X681370Y144950D02*
X691370D01*
X686370Y139950D02*
Y149950D01*
X926370Y94950D02*
X936370D01*
X931370Y89950D02*
Y99950D01*
X856370Y94950D02*
X866370D01*
X861370Y89950D02*
Y99950D01*
X786370Y94950D02*
X796370D01*
X791370Y89950D02*
Y99950D01*
X716370Y94950D02*
X726370D01*
X721370Y89950D02*
Y99950D01*
X646370Y94950D02*
X656370D01*
X651370Y89950D02*
Y99950D01*
X228530Y624840D02*
X238530D01*
X233530Y619840D02*
Y629840D01*
X298530Y624840D02*
X308530D01*
X303530Y619840D02*
Y629840D01*
X368530Y624840D02*
X378530D01*
X373530Y619840D02*
Y629840D01*
X438530Y624840D02*
X448530D01*
X443530Y619840D02*
Y629840D01*
X508530Y624840D02*
X518530D01*
X513530Y619840D02*
Y629840D01*
X263530Y674840D02*
X273530D01*
X268530Y669840D02*
Y679840D01*
X333530Y674840D02*
X343530D01*
X338530Y669840D02*
Y679840D01*
X403530Y674840D02*
X413530D01*
X408530Y669840D02*
Y679840D01*
X473530Y674840D02*
X483530D01*
X478530Y669840D02*
Y679840D01*
X543530Y674840D02*
X553530D01*
X548530Y669840D02*
Y679840D01*
X642960Y624370D02*
X652960D01*
X647960Y619370D02*
Y629370D01*
X712960Y624370D02*
X722960D01*
X717960Y619370D02*
Y629370D01*
X782960Y624370D02*
X792960D01*
X787960Y619370D02*
Y629370D01*
X852960Y624370D02*
X862960D01*
X857960Y619370D02*
Y629370D01*
X922960Y624370D02*
X932960D01*
X927960Y619370D02*
Y629370D01*
X677960Y674370D02*
X687960D01*
X682960Y669370D02*
Y679370D01*
X747960Y674370D02*
X757960D01*
X752960Y669370D02*
Y679370D01*
X817960Y674370D02*
X827960D01*
X822960Y669370D02*
Y679370D01*
X887960Y674370D02*
X897960D01*
X892960Y669370D02*
Y679370D01*
X957960Y674370D02*
X967960D01*
X962960Y669370D02*
Y679370D01*
X62730Y41640D02*
X75230D01*
X68980Y35390D02*
Y47890D01*
X62730Y166640D02*
X75230D01*
X68980Y160390D02*
Y172890D01*
X112730Y41640D02*
X125230D01*
X118980Y35390D02*
Y47890D01*
X112730Y166640D02*
X125230D01*
X118980Y160390D02*
Y172890D01*
X39730Y104140D02*
X58230D01*
X48980Y94890D02*
Y113390D01*
X129730Y104140D02*
X148230D01*
X138980Y94890D02*
Y113390D01*
X58370Y600440D02*
X70870D01*
X64620Y594190D02*
Y606690D01*
X58370Y725440D02*
X70870D01*
X64620Y719190D02*
Y731690D01*
X108370Y600440D02*
X120870D01*
X114620Y594190D02*
Y606690D01*
X108370Y725440D02*
X120870D01*
X114620Y719190D02*
Y731690D01*
X35370Y662940D02*
X53870D01*
X44620Y653690D02*
Y672190D01*
X125370Y662940D02*
X143870D01*
X134620Y653690D02*
Y672190D01*
X265470Y440690D02*
X270470D01*
X267970Y438190D02*
Y443190D01*
X226100Y444500D02*
X231100D01*
X228600Y442000D02*
Y447000D01*
X214670Y391160D02*
X219670D01*
X217170Y388660D02*
Y393660D01*
X288544Y332740D02*
X295656D01*
X292100Y329184D02*
Y336296D01*
X166624Y548640D02*
X173736D01*
X170180Y545084D02*
Y552196D01*
X278170Y260350D02*
X283170D01*
X280670Y257850D02*
Y262850D01*
X293030Y641350D02*
X298030D01*
X295530Y638850D02*
Y643850D01*
X71160Y532130D02*
X76160D01*
X73660Y529630D02*
Y534630D01*
X239014Y458470D02*
X246126D01*
X242570Y454914D02*
Y462026D01*
X314746Y131318D02*
X319746D01*
X317246Y128818D02*
Y133818D01*
X244094Y248920D02*
X251206D01*
X247650Y245364D02*
Y252476D01*
X172974Y335280D02*
X180086D01*
X176530Y331724D02*
Y338836D01*
X218694Y251460D02*
X225806D01*
X222250Y247904D02*
Y255016D01*
X141224Y335280D02*
X148336D01*
X144780Y331724D02*
Y338836D01*
X306324Y219710D02*
X313436D01*
X309880Y216154D02*
Y223266D01*
X200914Y350520D02*
X208026D01*
X204470Y346964D02*
Y354076D01*
X261874Y254000D02*
X268986D01*
X265430Y250444D02*
Y257556D01*
X240284Y320040D02*
X247396D01*
X243840Y316484D02*
Y323596D01*
X493014Y458470D02*
X500126D01*
X496570Y454914D02*
Y462026D01*
X368554Y455930D02*
X375666D01*
X372110Y452374D02*
Y459486D01*
X519684Y391160D02*
X526796D01*
X523240Y387604D02*
Y394716D01*
X493014Y323850D02*
X500126D01*
X496570Y320294D02*
Y327406D01*
X367284Y261620D02*
X374396D01*
X370840Y258064D02*
Y265176D01*
X98044Y323850D02*
X105156D01*
X101600Y320294D02*
Y327406D01*
X112014Y452120D02*
X119126D01*
X115570Y448564D02*
Y455676D01*
X359450Y320040D02*
X364450D01*
X361950Y317540D02*
Y322540D01*
X80050Y514350D02*
X85050D01*
X82550Y511850D02*
Y516850D01*
X468670Y455930D02*
X473670D01*
X471170Y453430D02*
Y458430D01*
X670600Y527050D02*
X675600D01*
X673100Y524550D02*
Y529550D01*
X342940Y514350D02*
X347940D01*
X345440Y511850D02*
Y516850D01*
X308650Y447040D02*
X313650D01*
X311150Y444540D02*
Y449540D01*
X80264Y214630D02*
X87376D01*
X83820Y211074D02*
Y218186D01*
X75184Y323850D02*
X82296D01*
X78740Y320294D02*
Y327406D01*
X567094Y292990D02*
X572094D01*
X569594Y290490D02*
Y295490D01*
X85009Y132842D02*
X90009D01*
X87509Y130342D02*
Y135342D01*
X443524Y331216D02*
X448524D01*
X446024Y328716D02*
Y333716D01*
X105196Y232156D02*
X110196D01*
X107696Y229656D02*
Y234656D01*
X505754Y47498D02*
X510754D01*
X508254Y44998D02*
Y49998D01*
X489498Y93980D02*
X494498D01*
X491998Y91480D02*
Y96480D01*
M02*
