G04*
G04 #@! TF.GenerationSoftware,Altium Limited,Altium Designer,24.1.2 (44)*
G04*
G04 Layer_Physical_Order=1*
G04 Layer_Color=6502151*
%FSLAX44Y44*%
%MOMM*%
G71*
G04*
G04 #@! TF.SameCoordinates,F4167936-B6C4-4533-BD87-858211744F6C*
G04*
G04*
G04 #@! TF.FilePolarity,Positive*
G04*
G01*
G75*
%ADD13R,0.8000X0.8000*%
%ADD20C,0.3810*%
G04:AMPARAMS|DCode=21|XSize=1.6mm|YSize=1.6mm|CornerRadius=0.4mm|HoleSize=0mm|Usage=FLASHONLY|Rotation=270.000|XOffset=0mm|YOffset=0mm|HoleType=Round|Shape=RoundedRectangle|*
%AMROUNDEDRECTD21*
21,1,1.6000,0.8000,0,0,270.0*
21,1,0.8000,1.6000,0,0,270.0*
1,1,0.8000,-0.4000,-0.4000*
1,1,0.8000,-0.4000,0.4000*
1,1,0.8000,0.4000,0.4000*
1,1,0.8000,0.4000,-0.4000*
%
%ADD21ROUNDEDRECTD21*%
%ADD22C,1.6000*%
G04:AMPARAMS|DCode=23|XSize=1.6mm|YSize=1.6mm|CornerRadius=0.4mm|HoleSize=0mm|Usage=FLASHONLY|Rotation=0.000|XOffset=0mm|YOffset=0mm|HoleType=Round|Shape=RoundedRectangle|*
%AMROUNDEDRECTD23*
21,1,1.6000,0.8000,0,0,0.0*
21,1,0.8000,1.6000,0,0,0.0*
1,1,0.8000,0.4000,-0.4000*
1,1,0.8000,-0.4000,-0.4000*
1,1,0.8000,-0.4000,0.4000*
1,1,0.8000,0.4000,0.4000*
%
%ADD23ROUNDEDRECTD23*%
%ADD24C,1.7500*%
%ADD25R,1.7500X1.7500*%
%ADD26C,1.5500*%
D13*
X160020Y157480D02*
D03*
Y173980D02*
D03*
D20*
X27940Y27940D02*
X90170Y90170D01*
X134874D01*
X143002Y98298D01*
Y156962D01*
X160020Y173980D01*
Y157480D02*
X180340Y177800D01*
Y289560D01*
X84820Y110220D02*
X99380D01*
X27940Y53340D02*
X84820Y110220D01*
X292100Y50800D02*
Y88780D01*
X270660Y110220D02*
X292100Y88780D01*
X99380Y110220D02*
Y235220D01*
X270660Y110220D02*
Y235220D01*
X49380Y110220D02*
Y235220D01*
X160020Y45720D02*
X177800Y27940D01*
X160020Y45720D02*
Y157480D01*
X220660Y110220D02*
Y235220D01*
Y293370D01*
X209484Y304546D02*
X220660Y293370D01*
X169926Y304546D02*
X209484D01*
X154940Y289560D02*
X169926Y304546D01*
D21*
X292100Y50800D02*
D03*
X27940Y53340D02*
D03*
D22*
X292100Y25400D02*
D03*
X27940Y27940D02*
D03*
X154940Y289560D02*
D03*
X180340D02*
D03*
X152400Y27940D02*
D03*
X177800D02*
D03*
D23*
X129540Y289560D02*
D03*
X127000Y27940D02*
D03*
D24*
X270660Y235220D02*
D03*
Y110220D02*
D03*
X220660Y235220D02*
D03*
X99380D02*
D03*
Y110220D02*
D03*
X49380Y235220D02*
D03*
D25*
X220660Y110220D02*
D03*
X49380D02*
D03*
D26*
X290660Y172720D02*
D03*
X200660D02*
D03*
X119380D02*
D03*
X29380D02*
D03*
M02*
