G04*
G04 #@! TF.GenerationSoftware,Altium Limited,Altium Designer,24.1.2 (44)*
G04*
G04 Layer_Color=10002730*
%FSLAX44Y44*%
%MOMM*%
G71*
G04*
G04 #@! TF.SameCoordinates,F4167936-B6C4-4533-BD87-858211744F6C*
G04*
G04*
G04 #@! TF.FilePolarity,Positive*
G04*
G01*
G75*
%ADD10C,0.2500*%
%ADD11C,0.2000*%
%ADD12C,0.2540*%
D10*
X221910Y95970D02*
G03*
X221910Y95970I-1250J0D01*
G01*
X50630D02*
G03*
X50630Y95970I-1250J0D01*
G01*
X161270Y183730D02*
G03*
X161270Y183730I-1250J0D01*
G01*
D11*
X233160Y232720D02*
X258160D01*
X233160Y112720D02*
X258160D01*
X283160D02*
X305660D01*
X283160Y232720D02*
X305660D01*
X185660Y112720D02*
X208160D01*
X305660D02*
Y232720D01*
X185660D02*
X208160D01*
X185660Y112720D02*
Y232720D01*
X61880D02*
X86880D01*
X61880Y112720D02*
X86880D01*
X111880D02*
X134380D01*
X111880Y232720D02*
X134380D01*
X14380Y112720D02*
X36880D01*
X134380D02*
Y232720D01*
X14380D02*
X36880D01*
X14380Y112720D02*
Y232720D01*
X155520Y165230D02*
Y166230D01*
X164520Y165230D02*
Y166230D01*
D12*
X241452Y133093D02*
X238913Y130554D01*
Y125476D01*
X241452Y122936D01*
X243991D01*
X246530Y125476D01*
Y130554D01*
X249070Y133093D01*
X251609D01*
X254148Y130554D01*
Y125476D01*
X251609Y122936D01*
X238913Y138172D02*
X254148D01*
X249070Y143250D01*
X254148Y148328D01*
X238913D01*
X256687Y153407D02*
Y163563D01*
X254148Y168642D02*
X238913D01*
X243991Y173720D01*
X238913Y178798D01*
X254148D01*
Y186416D02*
Y191494D01*
X251609Y194033D01*
X246530D01*
X243991Y191494D01*
Y186416D01*
X246530Y183877D01*
X251609D01*
X254148Y186416D01*
X243991Y199112D02*
X254148Y204190D01*
X243991Y209268D01*
X254148Y221964D02*
Y216886D01*
X251609Y214347D01*
X246530D01*
X243991Y216886D01*
Y221964D01*
X246530Y224504D01*
X249070D01*
Y214347D01*
X68032Y139712D02*
X65493Y137172D01*
Y132094D01*
X68032Y129555D01*
X70571D01*
X73110Y132094D01*
Y137172D01*
X75650Y139712D01*
X78189D01*
X80728Y137172D01*
Y132094D01*
X78189Y129555D01*
X65493Y144790D02*
X80728D01*
X75650Y149868D01*
X80728Y154947D01*
X65493D01*
X83267Y160025D02*
Y170182D01*
X80728Y175260D02*
X65493D01*
X75650D02*
X70571Y182878D01*
X75650Y175260D02*
X80728Y182878D01*
Y190495D02*
Y195573D01*
Y193034D01*
X70571D01*
Y190495D01*
X80728Y203191D02*
Y208269D01*
Y205730D01*
X65493D01*
Y203191D01*
X80728Y215887D02*
Y220965D01*
Y218426D01*
X65493D01*
Y215887D01*
M02*
