G04*
G04 #@! TF.GenerationSoftware,Altium Limited,Altium Designer,24.1.2 (44)*
G04*
G04 Layer_Color=0*
%FSLAX44Y44*%
%MOMM*%
G71*
G04*
G04 #@! TF.SameCoordinates,C520DBBF-9C43-4C96-BD75-CFC822073104*
G04*
G04*
G04 #@! TF.FilePolarity,Positive*
G04*
G01*
G75*
%ADD28C,0.1500*%
D28*
X287102Y60593D02*
Y68090D01*
X289601Y70589D01*
X294599D01*
X297098Y68090D01*
Y60593D01*
X299597Y55594D02*
Y45598D01*
X297098Y38100D02*
Y33102D01*
X294599Y30602D01*
X289601D01*
X287102Y33102D01*
Y38100D01*
X289601Y40599D01*
X294599D01*
X297098Y38100D01*
X287102Y25604D02*
X294599D01*
X297098Y23105D01*
Y15607D01*
X287102D01*
X284602Y8110D02*
X287102D01*
Y10609D01*
Y5610D01*
Y8110D01*
X294599D01*
X297098Y5610D01*
X24191Y56885D02*
Y64382D01*
X26690Y66881D01*
X31689D01*
X34188Y64382D01*
Y56885D01*
X36687Y51886D02*
Y41890D01*
X34188Y36891D02*
Y31893D01*
Y34392D01*
X24191D01*
Y36891D01*
X34188Y24395D02*
X24191D01*
Y16898D01*
X26690Y14398D01*
X34188D01*
X106206Y285811D02*
Y295808D01*
Y290809D01*
X108705Y288310D01*
X111204Y285811D01*
X113703D01*
X123700Y295808D02*
X128699D01*
X131198Y293309D01*
Y288310D01*
X128699Y285811D01*
X123700D01*
X121201Y288310D01*
Y293309D01*
X123700Y295808D01*
X136196Y285811D02*
Y293309D01*
X138695Y295808D01*
X141194Y293309D01*
X143694Y295808D01*
X146193Y293309D01*
Y285811D01*
X151191Y295808D02*
X158689D01*
X161188Y293309D01*
X158689Y290809D01*
X153690D01*
X151191Y288310D01*
X153690Y285811D01*
X161188D01*
X166186Y298307D02*
X176183D01*
X181182Y295808D02*
X186180D01*
X183681D01*
Y285811D01*
X181182D01*
X193678Y295808D02*
Y285811D01*
X201175D01*
X203674Y288310D01*
Y295808D01*
X97418Y22942D02*
Y32938D01*
Y27940D01*
X99917Y25441D01*
X102416Y22942D01*
X104915D01*
X114912Y32938D02*
X119910D01*
X122410Y30439D01*
Y25441D01*
X119910Y22942D01*
X114912D01*
X112413Y25441D01*
Y30439D01*
X114912Y32938D01*
X127408Y22942D02*
Y30439D01*
X129907Y32938D01*
X132407Y30439D01*
X134906Y32938D01*
X137405Y30439D01*
Y22942D01*
X142403Y32938D02*
X149901D01*
X152400Y30439D01*
X149901Y27940D01*
X144902D01*
X142403Y25441D01*
X144902Y22942D01*
X152400D01*
X157398Y35438D02*
X167395D01*
X174893Y32938D02*
X179891D01*
X182390Y30439D01*
Y25441D01*
X179891Y22942D01*
X174893D01*
X172393Y25441D01*
Y30439D01*
X174893Y32938D01*
X187389Y22942D02*
Y30439D01*
X189888Y32938D01*
X197385D01*
Y22942D01*
X204883Y20442D02*
Y22942D01*
X202384D01*
X207382D01*
X204883D01*
Y30439D01*
X207382Y32938D01*
M02*
