G04*
G04 #@! TF.GenerationSoftware,Altium Limited,Altium Designer,24.1.2 (44)*
G04*
G04 Layer_Color=8388736*
%FSLAX44Y44*%
%MOMM*%
G71*
G04*
G04 #@! TF.SameCoordinates,C520DBBF-9C43-4C96-BD75-CFC822073104*
G04*
G04*
G04 #@! TF.FilePolarity,Positive*
G04*
G01*
G75*
%ADD11C,0.2000*%
G36*
X166296Y163349D02*
X166291Y163278D01*
Y163202D01*
X166285Y163114D01*
X166275Y162929D01*
X166258Y162743D01*
X166236Y162563D01*
X166220Y162475D01*
X166203Y162399D01*
Y162393D01*
X166198Y162377D01*
X166193Y162344D01*
X166176Y162306D01*
X166165Y162262D01*
X166149Y162208D01*
X166127Y162142D01*
X166100Y162077D01*
X166034Y161929D01*
X165958Y161776D01*
X165859Y161618D01*
X165745Y161465D01*
X165739Y161460D01*
X165723Y161443D01*
X165701Y161416D01*
X165668Y161383D01*
X165625Y161339D01*
X165576Y161290D01*
X165515Y161236D01*
X165450Y161181D01*
X165373Y161121D01*
X165292Y161055D01*
X165199Y160995D01*
X165106Y160930D01*
X165002Y160870D01*
X164893Y160810D01*
X164773Y160755D01*
X164653Y160706D01*
X164647Y160700D01*
X164625Y160695D01*
X164587Y160684D01*
X164538Y160668D01*
X164472Y160646D01*
X164396Y160624D01*
X164314Y160602D01*
X164216Y160580D01*
X164107Y160558D01*
X163992Y160537D01*
X163866Y160515D01*
X163735Y160493D01*
X163593Y160476D01*
X163446Y160466D01*
X163293Y160455D01*
X163134D01*
X163129D01*
X163102D01*
X163063D01*
X163014D01*
X162949Y160460D01*
X162878Y160466D01*
X162790Y160471D01*
X162703Y160476D01*
X162605Y160487D01*
X162501Y160498D01*
X162283Y160526D01*
X162064Y160569D01*
X161846Y160629D01*
X161840D01*
X161818Y160635D01*
X161791Y160646D01*
X161753Y160662D01*
X161704Y160679D01*
X161649Y160695D01*
X161589Y160722D01*
X161518Y160749D01*
X161371Y160810D01*
X161218Y160886D01*
X161065Y160968D01*
X160917Y161066D01*
X160912Y161072D01*
X160901Y161077D01*
X160884Y161094D01*
X160857Y161110D01*
X160824Y161137D01*
X160792Y161165D01*
X160710Y161236D01*
X160617Y161323D01*
X160519Y161421D01*
X160426Y161530D01*
X160338Y161645D01*
Y161651D01*
X160327Y161661D01*
X160317Y161678D01*
X160306Y161700D01*
X160284Y161733D01*
X160267Y161765D01*
X160240Y161809D01*
X160218Y161858D01*
X160164Y161967D01*
X160114Y162098D01*
X160060Y162240D01*
X160016Y162404D01*
Y162410D01*
X160011Y162426D01*
X160005Y162448D01*
X160000Y162481D01*
X159994Y162524D01*
X159983Y162579D01*
X159972Y162634D01*
X159967Y162699D01*
X159956Y162770D01*
X159945Y162852D01*
X159934Y162934D01*
X159929Y163027D01*
X159918Y163218D01*
X159912Y163431D01*
Y165730D01*
X166296D01*
Y163349D01*
D02*
G37*
G36*
X158706Y154923D02*
X158138D01*
Y160116D01*
X158706D01*
Y154923D01*
D02*
G37*
G36*
X164538Y153732D02*
X163894D01*
X163904Y153721D01*
X163921Y153710D01*
X163943Y153694D01*
X164008Y153645D01*
X164085Y153579D01*
X164172Y153497D01*
X164259Y153394D01*
X164352Y153279D01*
X164434Y153153D01*
Y153148D01*
X164445Y153137D01*
X164456Y153115D01*
X164467Y153088D01*
X164483Y153055D01*
X164500Y153017D01*
X164516Y152968D01*
X164538Y152913D01*
X164576Y152793D01*
X164609Y152651D01*
X164631Y152498D01*
X164642Y152329D01*
Y152280D01*
X164636Y152241D01*
Y152198D01*
X164631Y152149D01*
X164625Y152094D01*
X164614Y152028D01*
X164592Y151897D01*
X164554Y151755D01*
X164500Y151619D01*
X164429Y151488D01*
Y151482D01*
X164418Y151471D01*
X164407Y151455D01*
X164390Y151433D01*
X164341Y151378D01*
X164276Y151307D01*
X164188Y151231D01*
X164090Y151155D01*
X163970Y151084D01*
X163833Y151024D01*
X163844Y151018D01*
X163866Y150996D01*
X163910Y150969D01*
X163959Y150925D01*
X164019Y150871D01*
X164090Y150805D01*
X164161Y150729D01*
X164237Y150641D01*
X164314Y150543D01*
X164385Y150434D01*
X164456Y150319D01*
X164516Y150188D01*
X164565Y150051D01*
X164609Y149909D01*
X164631Y149756D01*
X164642Y149593D01*
Y149527D01*
X164636Y149478D01*
X164631Y149423D01*
X164620Y149358D01*
X164609Y149281D01*
X164592Y149199D01*
X164576Y149118D01*
X164549Y149030D01*
X164516Y148943D01*
X164483Y148855D01*
X164434Y148768D01*
X164385Y148686D01*
X164325Y148604D01*
X164259Y148533D01*
X164254Y148528D01*
X164243Y148517D01*
X164221Y148500D01*
X164188Y148473D01*
X164145Y148446D01*
X164095Y148413D01*
X164035Y148380D01*
X163970Y148348D01*
X163894Y148315D01*
X163806Y148277D01*
X163708Y148249D01*
X163604Y148222D01*
X163489Y148195D01*
X163364Y148178D01*
X163227Y148167D01*
X163085Y148162D01*
X159912D01*
Y148948D01*
X162823D01*
X162829D01*
X162845D01*
X162867D01*
X162900D01*
X162938D01*
X162981Y148954D01*
X163085Y148959D01*
X163195Y148965D01*
X163309Y148981D01*
X163413Y148997D01*
X163457Y149014D01*
X163500Y149025D01*
X163511Y149030D01*
X163533Y149041D01*
X163571Y149058D01*
X163620Y149090D01*
X163675Y149129D01*
X163730Y149172D01*
X163784Y149232D01*
X163833Y149303D01*
X163839Y149314D01*
X163855Y149336D01*
X163877Y149380D01*
X163899Y149434D01*
X163921Y149505D01*
X163943Y149582D01*
X163959Y149675D01*
X163965Y149773D01*
Y149822D01*
X163959Y149855D01*
X163953Y149893D01*
X163948Y149942D01*
X163937Y149997D01*
X163926Y150057D01*
X163883Y150183D01*
X163861Y150248D01*
X163828Y150319D01*
X163790Y150385D01*
X163746Y150456D01*
X163697Y150521D01*
X163637Y150581D01*
X163631Y150587D01*
X163620Y150597D01*
X163604Y150609D01*
X163577Y150630D01*
X163538Y150658D01*
X163495Y150685D01*
X163446Y150712D01*
X163386Y150739D01*
X163320Y150772D01*
X163244Y150800D01*
X163156Y150827D01*
X163063Y150854D01*
X162960Y150876D01*
X162850Y150887D01*
X162730Y150898D01*
X162599Y150903D01*
X159912D01*
Y151690D01*
X162916D01*
X162921D01*
X162938D01*
X162965D01*
X163003Y151695D01*
X163047D01*
X163096Y151701D01*
X163211Y151712D01*
X163337Y151739D01*
X163468Y151772D01*
X163593Y151815D01*
X163653Y151848D01*
X163702Y151881D01*
X163708D01*
X163713Y151892D01*
X163746Y151919D01*
X163784Y151963D01*
X163833Y152028D01*
X163883Y152116D01*
X163926Y152225D01*
X163943Y152285D01*
X163953Y152351D01*
X163959Y152427D01*
X163965Y152503D01*
Y152558D01*
X163959Y152591D01*
X163953Y152624D01*
X163943Y152705D01*
X163921Y152798D01*
X163894Y152902D01*
X163850Y153011D01*
X163790Y153120D01*
Y153126D01*
X163784Y153131D01*
X163757Y153164D01*
X163719Y153213D01*
X163659Y153273D01*
X163588Y153339D01*
X163500Y153410D01*
X163396Y153470D01*
X163276Y153525D01*
X163271D01*
X163260Y153530D01*
X163244Y153536D01*
X163216Y153546D01*
X163178Y153552D01*
X163140Y153563D01*
X163091Y153574D01*
X163031Y153585D01*
X162965Y153601D01*
X162894Y153612D01*
X162812Y153623D01*
X162730Y153628D01*
X162632Y153639D01*
X162534Y153645D01*
X162425Y153650D01*
X162310D01*
X159912D01*
Y154437D01*
X164538D01*
Y153732D01*
D02*
G37*
G36*
X162310Y147294D02*
X162343D01*
X162435Y147288D01*
X162539Y147277D01*
X162659Y147261D01*
X162796Y147239D01*
X162943Y147212D01*
X163096Y147174D01*
X163249Y147124D01*
X163407Y147070D01*
X163566Y146999D01*
X163719Y146917D01*
X163866Y146824D01*
X164003Y146715D01*
X164123Y146589D01*
X164128Y146584D01*
X164145Y146562D01*
X164172Y146529D01*
X164205Y146480D01*
X164243Y146425D01*
X164287Y146354D01*
X164336Y146272D01*
X164385Y146185D01*
X164429Y146081D01*
X164478Y145972D01*
X164522Y145852D01*
X164560Y145726D01*
X164592Y145590D01*
X164620Y145442D01*
X164636Y145295D01*
X164642Y145136D01*
Y145093D01*
X164636Y145044D01*
X164631Y144978D01*
X164625Y144896D01*
X164609Y144803D01*
X164587Y144694D01*
X164565Y144585D01*
X164532Y144459D01*
X164489Y144334D01*
X164440Y144203D01*
X164380Y144072D01*
X164303Y143946D01*
X164221Y143815D01*
X164123Y143689D01*
X164014Y143575D01*
X164008Y143569D01*
X163986Y143547D01*
X163948Y143520D01*
X163899Y143482D01*
X163833Y143433D01*
X163757Y143384D01*
X163670Y143329D01*
X163566Y143269D01*
X163446Y143214D01*
X163320Y143160D01*
X163178Y143111D01*
X163025Y143061D01*
X162856Y143023D01*
X162681Y142996D01*
X162490Y142974D01*
X162288Y142969D01*
X162277D01*
X162250D01*
X162201D01*
X162141Y142974D01*
X162064D01*
X161982Y142985D01*
X161884Y142990D01*
X161780Y143001D01*
X161671Y143018D01*
X161556Y143034D01*
X161321Y143083D01*
X161207Y143116D01*
X161092Y143149D01*
X160983Y143192D01*
X160884Y143242D01*
X160879Y143247D01*
X160863Y143252D01*
X160835Y143269D01*
X160802Y143291D01*
X160759Y143318D01*
X160710Y143351D01*
X160650Y143394D01*
X160595Y143438D01*
X160529Y143493D01*
X160464Y143547D01*
X160398Y143613D01*
X160333Y143684D01*
X160267Y143760D01*
X160202Y143842D01*
X160142Y143930D01*
X160087Y144023D01*
X160082Y144028D01*
X160076Y144044D01*
X160060Y144072D01*
X160044Y144110D01*
X160022Y144159D01*
X160000Y144214D01*
X159972Y144279D01*
X159951Y144350D01*
X159923Y144432D01*
X159896Y144519D01*
X159874Y144607D01*
X159852Y144705D01*
X159820Y144913D01*
X159814Y145022D01*
X159809Y145136D01*
Y145180D01*
X159814Y145229D01*
X159820Y145295D01*
X159831Y145377D01*
X159841Y145475D01*
X159863Y145579D01*
X159885Y145694D01*
X159918Y145819D01*
X159962Y145945D01*
X160011Y146076D01*
X160071Y146207D01*
X160142Y146338D01*
X160224Y146464D01*
X160322Y146589D01*
X160431Y146704D01*
X160437Y146709D01*
X160459Y146731D01*
X160497Y146758D01*
X160546Y146797D01*
X160611Y146840D01*
X160688Y146889D01*
X160781Y146944D01*
X160890Y146999D01*
X161010Y147059D01*
X161141Y147108D01*
X161289Y147163D01*
X161452Y147206D01*
X161622Y147245D01*
X161807Y147272D01*
X162009Y147294D01*
X162222Y147299D01*
X162228D01*
X162239D01*
X162255D01*
X162277D01*
X162310Y147294D01*
D02*
G37*
G36*
X164538Y141336D02*
X163877D01*
X163888Y141330D01*
X163910Y141314D01*
X163948Y141281D01*
X163997Y141243D01*
X164057Y141188D01*
X164117Y141123D01*
X164188Y141046D01*
X164259Y140959D01*
X164330Y140861D01*
X164401Y140751D01*
X164467Y140631D01*
X164522Y140500D01*
X164571Y140358D01*
X164609Y140205D01*
X164631Y140041D01*
X164642Y139867D01*
Y139796D01*
X164636Y139757D01*
Y139719D01*
X164631Y139670D01*
X164625Y139615D01*
X164603Y139495D01*
X164576Y139370D01*
X164538Y139233D01*
X164489Y139102D01*
Y139097D01*
X164483Y139086D01*
X164472Y139069D01*
X164461Y139042D01*
X164429Y138982D01*
X164380Y138905D01*
X164325Y138818D01*
X164254Y138731D01*
X164177Y138649D01*
X164090Y138578D01*
X164079Y138572D01*
X164046Y138551D01*
X163997Y138518D01*
X163926Y138480D01*
X163844Y138441D01*
X163746Y138398D01*
X163637Y138365D01*
X163517Y138332D01*
X163506D01*
X163495Y138327D01*
X163473D01*
X163451Y138321D01*
X163418Y138316D01*
X163380D01*
X163342Y138310D01*
X163293Y138305D01*
X163233Y138299D01*
X163173D01*
X163102Y138294D01*
X163025D01*
X162943Y138288D01*
X162850D01*
X162752D01*
X159912D01*
Y139075D01*
X162725D01*
X162730D01*
X162747D01*
X162768D01*
X162801D01*
X162845D01*
X162889Y139080D01*
X162992Y139086D01*
X163113Y139097D01*
X163227Y139113D01*
X163342Y139135D01*
X163391Y139151D01*
X163440Y139168D01*
X163446D01*
X163451Y139173D01*
X163478Y139184D01*
X163522Y139211D01*
X163577Y139244D01*
X163637Y139288D01*
X163702Y139342D01*
X163768Y139413D01*
X163822Y139495D01*
X163828Y139506D01*
X163844Y139534D01*
X163866Y139583D01*
X163894Y139648D01*
X163921Y139730D01*
X163943Y139817D01*
X163959Y139921D01*
X163965Y140036D01*
Y140085D01*
X163959Y140118D01*
X163953Y140162D01*
X163948Y140216D01*
X163937Y140271D01*
X163926Y140331D01*
X163888Y140467D01*
X163861Y140538D01*
X163828Y140609D01*
X163790Y140686D01*
X163752Y140757D01*
X163697Y140828D01*
X163642Y140899D01*
X163637Y140904D01*
X163626Y140915D01*
X163610Y140932D01*
X163577Y140953D01*
X163544Y140981D01*
X163495Y141013D01*
X163440Y141046D01*
X163375Y141079D01*
X163298Y141112D01*
X163211Y141145D01*
X163113Y141177D01*
X162998Y141205D01*
X162878Y141227D01*
X162741Y141243D01*
X162594Y141254D01*
X162435Y141259D01*
X159912D01*
Y142046D01*
X164538D01*
Y141336D01*
D02*
G37*
G36*
X161414Y136628D02*
X161409D01*
X161392Y136623D01*
X161371D01*
X161338Y136612D01*
X161299Y136607D01*
X161250Y136595D01*
X161147Y136563D01*
X161032Y136514D01*
X160912Y136448D01*
X160802Y136372D01*
X160748Y136322D01*
X160699Y136268D01*
Y136262D01*
X160688Y136251D01*
X160677Y136235D01*
X160661Y136213D01*
X160644Y136180D01*
X160622Y136142D01*
X160600Y136099D01*
X160579Y136049D01*
X160551Y135995D01*
X160529Y135929D01*
X160508Y135864D01*
X160491Y135787D01*
X160475Y135705D01*
X160464Y135624D01*
X160459Y135531D01*
X160453Y135432D01*
Y135383D01*
X160459Y135345D01*
Y135301D01*
X160464Y135247D01*
X160469Y135192D01*
X160480Y135126D01*
X160508Y135001D01*
X160546Y134864D01*
X160600Y134739D01*
X160633Y134684D01*
X160672Y134630D01*
Y134624D01*
X160682Y134619D01*
X160710Y134586D01*
X160759Y134548D01*
X160819Y134499D01*
X160895Y134449D01*
X160983Y134406D01*
X161076Y134378D01*
X161130Y134373D01*
X161185Y134367D01*
X161190D01*
X161196D01*
X161229Y134373D01*
X161278Y134378D01*
X161338Y134395D01*
X161403Y134422D01*
X161474Y134466D01*
X161545Y134520D01*
X161605Y134597D01*
X161611Y134602D01*
X161616Y134619D01*
X161622Y134630D01*
X161633Y134651D01*
X161649Y134684D01*
X161660Y134717D01*
X161676Y134761D01*
X161693Y134810D01*
X161714Y134864D01*
X161736Y134930D01*
X161758Y135006D01*
X161786Y135088D01*
X161813Y135181D01*
X161840Y135285D01*
X161867Y135400D01*
Y135410D01*
X161878Y135438D01*
X161889Y135482D01*
X161906Y135542D01*
X161922Y135607D01*
X161944Y135689D01*
X161971Y135776D01*
X161999Y135875D01*
X162053Y136071D01*
X162119Y136268D01*
X162151Y136361D01*
X162184Y136448D01*
X162211Y136524D01*
X162244Y136595D01*
Y136601D01*
X162250Y136612D01*
X162261Y136628D01*
X162272Y136650D01*
X162310Y136710D01*
X162359Y136781D01*
X162419Y136863D01*
X162495Y136951D01*
X162583Y137032D01*
X162681Y137103D01*
X162687D01*
X162692Y137109D01*
X162708Y137120D01*
X162730Y137131D01*
X162790Y137158D01*
X162867Y137185D01*
X162960Y137218D01*
X163063Y137245D01*
X163183Y137267D01*
X163309Y137273D01*
X163315D01*
X163326D01*
X163342D01*
X163364D01*
X163418Y137267D01*
X163495Y137256D01*
X163582Y137240D01*
X163680Y137213D01*
X163779Y137180D01*
X163877Y137136D01*
X163883D01*
X163888Y137131D01*
X163921Y137109D01*
X163970Y137076D01*
X164035Y137032D01*
X164101Y136978D01*
X164177Y136912D01*
X164248Y136836D01*
X164319Y136748D01*
X164325Y136737D01*
X164341Y136716D01*
X164369Y136672D01*
X164396Y136617D01*
X164434Y136546D01*
X164467Y136459D01*
X164505Y136361D01*
X164543Y136251D01*
Y136246D01*
X164549Y136235D01*
X164554Y136219D01*
X164560Y136197D01*
X164565Y136164D01*
X164576Y136131D01*
X164592Y136049D01*
X164609Y135946D01*
X164625Y135831D01*
X164636Y135705D01*
X164642Y135569D01*
Y135476D01*
X164636Y135432D01*
Y135378D01*
X164631Y135312D01*
X164620Y135247D01*
X164603Y135099D01*
X164576Y134941D01*
X164538Y134777D01*
X164483Y134619D01*
Y134613D01*
X164478Y134602D01*
X164467Y134580D01*
X164456Y134553D01*
X164440Y134515D01*
X164418Y134477D01*
X164369Y134384D01*
X164308Y134285D01*
X164237Y134187D01*
X164150Y134089D01*
X164057Y134007D01*
X164052D01*
X164046Y133996D01*
X164030Y133991D01*
X164008Y133974D01*
X163981Y133958D01*
X163948Y133941D01*
X163910Y133920D01*
X163866Y133898D01*
X163768Y133854D01*
X163642Y133810D01*
X163500Y133767D01*
X163342Y133734D01*
X163238Y134499D01*
X163244D01*
X163255D01*
X163271Y134504D01*
X163298Y134509D01*
X163364Y134531D01*
X163440Y134559D01*
X163528Y134597D01*
X163620Y134651D01*
X163713Y134717D01*
X163795Y134804D01*
Y134810D01*
X163806Y134815D01*
X163812Y134832D01*
X163828Y134848D01*
X163844Y134875D01*
X163861Y134908D01*
X163877Y134946D01*
X163899Y134985D01*
X163932Y135088D01*
X163965Y135208D01*
X163986Y135350D01*
X163997Y135514D01*
Y135602D01*
X163992Y135645D01*
X163986Y135700D01*
X163975Y135815D01*
X163953Y135940D01*
X163921Y136066D01*
X163877Y136186D01*
X163850Y136235D01*
X163817Y136284D01*
X163812Y136295D01*
X163784Y136322D01*
X163746Y136355D01*
X163697Y136399D01*
X163637Y136443D01*
X163566Y136475D01*
X163484Y136503D01*
X163396Y136514D01*
X163391D01*
X163369D01*
X163342Y136508D01*
X163304Y136503D01*
X163265Y136492D01*
X163216Y136475D01*
X163167Y136454D01*
X163123Y136421D01*
X163118Y136415D01*
X163102Y136404D01*
X163080Y136377D01*
X163053Y136344D01*
X163020Y136306D01*
X162981Y136251D01*
X162949Y136191D01*
X162916Y136120D01*
Y136115D01*
X162905Y136093D01*
X162900Y136077D01*
X162894Y136049D01*
X162883Y136022D01*
X162872Y135989D01*
X162861Y135946D01*
X162845Y135897D01*
X162829Y135842D01*
X162812Y135776D01*
X162790Y135705D01*
X162768Y135624D01*
X162741Y135531D01*
X162714Y135427D01*
Y135416D01*
X162703Y135389D01*
X162692Y135345D01*
X162676Y135290D01*
X162659Y135225D01*
X162637Y135143D01*
X162610Y135061D01*
X162583Y134968D01*
X162528Y134777D01*
X162463Y134586D01*
X162435Y134493D01*
X162403Y134406D01*
X162375Y134329D01*
X162348Y134264D01*
Y134258D01*
X162343Y134247D01*
X162332Y134231D01*
X162321Y134209D01*
X162288Y134149D01*
X162244Y134078D01*
X162190Y133996D01*
X162119Y133909D01*
X162037Y133827D01*
X161938Y133750D01*
X161933D01*
X161928Y133739D01*
X161911Y133734D01*
X161889Y133718D01*
X161862Y133707D01*
X161835Y133690D01*
X161753Y133652D01*
X161654Y133619D01*
X161540Y133587D01*
X161414Y133565D01*
X161267Y133559D01*
X161261D01*
X161250D01*
X161229D01*
X161201Y133565D01*
X161168D01*
X161125Y133570D01*
X161032Y133587D01*
X160917Y133614D01*
X160792Y133658D01*
X160661Y133712D01*
X160529Y133789D01*
X160524D01*
X160513Y133799D01*
X160497Y133810D01*
X160475Y133832D01*
X160409Y133881D01*
X160333Y133958D01*
X160245Y134051D01*
X160158Y134165D01*
X160071Y134297D01*
X159994Y134449D01*
Y134455D01*
X159989Y134471D01*
X159978Y134493D01*
X159967Y134526D01*
X159951Y134564D01*
X159934Y134613D01*
X159918Y134668D01*
X159902Y134733D01*
X159885Y134804D01*
X159869Y134875D01*
X159852Y134957D01*
X159836Y135045D01*
X159814Y135230D01*
X159809Y135427D01*
Y135514D01*
X159814Y135574D01*
X159820Y135651D01*
X159831Y135738D01*
X159841Y135831D01*
X159858Y135935D01*
X159874Y136044D01*
X159902Y136159D01*
X159929Y136273D01*
X159967Y136388D01*
X160011Y136497D01*
X160060Y136607D01*
X160114Y136710D01*
X160180Y136803D01*
X160186Y136809D01*
X160196Y136825D01*
X160218Y136847D01*
X160251Y136880D01*
X160289Y136918D01*
X160338Y136961D01*
X160393Y137005D01*
X160459Y137054D01*
X160535Y137109D01*
X160617Y137158D01*
X160710Y137207D01*
X160808Y137256D01*
X160917Y137300D01*
X161037Y137344D01*
X161157Y137376D01*
X161294Y137404D01*
X161414Y136628D01*
D02*
G37*
G36*
X164538Y132483D02*
X165679D01*
X166149Y131697D01*
X164538D01*
Y130916D01*
X163926D01*
Y131697D01*
X161223D01*
X161218D01*
X161207D01*
X161190D01*
X161168D01*
X161108D01*
X161043Y131692D01*
X160966Y131686D01*
X160895Y131681D01*
X160835Y131670D01*
X160808Y131664D01*
X160786Y131659D01*
X160781D01*
X160770Y131648D01*
X160753Y131642D01*
X160732Y131626D01*
X160682Y131582D01*
X160639Y131528D01*
Y131522D01*
X160628Y131511D01*
X160622Y131489D01*
X160611Y131457D01*
X160600Y131424D01*
X160595Y131375D01*
X160584Y131320D01*
Y131206D01*
X160590Y131167D01*
Y131118D01*
X160595Y131058D01*
X160600Y130992D01*
X160611Y130916D01*
X159918Y130801D01*
Y130818D01*
X159912Y130834D01*
X159907Y130856D01*
X159896Y130922D01*
X159885Y130998D01*
X159874Y131091D01*
X159863Y131195D01*
X159858Y131298D01*
X159852Y131397D01*
Y131468D01*
X159858Y131500D01*
Y131544D01*
X159869Y131637D01*
X159885Y131746D01*
X159907Y131855D01*
X159940Y131959D01*
X159983Y132057D01*
X159989Y132068D01*
X160011Y132096D01*
X160038Y132139D01*
X160082Y132189D01*
X160131Y132243D01*
X160191Y132298D01*
X160262Y132347D01*
X160338Y132391D01*
X160344D01*
X160349Y132396D01*
X160366Y132402D01*
X160382Y132407D01*
X160409Y132412D01*
X160448Y132418D01*
X160486Y132429D01*
X160535Y132434D01*
X160595Y132445D01*
X160661Y132456D01*
X160737Y132462D01*
X160824Y132467D01*
X160917Y132472D01*
X161021Y132478D01*
X161141Y132483D01*
X161267D01*
X163926D01*
Y133062D01*
X164538D01*
Y132483D01*
D02*
G37*
%LPC*%
G36*
X165543Y164883D02*
X160666D01*
Y163420D01*
X160672Y163365D01*
Y163305D01*
X160677Y163234D01*
X160682Y163163D01*
X160693Y163005D01*
X160715Y162841D01*
X160742Y162677D01*
X160759Y162606D01*
X160781Y162535D01*
Y162530D01*
X160786Y162519D01*
X160792Y162502D01*
X160802Y162475D01*
X160814Y162442D01*
X160830Y162410D01*
X160868Y162328D01*
X160917Y162235D01*
X160972Y162142D01*
X161037Y162049D01*
X161114Y161962D01*
X161119Y161956D01*
X161130Y161951D01*
X161147Y161935D01*
X161168Y161913D01*
X161201Y161885D01*
X161234Y161858D01*
X161278Y161825D01*
X161327Y161793D01*
X161381Y161754D01*
X161441Y161716D01*
X161507Y161678D01*
X161578Y161634D01*
X161736Y161563D01*
X161917Y161492D01*
X161922D01*
X161938Y161487D01*
X161966Y161476D01*
X162009Y161465D01*
X162059Y161454D01*
X162113Y161438D01*
X162184Y161421D01*
X162261Y161405D01*
X162348Y161394D01*
X162441Y161378D01*
X162545Y161361D01*
X162654Y161350D01*
X162768Y161339D01*
X162889Y161328D01*
X163020Y161323D01*
X163151D01*
X163156D01*
X163162D01*
X163195D01*
X163249D01*
X163315Y161328D01*
X163396Y161334D01*
X163495Y161339D01*
X163604Y161350D01*
X163719Y161367D01*
X163839Y161383D01*
X163965Y161405D01*
X164090Y161432D01*
X164221Y161465D01*
X164347Y161503D01*
X164467Y161547D01*
X164582Y161596D01*
X164685Y161656D01*
X164691Y161661D01*
X164707Y161672D01*
X164734Y161689D01*
X164773Y161716D01*
X164816Y161749D01*
X164865Y161782D01*
X164920Y161831D01*
X164980Y161880D01*
X165040Y161935D01*
X165100Y161995D01*
X165221Y162131D01*
X165275Y162208D01*
X165330Y162284D01*
X165373Y162366D01*
X165412Y162453D01*
Y162459D01*
X165417Y162470D01*
X165423Y162492D01*
X165434Y162519D01*
X165444Y162557D01*
X165455Y162601D01*
X165466Y162655D01*
X165477Y162715D01*
X165488Y162787D01*
X165499Y162868D01*
X165510Y162956D01*
X165521Y163054D01*
X165532Y163163D01*
X165537Y163283D01*
X165543Y163409D01*
Y164883D01*
D02*
G37*
G36*
X162222Y146491D02*
X162211D01*
X162184D01*
X162135D01*
X162075Y146485D01*
X162004Y146480D01*
X161917Y146469D01*
X161824Y146458D01*
X161720Y146442D01*
X161616Y146425D01*
X161507Y146398D01*
X161398Y146365D01*
X161283Y146327D01*
X161179Y146283D01*
X161076Y146234D01*
X160977Y146174D01*
X160890Y146109D01*
X160884Y146103D01*
X160874Y146092D01*
X160852Y146070D01*
X160824Y146038D01*
X160786Y145999D01*
X160753Y145956D01*
X160710Y145901D01*
X160672Y145841D01*
X160633Y145775D01*
X160590Y145699D01*
X160557Y145623D01*
X160524Y145535D01*
X160491Y145442D01*
X160469Y145344D01*
X160459Y145246D01*
X160453Y145136D01*
Y145109D01*
X160459Y145082D01*
Y145038D01*
X160469Y144989D01*
X160475Y144929D01*
X160491Y144869D01*
X160508Y144798D01*
X160529Y144721D01*
X160562Y144640D01*
X160595Y144563D01*
X160639Y144481D01*
X160688Y144399D01*
X160748Y144317D01*
X160819Y144241D01*
X160895Y144164D01*
X160901Y144159D01*
X160917Y144148D01*
X160944Y144126D01*
X160977Y144104D01*
X161026Y144077D01*
X161081Y144044D01*
X161152Y144006D01*
X161229Y143968D01*
X161321Y143935D01*
X161420Y143897D01*
X161534Y143864D01*
X161654Y143837D01*
X161786Y143815D01*
X161928Y143793D01*
X162086Y143782D01*
X162250Y143777D01*
X162261D01*
X162288D01*
X162332D01*
X162392Y143782D01*
X162463Y143788D01*
X162545Y143799D01*
X162637Y143809D01*
X162736Y143826D01*
X162840Y143848D01*
X162943Y143875D01*
X163053Y143902D01*
X163162Y143941D01*
X163265Y143990D01*
X163369Y144039D01*
X163462Y144099D01*
X163549Y144170D01*
X163555Y144175D01*
X163571Y144186D01*
X163593Y144208D01*
X163620Y144241D01*
X163653Y144279D01*
X163691Y144323D01*
X163730Y144377D01*
X163773Y144438D01*
X163812Y144503D01*
X163850Y144574D01*
X163888Y144656D01*
X163921Y144743D01*
X163953Y144831D01*
X163975Y144929D01*
X163986Y145033D01*
X163992Y145136D01*
Y145164D01*
X163986Y145191D01*
Y145235D01*
X163981Y145284D01*
X163970Y145344D01*
X163953Y145404D01*
X163937Y145475D01*
X163915Y145552D01*
X163883Y145628D01*
X163850Y145710D01*
X163806Y145792D01*
X163757Y145874D01*
X163697Y145956D01*
X163626Y146032D01*
X163549Y146109D01*
X163544Y146114D01*
X163528Y146125D01*
X163506Y146141D01*
X163468Y146169D01*
X163424Y146196D01*
X163364Y146229D01*
X163298Y146262D01*
X163222Y146300D01*
X163134Y146333D01*
X163036Y146371D01*
X162927Y146404D01*
X162807Y146431D01*
X162676Y146458D01*
X162534Y146475D01*
X162386Y146485D01*
X162222Y146491D01*
D02*
G37*
%LPD*%
D11*
X154520Y178980D02*
X165520D01*
X154520Y152480D02*
Y178980D01*
Y152480D02*
X165520D01*
Y178980D01*
M02*
